<svg xmlns="http://www.w3.org/2000/svg" xml:space="preserve" width="612" height="792" viewBox="0 0 612 792">
  <path d="M158 268.7c2.3-1.8 4.3-4 6.8-5.5 10-6 20.1-12 30.5-17.4 6.4-3.4 13.3-6 20.1-8.7 6.6-2.6 13.2-5.3 20-7 10.9-3 21.9-5 32.8-7.5l7.2-1.5c.4-.1 1-.4 1-.8 1.9-5 6.6-6 10.8-7.7 2.6-1.1 5.1-2.6 8-4 0 0 .5.7.9.6 5.9-1.4 11.8-.1 17.7 0 1 0 2 .2 3 .4l-.2.8c-3.4-.3-6.8-.6-10.2-.7-3 0-6 .2-9 0-3.7 0-6 3.2-9.3 4.1l19-1.2v.5l-25.4 2.8c-.6 0-1.1.8-1.8 1.4 15.3-2.4 30.4-3.2 45.6-1.3 1.2.2 2.3 1 3.8 1.6-9-.2-17.4-.8-25.8-.6-8.2.3-16.6 0-24.6 2.3l.1 1.3 9.6-.6c5.2-.4 10.4-.8 15.6-1 4.6-.1 9.1-.1 13.7.1 6.6.4 13.2.6 19.7 1.6 7.8 1.2 15.6 2.8 23.4 4.8 9.6 2.4 19.3 5 28.8 8a175 175 0 0 1 29.7 13.1c4.4 2.4 9 4.4 13.3 7 8.6 5.3 17 10.7 25.5 16.3 4.4 3 8.7 6.1 13 9.3 2 1.4 3.7 3 5.6 4.7l7.5 7 2.2-2.8c1.4 1.3 2.8 2.5 4 3.8a530 530 0 0 1 9.9 11.2l11 13.2c1.1 1.3 2.2 2.2 3.7.3.8-1 2.1-1.5 3.6-2.5l8.3 12.1c1 1.4 1.6 3 2.7 4.4 1 1.4.4 2.2-.8 2.9l-3.6 2c2.4 4.2 4.9 8.3 7 12.6 3.8 7 7.3 14.1 11 21.2.9 1.9 1 3.2-1.4 3.9-1.4.4-1.5 1.4-1 2.7 2.3 5.7 4.8 11.4 6.9 17.3 1.5 4.3 2.4 8.9 3.7 13.3 1 3.6 2.4 7 3.2 10.7 1 4.1 1.5 8.4 2.2 12.6.8 4.8 1.7 9.7 2.2 14.6.7 5.7 1.2 11.4 1.7 17.2.5 7 1.2 14 1.3 21.1.2 5.4-.4 10.9-.7 16.3-.2 4-.4 8-1 11.9-1 7-1.9 14.2-3.4 21.1a606 606 0 0 1-7.2 29 112 112 0 0 1-4.4 12.4c-2.7 6.9-5.4 13.8-8.5 20.4-2.9 6-6 11.8-9.5 17.4a565.6 565.6 0 0 1-18.4 28c-4.3 6-9.4 11.5-14.2 17.2-1.6 1.8-2.5 3.7-2.3 6 .3 2.9-.8 5.2-2.6 7.3-4 4.5-8.7 8.3-14 11.4-3.4 2-6.5 4.5-10 6.5-4.2 2.6-8.6 5-13 7.5-3.4 2-6.8 4.4-10.2 6.5-5.8 3.5-11.5 7-17.4 10.3-7.4 4-15 8-22.7 11.3-7 3-13.4 7.1-20.7 9.5-7.3 2.3-14 6.3-21 9.1-5.4 2-11 3.4-16.6 5-3.2 1-5.9-.3-8.3-2.4-.9-.7-2-1.3-2.6-2.2-1.1-1.6-2.7-1.1-4-1l-18.7 1.1c-3.4.2-6.8 0-10.2 0h-14.8c-2.8 4.3-6 7-13.6 4.6-6.9-2.2-13.8-4.3-20.5-7-10.5-4-20.8-8.6-31.3-13-6.5-2.6-13-5.1-19.6-7.9-3.2-1.4-6.3-3.2-9.5-4.9l-13-6.8c-8.4-4.6-16.9-9.1-25.1-14-5-2.8-10-6.1-14.7-9.5-5.4-4-10.7-8-16-12.3-3.1-2.7-5.7-5.8-5.1-10.5.4-3.4-1.3-6-3.5-8.5a193 193 0 0 1-26-37.2c-5.8-10.2-10.7-21-15.6-31.8a248.6 248.6 0 0 1-14-38.3c-3.5-13.2-6-26.7-6.5-40.5-.4-10.3-1.3-20.7-.9-31 .5-12.2 2-24.3 3.4-36.5.6-5.6 2.1-11.2 3.3-16.7 0-.7.6-1.3.9-2l-.7 4.3c-4 17.3-6.2 34.9-6 52.6 0 13.6.6 27.2 2 40.7a207.1 207.1 0 0 0 18 64.2 240.4 240.4 0 0 0 34 60.2c6 8.1 12.7 15.6 20 22.4l3.3 3c3.6 3.3 7.1 6.8 10.8 10 3.2 2.9 6.7 5.5 10 8.2 1.9 1.5 3.6 3.3 5.6 4.6a493 493 0 0 0 16 10c6.4 4 12.7 8 19.4 11.4 6.8 3.5 13.9 6.2 20.9 9.1 5.3 2.2 10.7 4.3 16 6.3 7.4 2.6 14.8 5.4 22.5 7 .5 0 1 .2 1.4.4 3.8 1 7.5 2.1 11.3 2.9 4.5.9 9 1.4 13.5 2 3.1.4 6.3.8 9.5 1l9.7.1c7.1.1 14.2.5 21.2.3 6.8-.2 13.6-1 20.4-1.9 6.5-.7 13-1.6 19.4-3 7.6-1.6 15-3.8 22.6-5.7 8.4-2.1 16.6-5 24.3-9 5-2.5 10.2-5 15.1-7.8 8.2-4.7 16.4-9.4 24.5-14.3 3.6-2.2 7-4.8 10.4-7.4 4.9-3.6 9.7-7.2 14.3-11a300.6 300.6 0 0 0 24-23.4c2.7-3 5-6.2 7.5-9.3 2.9-3.8 5.9-7.5 8.7-11.4 2-2.6 3.7-5.3 5.5-8 4.1-6 8.6-11.8 12.1-18.1 3.6-6.5 6.4-13.5 9.4-20.3 2.4-5.4 4.6-10.9 6.8-16.4 1.2-3 2.6-6 3.4-9.3 2.6-9.1 5.1-18.3 7.3-27.6 1.6-7.4 2.7-14.9 3.8-22.3a173.2 173.2 0 0 0 2.2-32.3c-.2-9.8-.4-19.5-1.2-29.2-.6-6.7-1.9-13.4-3.1-20a381 381 0 0 0-5-22.9c-1.6-6.4-3.8-12.6-5.8-18.9l-3.2-7.9c-1.7-4.4-3-9-5.2-13-5-9.6-10.4-19-15.7-28.3a247.7 247.7 0 0 0-18.6-26c-5.3-6.5-10.4-13.1-16.2-19a419 419 0 0 0-24.1-22.1c-4.5-4-9.6-7.2-14.6-10.5-4.6-3-9.3-5.7-14-8.4-5-2.8-10-5.9-15.2-8.3-7-3.4-14.5-6-21.5-9.4-8.2-4-17-5.9-25.8-8.2-8.2-2.2-16.6-4-25-5.3a215.1 215.1 0 0 0-83.7 1.5 248.9 248.9 0 0 0-36 9.6c-8.2 3-16.1 6.6-24.2 10a185 185 0 0 0-35.4 20l-7 4.3zm327.2 23c10.4 12.8 21 24.9 30.4 37.9 9.3 12.9 16.8 27 23 41.7l1.2-.4c0-1 .3-2.2 0-3.1-1-2.3-2.4-4.5-3.5-6.7-3-5.8-5.7-11.7-8.7-17.4-1.7-3.1-3.7-6-5.7-9.3l4-2.3c1.3-.7 1.5-1.4.6-2.5-1-1.2-1.8-2.6-2.7-3.8l-6.4-9-1.2.6c-4.4 2.8-4.4 2.7-7.7-1.2l-20.6-24c-1-1.2-2-2-2.7-.5zM118.4 658.2c.4 4.6 1.1 8.3 4.9 10.6l-1.4-2.3 4.6 3.7 4.2 3c-.2-1-.8-1.6-1.4-2.1-2.5-2-5-3.9-7.3-6-1-1-1.6-2.3-2.3-3.5l.6-.3 3.2 2.8.5-.6-5.6-5.3zM350 741.5v-.6l-9 2.2c-1.7.4-2.5 0-2.3-1.9l-2.6.3c2 2.8 5 4 8.2 3.1l-3.1-.6 8.8-2.5zm-209.4-58 .4-.6-15.6-11.5c4 5.3 10 8.3 15.2 12zM488.9 667l-11.6 9.4c4.5-2.3 9-4.7 11.6-9.4zm-7 3.7a20 20 0 0 0 10-10.4l-10 10.4zm-130.5 71.6.3.9L366 738l-.3-.7-14.3 5zm-214-65.1c0 .2-.2.3-.4.5l10.4 8 .4-.6-10.3-8zm14.5 12.6-.5.7 6.1 3.7.4-.7-6-3.7zm116.9 50.7-.3.7 8.2 2.7.3-.8-8.2-2.6zm108-6.6-.3-1-5.8 2.2.2.7 6-2zM351.2 171c-3.6 2-7.2 4-10.7 6.2-.7.4-1.4 1.2-1.6 2a35 35 0 0 1-17.4 22.7c-1.8 1-3.2 2.8-4.8 4.1l-1.7 1 .9 1h-18.7v-.8h10.3v-1H300c-1.3 0-2.6 0-3.8-.2-.5 0-1.3-.4-1.3-.6-.4-4.5-4.8-4.6-7.3-6.6-5.4-4.4-10.5-9-12.1-16-.5-2-1.6-3.1-3.5-4a28.8 28.8 0 0 1-10.6-8l-.3-.3c-4.2-1.1-5.7-5.4-8.6-8-3-2.6-5.7-5.8-8-9-3-4.2-5.5-8.5-8-12.9a83.1 83.1 0 0 1-9-29.5c-.5-3.9 0-8.1.6-12.1 1-6.3 2-12.6 3.8-18.6a65.4 65.4 0 0 1 14-25.6c3.5-3.7 7.2-7.1 10.8-10.6.5-.5 1.1-.6 1.7-1l-1.6 1.8c-4.7 5.1-9.7 10.1-14.1 15.5a57 57 0 0 0-8.7 16.6 75.3 75.3 0 0 0-1.5 50.8c3 11.5 9.7 20.7 17 29.3a78.9 78.9 0 0 0 20 17l2.4 1.3.4-.6a98 98 0 0 1-32-32.5 73.1 73.1 0 0 1-8.6-44.3c-1 15.5 2.1 30 9.8 43.5a84 84 0 0 0 31.8 31.5 84.9 84.9 0 0 1-36.8-48.1c-5.8-21.4-1-41.3 9.8-60-9.8 18.3-14.4 37.4-8.8 58.2a78.9 78.9 0 0 0 35.5 47.4l1.9-9.3c.5-1.1 1-2.4 1.6-3.4 1.6-2.8 3.3-5.4 5-8.1l-1.6 3c-5.9 10-7.3 20.5-3.2 31.4 3.1 8.2 9.4 13.8 17.2 17 9.7 4 19.7 4.9 29.2-1.4 3.7-2.5 6.8-5.5 9-9.3v.1c1.3-2 3-4 3.9-6.3a32.2 32.2 0 0 0 1-20.1 31.9 31.9 0 0 0-11.5-19.2 32 32 0 0 0-16.5-5.7c-9.6-1-17.7 1.6-24.7 8.1l-3 2.5 4.5-5.8c-2-.7-3.6-1.6-5.5-2-3.3-1-5-2.8-4.7-5.6 0-.8.7-1.6 1.2-2.5l.4.4-1 3.5h26.7l.4-3.8c.9 4 .9 4 4.7 3.8l.3-2.7h.7l.8 2.7.5.3 1-4 1.7 4 .4-.3.7-3h.6v3.2h1.7l-.2-3.4 1-.2.8 3.6h.9l-.2-5c2.5.8 0 4.5 2.7 5.1-.4-2.7.3-4.3 2-4.5l-.8 4.6c3 0 .3-3.3 2.7-3.7l.7 4h6.6l-1.2-3c2.4.2 4.2.6 3.6 3.6.8-.6 1.6-1 1.6-1.2-.3-3-3-2.6-5.3-3.4 2.5-1.2 5.5-1.1 6.3 0 1.8 2.5.8 5.4-2 6.5-3 1.1-5.8 2.4-8.5 3.6 1.9 2 3.7 3.8 5.2 5.8 1.9 2.7 1.7 2.8 4.6 1.1l.8-.5-3 3.1c1.3.8 1.5.8 3.7-.6 7.3-5 13.1-11.4 17.8-19 6.6-10.6 9-22.4 8.3-34.8a56.5 56.5 0 0 0-41.4-52.4 59.3 59.3 0 0 0-30-1.2 67.1 67.1 0 0 0-20.8 9.5 57 57 0 0 0-25 39c-2.6 18.4 1.1 35 13 49.6l5.4 6.7-.6.5c-2.6-3.3-5.3-6.5-7.8-9.9a55.8 55.8 0 0 1-11.2-29.5c-.6-7.4 0-14.8 1.4-22.2A54.8 54.8 0 0 1 277 51.7c10.3-5.3 21-8.7 32.9-7.5 9.3 1 18.3 2.8 26.6 7.8a59.7 59.7 0 0 1 26.9 68 57.8 57.8 0 0 1-26.2 35.1c-.6.4-1.5 1.2-1.4 1.5.4 1.2.8 2.5 1.7 3.3.4.4 2-.4 2.8-1 6.6-4.1 12-9.6 17-15.6 4.3-5 7-11 9.3-17 1.4-3.8 2.9-7.8 3.2-11.8.5-6.7.5-13.5 0-20.2A61.3 61.3 0 0 0 356 61.7c-8.5-11.1-20.5-17.1-34-20a87 87 0 0 0-10.6-1.5c-3.8-.3-7.7-.6-11.5-.3s-7.7 1-11.1 2.3a92.7 92.7 0 0 0-17 8.2c-5.3 3.5-10 8-14.5 12.5-5 5.1-9.2 10.8-11.2 17.9l-2.6 9a65.6 65.6 0 0 0 9.4 53.7c5.5 8 11.8 15.4 20 21.1-1 0-1.9-.3-2.5-.8a81.2 81.2 0 0 1-26.7-35.4 59.7 59.7 0 0 1-3.5-26.8c.6-5.7 1.8-11.3 3-17 1.6-7.5 5.5-14 10.2-19.9 3.7-4.8 7.7-9.5 13.3-12.5 3.6-1.9 6.7-4.6 10.2-6.6 13-7.2 27-9 41.5-6.2a69 69 0 0 1 25.1 10 59.7 59.7 0 0 1 24.6 33 65.8 65.8 0 0 1 0 42 68.6 68.6 0 0 1-23.8 33c-2.2 1.6-4.6 3-6.9 4.6l.3.6c.8-.2 1.8-.3 2.5-.7 5.2-2.7 10-6 13.7-10.4a76 76 0 0 0 16-25.1 65.8 65.8 0 0 0 3.8-25.1c-.2-4.7-1.6-9.3-2.3-14a49.8 49.8 0 0 0-9.3-22c-4.2-5.8-9.7-11-15.2-15.7a52 52 0 0 0-23-10.4c-9.7-2-19.3-4-29.2-2-8.3 1.7-16 4.6-23 9-5.2 3.4-10 7.5-14.6 11.8a49.6 49.6 0 0 0-14.4 21.8c-1.6 5.6-2.4 11.4-3.6 17.2-1.5 7.3-.6 14.7.5 22a65.2 65.2 0 0 0 8 21.5c4 7.5 10 13.5 15.9 19.5 2.8 2.9 6.2 5.2 9.4 7.7-.9 0-1.7-.2-2.3-.7-3.8-3.2-7.8-6.2-11.3-9.7a74 74 0 0 1-18.5-28.4c-3.1-8.8-4-17.8-3.7-27A66.1 66.1 0 0 1 268 47.3c3.4-2.3 7.2-3.9 10.7-5.9a52.9 52.9 0 0 1 27-6.3A80 80 0 0 1 332 40a74.8 74.8 0 0 1 29 20.7c6.1 9.2 10.4 19.2 12.6 30a67.9 67.9 0 0 1-10.7 51.7 64.2 64.2 0 0 1-23.7 22c-.4.2-.6 1-1 1.6l.5.5 2.2-.8a50.5 50.5 0 0 0 14.9-12c1-1.2 1.8-2.6 3-3.7a54 54 0 0 0 12-19.2c.7-1.5.8-3.3 1.6-4.7 3.2-5 3.5-11 4.2-16.6.5-3.7 0-7.6-.5-11.3-.8-5.4-1.7-10.9-3.2-16.1-1.6-5.6-3.7-11.1-7.4-15.9-3.4-4.4-6.6-9-10-13.6-3-4-7.2-6.4-11.5-8.8a67.4 67.4 0 0 0-20.8-8c-2.8-.4-5.4-1.2-8.1-1.8l.1-.7 6.6 1.4a79 79 0 0 1 26.4 10.2 53.2 53.2 0 0 1 15.2 15c2.6 3.5 4.6 7.5 6.5 11.4a81.1 81.1 0 0 1 8 26 62.3 62.3 0 0 1-6.9 37.5c-3.2 6.3-7.6 12-11.9 17.5-5 6.5-10.9 12-18.6 15.2-.6.3-1.1 1-1.7 1.4l.7.8 8.8-5.4a59.4 59.4 0 0 0 16.3-16.5c3.5-4.7 6-10 8.8-15.3 3.6-7 5.7-14.4 6.2-22.3a78.9 78.9 0 0 0-7-37c-3.1-6.2-6-12.5-11-17.6-3.3-3.5-6.4-7.5-10.2-10.3-5.6-4-11.3-8-18-10A86.7 86.7 0 0 0 306 30h-7.5v-.8c1.4-.1 2.8-.4 4.1-.4 6.8-.1 13.6.2 20.1 2.2 6.5 2 13.1 3.6 19.2 6.5 9 4.3 16.6 10.5 22.9 18.4 5.6 7.1 9.6 15 12.3 23.4 1.5 4.6 2.6 9.4 3.4 14.2.8 5 2 9.8.8 14.8-.1.7.2 1.4.2 2.1.6-.5.9-.9 1-1.4v-2c.4-6.1-.5-12.1-1.9-18.1A78 78 0 0 0 370 61.5a76.9 76.9 0 0 0-17.8-20 69.7 69.7 0 0 0-21-10 73.5 73.5 0 0 0-41.1-2.6c-7.3 2-14.2 5-21.3 7.6l-.2-.2c3.5-1.7 6.8-3.7 10.4-5a74.5 74.5 0 0 1 50.5-1.3c5 1.6 10.2 3.3 15 5.7 4.4 2.3 8.7 5 12.5 8.4 4.5 4 8.3 8.9 12.4 13.4 1 1.1 1.7 2.5 2.5 3.8l.7-.3-3.2-5.2.5-.4c1.6 2.6 3.5 5 5 7.7a83.5 83.5 0 0 1 6.9 68.2c-1.6 5.2-4.3 10-7 14.7-3.1 5.1-6.7 10-10.5 14.5-3.6 4.4-8 8-13.2 10.6.6-.6 1-1.2 1.7-1.6a72.6 72.6 0 0 0 25.3-32c2.9-6.5 4.4-13.6 6.3-20.5.6-2 .4-4.1.6-6.2-5.2 28.9-17.6 52.5-45.8 65.3 2-.4 3.7-1 5.3-1.8 2.3-1 4.5-2.2 6.7-3.3zm29.3-49.8c-.4.6-1 1.2-1.3 1.9-1 2.6-1.8 5.4-3 8-1.9 3.9-3.7 8-6.1 11.6-3.8 5.7-7.7 11.5-12.2 16.6-4.9 5.6-11 9.9-18 12.4-.3 0-.3.4-.7 1 1.7-.5 3-.7 4.3-1.3 1.4-.7 2.7-1.7 4.1-2.4 6.3-3 11-7.8 15.2-13.2a85 85 0 0 0 17.6-34.7l2-8.9-.8-.2-1 5.4-.1 3.8zm4-18.9c-.1-14.3-3.9-27.8-11.5-40a98.6 98.6 0 0 1 11.4 40zM140.7 283c-2.2 2-4.4 4.3-6.7 6.3a207.3 207.3 0 0 0-25.3 27.2c-5.2 6.3-10 13-14.8 19.7-2.7 3.9-5 8-7.4 12l-1.6 2.1c2-3.5 3.7-7 5.7-10.4a249 249 0 0 1 31.9-40.4c5-5.4 10.7-10.3 16.2-15.4.5-.6 1.3-.8 2-1.2z"/>
  <path d="M279.8 29.2a77.8 77.8 0 0 1 57.4 1.5 86 86 0 0 0-57.4-1.5zM85 350.2l-4.5 9.4A263.7 263.7 0 0 0 64.8 398c-.2.9-.7 1.6-1 2.4.8-3 1.3-6.2 2.4-9.1 3.2-8.1 6.5-16.2 10-24.1 2.3-5.4 5.1-10.5 7.7-15.8.2-.4.7-.8 1-1.2zM319.4 212.3c-2.1-.2-4.2-.5-6.2-.5-5.7 0-11.3.2-17 .3-.8 0-1.6 0-2.5-.5 1.9-.3 3.7-.7 5.6-.7 5.6 0 11.1.2 16.7.4 1.1 0 2.3.7 3.4 1z"/>
  <path d="m319.4 212.4-.8-2c5.6 2.8 11.8 4.2 16.6 9a47415 47415 0 0 1-15.8-7zM158.2 268.7l-9.7 8c-1.6 1.4-3.4 2.7-5.1 4 1.2-1.3 2.3-3 3.8-4.1 3.5-2.8 7.3-5.3 11-8zM63.8 400.3l-5.4 18.3 4-15 1.4-3.3zM258.4 43.3c1.2-1.1 2.4-2.4 3.7-3.3 2.1-1.4 4.3-2.5 6.5-3.7l.2.2-10.5 6.7zM227.8 92.3l-1.2 10.8h-.2l.8-11 .6.2zM348.2 35.6l8 5.1-.4.6-8-5.1.4-.6zM54.4 485c.2-4.7.4-12.8.9-21 .4-7.2.8-14.5 1.8-21.6A394.6 394.6 0 0 1 68.6 395c2-6.1 4.5-12 7.2-17.9 3.7-8.1 7.2-16.4 11.6-24.2 4.7-8.2 10.1-16 15.4-24 4.6-6.7 9.4-13.2 15.2-19 4.8-4.9 9-10.4 14-15.2 4.9-4.8 10.3-9.1 15.6-13.6 3.6-3 7.1-6.2 11-8.9 7.6-5.2 15.5-10.1 23.2-15.2a185 185 0 0 1 37-17.3c5.2-2 10.3-4 15.5-5.5 8.4-2.4 16.8-4.3 25.3-6.2 4.8-1 9.6-2 14.4-2.6 6.1-.8 12.3-1.1 18.4-1.5 5.3-.4 10.6-.6 15.9-.8h6.5c5.5.4 11.1 1 16.7 1.3 12.6.6 24.7 3.7 36.9 6.7 13.3 3.2 26.2 7.7 38.5 13.7 6 2.9 11.4 6.5 17.2 9.7 5 2.8 10.4 5.2 15.2 8.4 8.4 5.5 16.6 11.2 24.5 17.4 6.2 4.9 12 10.4 17.7 16 4.3 4.3 8 9.2 11.9 13.8 3.1 3.7 6.5 7.2 9.4 11.1 4.5 6 9 12.2 13.1 18.5 3.5 5.2 6.6 10.6 9.6 16.2a429.6 429.6 0 0 1 14.7 31.7c1.5 3.9 2.5 7.9 3.7 11.8 1.1 3.6 2.5 7 3.4 10.6a328.5 328.5 0 0 1 7.6 41.6c.5 4.6.4 9.2.7 13.9.2 4.2.8 8.5.8 12.8 0 5.2 0 10.5-.4 15.8-.8 8.8-1.6 17.7-3 26.5a335 335 0 0 1-10.4 43.4c-1.5 4.4-3.6 8.5-5.4 12.8-2.5 6-4.8 12.3-7.7 18.2-2.2 4.7-5.1 9-7.7 13.4l-3 5.4c-2 3.5-3.9 7.1-6.2 10.4-6.5 8.8-12.3 18-20 26-3.8 4-7 9-11 12.7-8.5 8-17.2 15.7-26.2 23-5.5 4.4-11.7 8-17.7 11.7a354.2 354.2 0 0 1-31.4 17.7c-5.3 2.6-10.6 5.4-16.3 7.2a320.7 320.7 0 0 1-30.7 8.5c-11 2.3-22.2 4-33.4 5.2-6.8.8-13.6.5-20.5.5-6.6 0-13.2.2-19.8-.4-7.5-.7-15-2-22.4-3.4-6.8-1.3-13.4-3.2-20.1-5-1.4-.3-2.8-.9-4.1-1.4-11.4-4.2-23-8.2-34.2-12.8-7.4-3.1-14.8-6.7-21.7-11-10-6-19.6-12.4-29-19.3-7-5.1-13.4-11-19.8-17a313.8 313.8 0 0 1-19.9-19.7c-4.5-5-8.3-10.8-12.2-16.4-3.7-5.5-7.3-11-10.5-16.7-4-6.7-7.5-13.7-11.1-20.6-1.5-2.8-3-5.5-4.3-8.4a414 414 0 0 1-8-20.2c-2-5.4-3.7-11-5-16.6-2.5-10.7-5.1-21.4-6.7-32.2-1.4-9-1.4-18.1-2.2-30.6zm489.4-77c-.2-.2-.8-.7-1-1.4-2.2-6-4.2-12.2-6.5-18.2-2.5-6.5-5-13-8-19.3-2.3-5-5-9.8-7.8-14.6-4-6.8-7.7-14-12.3-20.4-7.3-10.4-14.5-20.9-23.7-29.8l-6-6.3c-9-8.3-18.1-16.6-28.2-23.7-3.7-2.6-7.4-5-11-7.7-9.5-7.2-20-12.5-30.5-17.7-8.8-4.3-18.2-7.5-27.6-10.6-7.7-2.6-15.6-4.4-23.5-6.5-4.4-1-8.7-2.3-13.1-2.9a253.8 253.8 0 0 0-92 2.4c-3 .6-6 1.6-9 2.4-3.5 1-7.1 1.5-10.5 2.7a313.6 313.6 0 0 0-36.2 15c-7 3.4-14.2 6.9-20.8 11-6.7 4.2-13 9-19.2 13.9-7.9 6.3-15.4 13-23 19.6-2.3 2-4.2 4.5-6.4 6.7-3.5 3.5-7 6.7-10.4 10.3-2 2.3-3.6 5-5.4 7.5-3 4-6.3 8-9.1 12.1-5.6 8.5-10.9 17.2-16.3 25.8a1350.1 1350.1 0 0 0-9 19.5c-2.5 5.9-5.3 11.7-7.4 17.8-2.4 7-3.7 14.3-6 21.3-3.8 10.7-5 21.9-6.3 33-1 8-1 16.3-1.2 24.4-.2 8.3-.5 16.7.3 24.9 1.3 12.3 3.4 24.5 5.4 36.7 1.5 9.7 4.6 19 8.1 28.1 4.3 11 8.3 22 14 32.4 3.1 5.5 5.9 11.2 9.1 16.6a251 251 0 0 0 23.8 33.5c4.4 5 9.2 9.7 14 14.4 5 4.8 10 9.7 15.5 14 6.2 5 12.7 9.6 19.2 14 7 4.7 14.1 9.4 21.6 13.3 10.2 5.4 20.5 11 31.6 14.4 9.7 3 19.2 6.5 29 9s19.8 4.3 29.8 5.6c9.6 1.1 19.3 1.3 28.9 1.6a184.5 184.5 0 0 0 30.5-2c8.6-1.5 17.2-2.9 25.7-4.8 8.1-1.9 16.4-3.8 24.2-6.7 9-3.4 17.9-7.7 26.6-12 6.3-3.1 12.3-6.7 18.3-10.3 5.3-3.1 10.8-6 15.5-9.9a663 663 0 0 0 31.1-27.4c5.8-5.4 10.9-11.7 16-17.7 3-3.5 5.4-7.5 8.2-11.2 2.6-3.6 5.6-6.9 8-10.6a415.6 415.6 0 0 0 20.7-36.6c1.8-3.8 2.9-8 4.3-12.1 3.3-10.2 7.1-20.3 10-30.6 2.1-8.4 3.4-17 4.5-25.6.9-6.2 1-12.4 1.4-18.7.4-6.7 1-13.3.9-20-.2-7.9-1.2-15.7-1.4-23.6-.3-9.7-2.8-19-4.3-28.5-.7-4.3-2-8.6-3-13-.3-1-.1-2-.1-3.4z"/>
  <path fill="#FFF" d="M380.5 121.2c0-1.3 0-2.6.2-3.8.2-1.8.6-3.6 1-5.4l.8.2-2 9z"/>
  <path d="M274.9 161.3c-1-.1-2.3.1-2.9-.4-3.6-3-7.4-6-10.5-9.7-4.3-5.1-8.7-10.3-11.7-16.5a70.3 70.3 0 0 1-4.6-46.4A48 48 0 0 1 255.5 67a68.4 68.4 0 0 1 40.3-25c7.1-1.1 14.3-.7 21.4.4a51.3 51.3 0 0 1 39.1 24c.6.8 1.2 1.7 1.4 2.9l-5.5-7.2c-7-8.8-16-14.5-26.8-17a75.2 75.2 0 0 0-30.7-1.7c-5 .9-9.8 2.7-14.2 5-5.6 3-10.9 6.6-15.9 10.5a56 56 0 0 0-14.8 19.2A73 73 0 0 0 247 125c2 7.8 6 14.7 11.2 21 2.6 3.1 5.2 6.4 8.2 9.2 2.5 2.4 5.5 4.2 8.3 6.2z"/>
  <path d="M346.2 63.5c-1.3-1.1-2.8-2-4-3.3-8-8-18-11.4-28.8-13a53.1 53.1 0 0 0-35 6.8 56 56 0 0 0-28 34.3 60.7 60.7 0 0 0 9.5 52.2c4.3 6 9.4 11.2 14.7 16.4-1.6-1.3-3.3-2.3-4.7-3.7a68 68 0 0 1-20.4-33.2 58.6 58.6 0 0 1 79.8-69.4 61 61 0 0 1 16.5 11.6c.3.3.4.7.6 1l-.2.3z"/>
  <path d="M346.4 63.3a53.2 53.2 0 0 1 15 26.6c2 8.5 2 17.1.5 25.5-2 11-7 20.8-15 28.7l-1.5 1-.2-.3c4.5-4.1 8.1-9 10.6-14.4 2.8-6 5.5-12.1 5.8-19 .3-6.5.8-13-.6-19.3a51.6 51.6 0 0 0-9-21.1c-2-2.5-4-5-5.8-7.5l.2-.3zM330.1 138.2l-1.8-2-.5 1.8h-.7c0-.7-.3-1.6 0-2 .5-.6 1.8-1.2 2.1-1 .8.7 1.2 1.7 1.7 2.6l-.8.6z"/>
  <path d="M337.7 151c2.5-2 5-4 7.5-6.2l.2.2-6.6 6.1c-.2.2-.7 0-1 0-.1 0 0 0 0 0zM335 173.4a28.9 28.9 0 0 1-15.5 24.7 26 26 0 0 1-24.3-.3 28.1 28.1 0 0 1-15.4-31.9 29 29 0 0 1 10.4-17.7c3.4-2.7 7.5-4 11.8-4.7 7-1 13.5.4 19.2 4A24.9 24.9 0 0 1 333 163c.8 3.4 1.3 7 2 10.4zm-30 26c6.4.2 10.9-1 15.2-3.7a30.1 30.1 0 0 0 13.2-27.1 27.5 27.5 0 0 0-23.3-24.2 24.3 24.3 0 0 0-26.9 13.6 28 28 0 0 0 21.9 41.4z"/>
  <path d="m332.2 190.5-3.4 3.1a27.7 27.7 0 0 1-12.7 8.2c-11.7 3-21.9.3-30.8-7.7-7.3-6.5-9.6-14.9-9.2-24.2.1-1.7.7-3.3 1.5-4.9-.2 1.6-.6 3.2-.7 4.8-.9 14 6.3 23.8 18.1 29.6 8.3 4 16.8 3.8 24.7 0 7.8-3.8 13.9-10.1 15.3-19 1.6-10.2.9-20.3-6-28.7-5.6-7.1-13.5-10-22.4-10.5-5-.2-9.6 1-14 3l-.3-.6c1.5-.7 2.9-1.6 4.5-2 10.2-2.6 20-1 28.6 5a25.7 25.7 0 0 1 10.5 18.2c.6 4.9.8 10 .4 14.8-.3 3-2.2 6-3.4 8.8l-.8 2.2zM277.6 162.9c1.8-5.4 3.9-11 8-14.4l-8 14.4zM289.8 231.4c12.1 0 21.7-.6 31.2.2a321.6 321.6 0 0 1 56.6 10.8 278 278 0 0 1 41.6 18c6.9 3.7 13.5 8 20 12.3 6.7 4.6 13.5 9.2 19.6 14.5a392 392 0 0 1 23.9 22.7 174 174 0 0 1 20.8 27c3.2 5 7 9.6 10 14.7 3.5 6.2 6.6 12.8 9.8 19.3 1.8 3.6 3.5 7.2 4.9 11 1.8 4.6 3.4 9.2 5 14 2.3 7.2 4.9 14.5 6.9 22 1.3 4.7 1.7 9.7 2.5 14.5.5 2.4 1.3 4.7 1.7 7.1.7 4.9 1.4 9.7 1.9 14.6a258.1 258.1 0 0 1-.8 59.3 250.5 250.5 0 0 1-10.7 46 429 429 0 0 1-9.5 25.7c-1.6 4-4 7.6-6 11.2a719 719 0 0 1-11.2 18.5c-2.3 3.6-4.7 7.1-7.3 10.5-5.5 7.3-10.8 14.7-16.7 21.6-5.5 6.2-11.7 11.8-17.7 17.5-4 3.9-7.9 7.8-12.2 11.3a175 175 0 0 1-18.8 13.4 612.5 612.5 0 0 1-34 18.6c-9.8 5-20.2 8.8-30.9 11.3a362 362 0 0 1-47.3 8.2 188.5 188.5 0 0 1-53.9-2.8c-11.2-2-22.2-4.9-33.2-7.7-6.9-1.8-13.8-3.5-20.2-6.4-9.7-4.3-19-9.4-28.4-14.5-5.6-3-11.2-6.3-16.5-9.9-5.3-3.5-10.4-7.5-15.4-11.5-3.8-2.8-7.6-5.6-11-8.8-7-6.6-14.2-13.1-20.5-20.4-6.3-7.3-12-15.2-17.3-23.3-6.2-9.4-12-19-17.2-29-4.3-8.2-7.6-17-11.4-25.3-4-8.8-6.2-18-8.1-27.4a280.5 280.5 0 0 1-6.5-68.7c.2-13.3.8-26.8 4-39.9 2-9 5-17.7 7.5-26.5 1-3.3 1.7-6.8 3-10a251 251 0 0 1 7-16.8c3.7-7.9 7.3-15.8 11.6-23.3 4.4-7.9 9.6-15.3 14.4-23 6.3-10 14.3-18.7 22.8-26.9 5.6-5.4 10.9-11 16.8-16 5.4-4.6 11.4-8.7 17.2-12.8a332.9 332.9 0 0 1 28.4-17.2c6.6-3.4 13.2-7 20.2-9.7a288 288 0 0 1 58.3-16.2c5.8-1 11.7-1.4 15-1.8zm41.7 492.2v.3l15.3-2.7c5.4-1 10.8-2 16-3.5 8.2-2.2 16.3-4.5 24.3-7.2 5.4-1.8 10.5-4.3 15.6-6.8a340 340 0 0 0 21.6-11.8c6.7-4 13-8.5 19.5-13a193.1 193.1 0 0 0 36.6-32.3 620 620 0 0 0 14.4-17.2c2.4-3 4.4-6.1 6.5-9.2 4.6-6.7 9-13.5 12.6-20.8 2.4-4.8 5.3-9.3 7.6-14.1 2.3-4.7 4.3-9.6 6.2-14.4 1-2.7 1.7-5.6 2.6-8.4l6-18.8c3.8-12 5.1-24.6 6.7-37 .9-7.3 1.2-14.6 1.7-21.9.3-2.9.6-5.8.4-8.7l-3-30.2c-.4-4.1-1-8.2-2-12.3-1.9-8.7-3.7-17.5-6.2-26-2.2-7.8-5.2-15.3-8-22.8a121 121 0 0 0-6.1-14.1c-4.8-9-9.7-17.9-15-26.4-4.8-7.5-10-14.7-15.6-21.5-5.9-7.2-12.3-14-18.8-20.6-5-5-10.3-10-16-14.2-8.1-6.2-16.7-12-25.2-17.6-4.6-3-9.2-6.1-14.2-8.5-7.8-3.8-15.9-7-23.9-10.4-4-1.7-7.9-3.6-12-4.8-8.8-2.4-17.6-4.6-26.6-6.5a186.5 186.5 0 0 0-46-4.4c-8.1 0-16.3.3-24.5.9-9.7.7-19.2 2.6-28.7 4.8a203.6 203.6 0 0 0-49.6 18.6c-8.8 4.6-17.5 9-25.9 14.2-6.6 4.1-12.7 9-19 13.7-3.7 2.8-7.5 5.5-11 8.6-3 2.7-5.6 6-8.7 8.7a156 156 0 0 0-21.4 24 251.4 251.4 0 0 0-16.6 25.7c-3.5 6-6.5 12-9.7 18-3.7 7-6.4 14.5-9 22l-7.7 24.1a155.5 155.5 0 0 0-7 33.1c-.8 8.5-1.8 17-1.7 25.5.1 10.6 1.2 21 2.1 31.6a271.7 271.7 0 0 0 8 41c2.1 7.3 4.8 14.5 7.7 21.6 2.3 5.7 5.2 11.2 8 16.7 2.7 5.5 5.2 11 8.2 16.3 3.3 5.7 7 11.2 10.7 16.7 5.6 8.2 11.5 16.1 18.5 23.2 9.6 9.8 19 19.7 29.8 28.1 4.3 3.4 8.6 7 13.2 10 6.3 4.1 12.7 8 19.3 11.6a196 196 0 0 0 15.3 7.5c7.9 3.5 15.7 7 23.7 10.2 4.5 1.8 9 3.6 13.8 4.7 7 1.8 14.2 2.9 21.3 4.4 10 2 20.1 3.3 30.4 3.3h24c3.9-.1 7.7-.7 11.5-1z"/>
  <path d="M309.3 198c-15.8-.4-29.5-14.8-25.7-30.4 1-3.6 2-7.2 4-10.4 4.2-7.1 10.9-10.9 19.2-10.7 6.8.2 12.7 3.3 17.3 8.3 2 2.1 4 4.5 5 7 1.6 3.8 2.1 7.9 2.2 12.1.2 7.7-3.6 13.4-8.5 18.3a19.6 19.6 0 0 1-13.5 5.8zm-25.5-26.2a23 23 0 0 0 10.3 19.8 21 21 0 0 0 7.3 2.9c7 1.7 13.6 1.4 19.3-4 3.5-3.3 6-7.1 7.2-11.6 1-3.7 1.8-7.6 1.4-11.3-1-8.5-6.2-14-14-18-9.6-4.9-18.3-1.4-24.3 4.3-5.1 4.8-6.6 11.2-7.2 18zM498.1 618c-1.6 2.5-3.1 5.2-5 7.7a255.3 255.3 0 0 1-28.2 31.5c-5 4.6-10.3 8.8-15.4 13.1-.4.4-1 .5-1.6.7h.1c3.1-2.6 6.3-5.2 9.4-8 4.3-3.7 5.3-3.5.9-8.3l-.6-.3c-1.8 1.2-3.5 2.5-5.3 3.9l6.4-6.9c7.6-8.2 15.3-16.2 22.8-24.5 7.8-8.8 14.2-18.7 20-29 6.8-12 12.8-24.5 17-37.6 3.6-11 6.8-22 9.4-33.3a230.6 230.6 0 0 0 4.3-68.5c-.3-5.3-1.6-10.5-2.4-15.7-.6-3.6-.7-7.3-1.6-10.9-1.5-6.4-3.2-12.9-5.1-19.3-2.7-8.8-5.2-17.8-8.8-26.3-4-9.1-9-17.7-13.6-26.5-2-4-4.2-7.7-6.3-11.6 1.1 1.4 2.4 2.7 3.2 4.2l15.2 29c.3.6 1.1 1.3 1.7 1.3 4.4-.1 5.5-1.9 3.7-5.9l-.3-.7c-2.1-4-4.1-8-6.3-11.8-4.3-7.4-8.5-14.9-13-22.1-2.2-3.4-2.5-3.3-5.7-.8l-1.5 1 3.1 5.9-5.4-8 1.7 1 4.3-3.4-3.4-5.6c.4.3 1 .4 1.2.8 5.4 8.3 11 16.5 16.2 24.9 3.2 5.2 6.4 10.6 8.7 16.3 4 9.7 7.7 19.7 11 29.7 2.7 7.8 4.9 15.9 6.7 24a343.3 343.3 0 0 1 5.5 40.2c.4 4.8.3 9.7.1 14.6-.1 5.4-.3 10.8-1 16.1-1 9.4-2 18.8-4 28a371 371 0 0 1-7.7 32.3c-1.9 6.5-5.1 12.7-7.8 19-2 4.6-4.1 9.1-6.3 13.7-.5 1.2-1.4 2.2-2.2 3.2l1.1-3c1.6-3 3.3-6.1 4.7-9.3 1.7-3.8 1.4-4.2-2.4-5.8l-1.4-.5-23.2 41c3.7 2.7 4.1 2.8 7.1.5zm41.5-137 .3-2c.3-2.1-.5-3.6-2.7-4-2.4-.5-3 1.4-3.6 3-.8 2 1 5.3 2.9 5.7 2.1.4 2.9-1 3.1-2.8zm-19 96.3c2.5-6.3 5.2-12.6 7.6-18.9 1.3-3.5 1-4-2.6-4.8-.4 0-.8-.2-1.1-.4-1.4-.5-2.2-.3-2.8 1.3-2.2 6.2-4.6 12.4-7 18.5-.5 1.3-.3 2.2 1 2.7l4.8 1.6zm-61.9 76.1c.9.8 1.8 2 3 2.8.7.4 2.2.5 2.7 0l13.3-13.3c1.6-1.6 1-2.8-.4-4-1.5-1.3-2.8-2-4.5-.2l-14 14.7zm76-124.1c.2-.5.6-.8.6-1.2l3.5-20.3c.2-1.8-.3-3.1-2.6-2.7-.6 0-1.4-.3-1.9 0-.7.4-1.8 1.2-1.9 2-1.1 6.2-2 12.5-3.2 18.7-.3 1.7.2 2.4 1.8 2.6l3.7.9zm0-102.9-5.2-19.6c-.6-2-2.2-1.5-3.4-.8-1.4.7-3.6.8-2.7 3.5 1 3.2 1.8 6.6 2.7 9.9.8 3 1.4 6 2.4 8.9.2.5 1.6 1.1 2.3 1 1.6-.2 3.5-.5 4-2.9zm-5.4 126.7c.3-.8.6-1.6.7-2.3l4-15.9c1-3.7.5-4.5-3.4-4.9-1.5-.1-2.1.4-2.5 1.8a856 856 0 0 1-5 17.3c-.5 1.6.1 2.5 1.6 3l4.6 1zm-38.9 65-1.5 1c-4 5.2-8.2 10.3-12.2 15.6-.3.4-.4 1.4-.1 1.9 2 3 4 3.1 6.3.4l10-12.6c.7-.9 1.6-2.5 1.3-3-1-1.3-2.5-2.2-3.8-3.2zm24.4-234 .8 3 6 16.3c.6 1.7 1 2.9 3.2 2 3.3-1.3 3.7-1.5 2.8-4.1-1.7-4.9-3.7-9.7-5.4-14.7-1.6-4.5-1.5-4.5-5.9-3l-1.5.5zm24.1 68.7-2.9-19.1c-.6-4.2-.5-4.3-4.5-2.8-.7.3-1.8 1.4-1.7 2 .8 7 2 14.1 3 21.3l6.1-1.4zm1.8 23.5-1-17.2c-.4-4.3-.6-4.3-5-3.7-1.4.1-1.9.7-1.7 2.2.3 2.3.4 4.7.4 7V475c4.4-1.9 4.6-1.8 7.3 1.4zM534 484l-.1.4c-.3 5-.5 9.9-.9 14.8-.4 4.3-.5 4.2 3.7 4.4 1.8 0 2.6-.6 2.6-2.3l.3-2.4v-14.5l-5.6-.4zM177.9 681.4c-1.7-1-3.4-1.8-5-3-4.8-3.5-9.8-6.9-14.4-10.7-5.7-4.8-11-10-16.6-15-.3-.3-.4-.7-.6-1l8.1 6.8 2-2c2-1.9 2-2.8 0-4.6a1635.4 1635.4 0 0 1-11.7-12.1c-1.5-1.5-2.8-1.4-4 .2-1 1.3-3 2.5-.9 4.6 1.5 1.4 2.8 3 4.1 4.5-1.5-1.3-3.3-2.6-4.6-4l-5.7-7c.5.4 1.2.8 1.6 1.3 1.1 1.6 2.3 2 4 .6 2-1.9 2.6-3.3 1.2-5-3.7-4.7-7.4-9.3-11.3-13.9-.4-.4-1.7-.7-2.2-.4-1.4.9-2.6 2.1-4 3.4l3.8 4.8 7 9.3-11-13.2-3.2-4.8 2.6 2 2.3-1.4c2.6-1.7 2.6-2 1-4.8-5.4-9-10.8-17.9-16-26.9-2.2-3.6-4.1-7.3-6.3-11.2l-5 3.3.9 2.1a245 245 0 0 0 17.6 31.5l1.5 3c-3.6-5.5-7.3-10.9-10.6-16.6a245 245 0 0 1-18.1-38.8c-1-2.7-1.7-5.6-2.6-8.4l1.7 2c1.8-1 3.6-2 5.4-3.2l-.6-2.3-4.5-16.4c-.2-.8-1-2-1.6-2a4 4 0 0 0-4.5 4.8c.3 1.7.7 3.5 1.2 5.2l3 12c-1.4-4.5-3.2-8.9-4.2-13.4-2-10-4-19.8-5.7-29.8-1.6-9.6-2.6-19.2-2.4-29 .2-6.6-.2-13.2.6-19.8 1.3-10.4 3.1-20.8 5.1-31.1 1.4-7 3.1-14 5.2-20.8 3.2-10 6.3-20.2 11.3-29.6l1-1.4-1.5 4.7c.9.3 1.7.4 2.4.9 2.3 1.4 3.4.6 4.5-1.7 1.4-3.2 3.3-6.2 5-9.3l-1.8 4.5c-1.5 3-3.4 5.6-4.5 8.7-3.6 10-7 20.1-10.2 30.3-1.7 5.4-3.1 11-4.1 16.6a301 301 0 0 0-3.3 23.7c-.8 8.5-1.7 17.1-1.5 25.7a251 251 0 0 0 14.8 78c3.1 8.5 6.3 17 11.1 25 5.3 8.5 9.7 17.7 15.3 26 9.4 14 20.4 26.8 32.7 38.3l8.4 8.1c-.5-.2-1-.3-1.4-.6-1.1-.8-2-2.2-3.1-2.3-1-.1-2 1.2-3 1.9-1.9 1.3-2 2-.2 3.6 2.2 2 4.3 4 6.6 5.8 3.2 2.5 6.5 4.8 9.9 7.3l3.7-5-2.7-2.3-9.9-8.5 5.3 3.9 17.8 13.1-7.2-3.9c-1.1-.7-2.1-2-3.4-.1-1.8 2.6-1.9 4.3-.1 5.6l5.5 4.2zm-105.2-204L77 479l1.1-19.5c.1-1.4-.3-2-1.8-2.2-4.3-.4-5.5.4-5.6 4.8v23.3c2 2 4 1.5 5.6 0 .8-.8 1.1-3 .6-4-.8-1.5-2.4-2.4-4.2-4.1zm5.8-21 .5-3c.8-5.1 1.5-10.3 2.4-15.4.6-3.8.3-4.3-3.4-4.8l-2.4-.3-1.2 6c-1 5-1.8 10.1-2.6 15.2-.1 1-.4 2.4 1.5 2.4h5.2zm-6 52.4c.6 4 1.1 7.7 1.8 11.4.6 3.2 1.1 6.4 1.9 9.6.2.8.9 2 1.5 2.2 2.7.6 5.1-2 4.6-4.9-1-5-2-10.2-2.7-15.4-.8-4.7-1-5-5.7-3.5l-1.5.6zm14.8-99c-1.2-.3-2.4-.5-3.4-1-1.5-.5-2.2-.4-2.7 1.3-.9 3.5-2.2 7-3 10.5-1 3.5-1.5 7.1-2.2 10.6l2.9.9c1.9.4 3.4.4 4-2.1 1.3-6 3-12 4.4-18v-2.2zM92 579.3l2.3-.8c3.2-1.5 3.2-1.5 2-5l-6-16.4c-.6-1.9-1.8-2-3.2-1.3-1.4.6-4 .5-3 3.3l5 13.5 2.9 6.7zm-9.6-172.6 2.7 1c3.2 1 3.2 1 4.3-2.1l5.7-15.8c.6-1.4.3-2.5-.9-3.2-1.1-.6-2.4-1-4.2-1.6l-7.6 21.7zM72 507.3c2-.4 3.4-.7 4.8-.8 1.5-.1 2-.8 1.8-2.2L77 486.7c-1.9 2.5-4 1.7-6.7.7l1.7 19.9zM159 292.2c2-1.5 3.7-3.2 5.7-4.6a276.7 276.7 0 0 1 72-37.4 183.3 183.3 0 0 1 55.1-10.5c9.3-.3 18.6-.9 27.8-.2 10.4.7 21 1.2 31.2 4 6.6 1.7 13.5 2.2 20 4.4 11 3.7 21.7 8.1 32.5 12.3.6.2 1 .8 1.5 1.2l-6.4-2.5-.5 1.9c-1.2 4.4-1.1 4.4 3.1 6.4l12 6 8.9 5.5-2.3-.8c-7.4-4-14.6-8.2-22.2-11.7-6.9-3-14-5.5-21.1-8-3.2-1.2-6.6-2-10-2.7-8.3-2-16.6-4.5-25-5.8-8.4-1.3-16.9-1.6-25.4-2.1a130 130 0 0 0-31.2 1c-8.9 1.6-17.8 3-26.6 4.7-3.2.6-6.3 1.4-9.5 2.1 6.4-3 6.4-3 3.7-9.3l-22 6.7 2.8 6.7c4.9-1.4 9.4-2.8 14-4-.9.8-2 1.3-3 1.6a223 223 0 0 0-40.4 15.6c-1.6.8-3.3 1.4-5 2l3-1.9 8.2-4.1c-.7-1.5-1.2-2.7-1.9-3.8-.8-1.2-1.8-1.8-3.4-.8l-29.1 17c-2.8 1.7-5.4 3.8-8 5.6.9 1.4 1.6 2.7 2.6 3.8.4.4 1.6.7 2.1.4 1.5-.7 2.9-1.7 4.3-2.7 4.9-3.2 9.6-6.5 14.6-9.6 2.4-1.6 5.1-2.6 7.7-4-2.3 1.5-4.6 3.2-7 4.4-1.4.7-2 1.6-1.8 3-1-1.1-1.8-.5-2.8 0-9.5 6-18.7 12.4-27.4 19.5l9.8-9.2-1.7-2.3c-1.3-1.4-2.6-2-4.4-.4-1.2 1.2-2.9 1.9-4.3 2.8l-.1-.2zM322.4 247v.2h3c1.7.2 2.6-.5 2.4-2.3 0-.8.2-1.6 0-2.2-.4-.8-1.1-1.8-1.7-1.9-5.8-.4-11.6-1.1-17.3-1-9.2.2-18.4 1-27.6 1.5-2.5.1-3 .7-2.5 3.2l.3 1.5c0 2 1.1 2.1 3 1.9 5.5-.7 11.1-1.5 16.7-1.6 7.9 0 15.8.4 23.7.7zm-48-5.2c-5.1 1-10.3 1.8-15.3 3s-4.8 1.4-3.2 6.1c.4 1.4 1.2 1.8 2.5 1.5l16.5-3.3c3-.6 3.1-.9 2.8-5-.2-2.3-1.7-2.1-3.4-2.3zm-65.6 20.5 1.7 4.4c.4 1.1.9 1.5 2.3.9 5.1-2.3 10.3-4.3 15.5-6.3 3.6-1.4 4-2.5 2-6-.7-1-1.2-1.6-2.7-1l-11.4 4.6c-2.5 1-4.9 2.2-7.4 3.4zm166.5-12.4-7.7-2-12.7-3c-1.8-.5-3.2-.4-3.4 2-.2 1.9-.8 3.6 2 4.2 3.8.7 7.5 1.8 11.3 2.7l9.1 2c.5-2.1 1-3.8 1.4-6zm21.9 9c-.6-.5-1.2-1.2-2-1.5-5-2-10.2-3.8-15.2-5.7-1.5-.5-3-1.6-3.9.6-1.3 3-1 4.4 1.4 5.3 5.1 2 10.3 3.7 15.3 5.8 2.3 1 3 0 3.7-1.9l.7-2.7zM350.6 244l-21.6-3-.4 6.2c5.8.8 11.2 1.5 16.6 2.4 5.6.8 5.9.6 5.4-5.6zM260.1 716.4c-8.8-1.2-17.2-3.5-25.4-6.7-6.5-2.5-13.2-4.7-19.5-7.7-8.5-4-16.8-8.5-25-12.9-1.3-.7-2.5-1.6-3.6-2.4l4.3 2 20.3 11.2 1.8-4c.9-1.5.5-2.1-1-3-8.3-4.6-16.6-9.3-24.8-14.1-1.2-.7-2.2-1.8-3.2-2.8l2.7 1.6c8 4.7 16 9.6 24.3 13.9 5.9 3 12.2 5.1 18.4 7.5a187 187 0 0 0 11 3.9l11.9 3.4c-1.1 0-2.3 0-3.4-.3l-9-2.3c-.8-.2-2.3 0-2.7.5-2 2.4-1 5.4 2 6.2L256 715c2 .6 2.5-.4 2.7-2 .1-.5-.1-1.1 0-1.6 1-2.2-.3-2.9-2.1-3.4l-4.3-1.6 1.7.1c11.6 2 23.2 4 35 5.7 5.2.8 10.6.7 16 .9h6.3v.9H301l-14.5-1c-2-.2-3 .2-2.3 2.5v1.2c.1 2 1 3.2 3.2 3.1l4.4.2 34.5-.1c4.5-.1 5-1.1 4-5.5-.2-.6-1.5-1.4-2.3-1.4-4.6.1-9.3.5-13.9.7l-1.2-.3c3.8-.6 7.7-.5 11.4-1 7.4-1 14.7-2.5 22-3.2 7.5-.7 14.5-3 21.6-5 9.8-2.9 19.5-6 28.6-10.9 7-3.7 14.3-7.2 21.4-10.8l7.7-4.1-1.5 1.2-20 10.9c-1.5.8-2.7 1.7-4 2.6.7 1.4 1.6 2.4 1.7 3.4.1 2.4 1.6 2 2.8 1.4 4.4-2.2 8.6-4.4 12.9-6.8l11.8-6.7c-1.6 1.2-3 2.6-4.6 3.5-9.8 5.2-19.5 10.5-29.4 15.4a94.1 94.1 0 0 1-14.2 5.2c-8.9 2.8-17.8 5.5-27 7.7a160.6 160.6 0 0 1-32 4.5c-8 .3-15.8.8-23.6.4-9.6-.5-19.1-1.7-28.7-2.7l-7.7-1.2c-.7-.1-1.4-.5-2.2-.8 6.7 1 13.4 2 20 2.7 1 .1 2.4-.3 3-1 1.2-1.4-.6-5.6-2.5-6l-20.6-3c.7 2.6-1.8 4.9.2 7.4zm74 2.6 17.2-3.2c4.6-.9 4.6-.9 3.4-5.2-.3-1.2-.9-2-2.4-1.6l-5.5 1-13 2.2c-1.5.3-2.5 1.2-2 2.8.4 1.3-.4 3.5 2.2 4zm24.4-4.4c6-1.7 11.5-3.2 17-4.9 3.6-1.1 3.5-1.3 2.5-4.8-.8-2.7-1.2-2.8-4-2-4.7 1.6-9.5 3-14.4 4.4-4.5 1.3-4.6 1.2-2.8 5.5.3.8 1.2 1.3 1.7 1.8zm-124.6-5.8 1.5-3.6c.8-1.8.4-3-1.6-3.7-5.7-2-11.4-4.4-17-6.5-.5-.2-1.5.2-1.8.6-.6 1-1 2.2-1.5 3.3-.4 1.1-.2 1.7 1.1 2.2 3.6 1.3 7 2.9 10.6 4.3l8.8 3.4zm167-9.8c0-3.9-1.6-5.6-4-4.7l-16.7 6.7c-1.4.5-2 1.4-1 2.8.4.7.5 1.7 1 2.2.8.6 2.1 1.4 2.8 1.1 5.6-2.2 11.1-4.5 16.7-6.9.6-.3 1-1 1.2-1.2zM485.6 323.8c-1.2-1-2.5-2-3.5-3.2-1.3-1.5-2.4-1.4-3.6 0L476 323l6.4 8.4-1.9-1.5-9-10c-5-5.2-10.3-10.3-15.5-15.5l-6.4-6.3 3.1 2.4c4.4 3.9 4.9 3.8 8.3-.7l.1-.4-3.3-3.8c.3.1.7.1.9.3l15.6 14.7c.3.3.5 1 .7 1.4l-12-11.3-4.8 4.6 17.2 15.5-.7.8c1.2-1 2.6-1.7 3.7-2.8.3-.3.4-1.4.2-2l-2.6-4.3 9.6 11.2z"/>
  <path d="m130.5 330.5 4-5.3-5.3-4.2-2 2.5c.5-1 1-2 1.7-2.7l6-6c-1 1.1-1.7 2.3-2.7 3.2-1.2 1.2-1.3 2.2 0 3.3l3.4 3 5.7-6.3c2.6-2.6 5.4-5.1 8-7.8.6-.7 1.1-2 .8-2.7-.6-1.4-1.8-2.6-2.9-3.8-.1-.1-1.2.4-1.6.8-3 2.7-5.8 5.5-8.7 8.3l-.9.7c1.5-1.8 2.9-3.9 4.6-5.4l17.8-15.6c.2-.2.4-.2.7-.3l.1.2-11 10 2 2.3c2.2 2.2 2.6 2.2 4.9.2.8-.7 1.9-1.2 2.8-1.8l-2.6 2.6c-4.9 4.7-9.9 9.4-14.7 14.2-3.4 3.5-6.6 7.2-9.8 10.8l-.3-.2z"/>
  <path d="m123.8 327.5-5.2 7.5-3 4.8 5 3.3 10-12.6s0 .2.2.2l-.5.9-11.7 16.6c-1.4 2-3.1 4-4.7 6l6-9.5-5.4-3.8-1.6 2.8-10.2 16-.2-.2L123 328l.8-.5zM424.3 280.2l10.1 6.6 3.6 2.2 2.6-6.7 16.1 12.2c.4.3.7.8 1 1.3h.1c-.7-.4-1.5-.7-2-1.1l-5.8-4.9-7.5-5.7-2.1 2.6c-1.2 1.5-2 2.7.4 3.9 1 .5 1.5 1.8 2.3 2.7l-4.4-2.9c-4.7-3-9.3-6.2-14-9.3-.2-.2-.3-.6-.4-.9zM435.2 680.7l3.8-3.2c1-.8 2.2-1.5 4-2.7l-5.4-5.2c2-1.7 4-3.6 6.2-5.2l8.6-6.1c-.4.4-.6.9-1 1.2l-12 9.5c1.5 1.5 2.7 3.3 4.4 4.2.7.4 2.4-1.3 3.7-2l.5-.1c-4.3 3.1-8.6 6.3-12.8 9.6zM498 618c.5-1 .8-2 1.4-3 3-5 6-10 9.2-15 .8-1.3 1.9-2.5 2.8-3.7-.8 1.7-1.5 3.4-2.4 5l-9.8 15.6-1.2 1.1z"/>
  <path d="m92.7 379.2 9.8-19.7.2.2-5.8 11.7-4 7.9-.2-.1zM439.7 281.6c-.9-.3-1.8-.6-2.6-1.1l-12.4-8.2c-.6-.4-1.1-1-1.7-1.6 3.8 2.3 7.6 4.5 11.3 6.9 1.9 1.2 3.6 2.7 5.4 4zM419.3 268.2l-3.2-1-11.4-5.9 12 5.3c.9.4 1.7 1 2.6 1.6zM420.9 271c1 1.3 2 2 1.9 2.6-.1.7-1.1 1.3-1.8 2-.6-.8-1.5-1.5-2-2.3 0-.3.9-1 1.9-2.3zM105 601.9l1-2a74 74 0 0 0-.4-.3l-1.6 1.1c0-.6-.2-1.5 0-1.5.9-.4 2-.9 2.8-.7.4 0 1.1 1.4 1 2-.3 1.2-1 2.4-2.9 1.4zM190.3 687.5l-.5-3.2 4.3.7-.8 2.7-2-2.3-.5.4.2 1.6-.7.1zM506.8 595c0 .9.2 1.6.3 2.4l1-1c1.2 2 1.2 2-1.3 2.7-2.6-2.7-2.6-2.9 0-4.1zM426.8 677.7c1-1 2-2.3 3.2-3.1 2.5-1.8 5.1-3.4 7.7-5l-5.1 4-5.8 4.1zM421 683.6l2.7-1.5.3.5-1.7 1.2 1.2 1.7 1.3-2.2.7.3c-.3.7-.4 1.7-1 2-1.6 1-2.7 0-3.4-2zM489.3 340.5l-6.7-8.4 6.7 8.4zM314.7 153c4.7 1.4 8 4.5 10 8.6a23 23 0 0 1 2.6 15.2c-1 5-3.8 8.8-7 12.5-5.9 6.6-19.3 5.8-24.6.3l-6.5-7.5c-.2-.3-.2-.7 0-1.2l2 2.9a18 18 0 0 0 15.8 8c3 0 6-1.6 8.9-2.9 5.1-2.3 6.4-7.6 8.4-12.1 2.4-5.1 1.4-10.4-.8-15.1-1.1-2.5-3.8-4.4-5.8-6.4-.9-1-2-1.6-3-2.3z"/>
  <path d="M293.5 179.8c2.3 3.6 4.9 6.8 9.3 7.8 5.2 1.3 9.7.2 13.5-3.5 6.7-6.5 7.7-15 2.9-23.1a12 12 0 0 0-8.4-5.8c-1.5-.3-2.9-.7-4.3-1.3 3-.3 5.9.4 8.4 1.8 3.5 1.9 6.5 4.4 7.7 8.3 1.7 5.5 2 11.2-1.3 16.4a27.9 27.9 0 0 1-5 6 14.2 14.2 0 0 1-19.6-1.4c-1.4-1.5-2.6-3.1-3.8-4.7l.6-.5z"/>
  <path d="m298.1 180 2.8 2.2c5.2 3.8 13.7 1.6 15.9-4.5 1.1-3 2.7-6 1.6-9.7-1.4-4.4-3.5-8-8.3-9.3-.8-.3-1.6-.7-2.3-1.3 4.2.9 8 2.4 10.2 6.5 4.4 8 .3 18.3-8.5 21-4 1.2-8.7-.6-11.4-4.9z"/>
  <path d="M310.2 161.7c3.5 1 5.2 4 5.8 7 .8 4-.6 8-4 10.8-2.1 1.9-4.6 2.6-7 1.6 1.8-.6 4.3-.8 5.9-2 1.7-1.3 3-3.5 3.7-5.5 1.7-4.2 0-8.2-4.4-11.9z"/>
  <path d="M308 167.6c.9.7 2 1.3 2.6 2.2 1.6 2 .5 3.8-1.2 6 .5-3.1 1.7-6-2-7.4.3-.2.4-.5.6-.8zM190 282c1.8 2.1 3.7 4 5.2 6.4 4.6 7.1 9 14.4 13.5 21.6.8 1.3 1.7 2.6 2.9 3.3.2.8.3 1.9.8 2.5 2.9 3.1 6.2 5.9 8.6 9.3 2.1 2.9 3.4 6.4 5 9.7 4.5 9 8.9 18 13.5 26.9 2.3 4.6 5 9 7.6 13.7 4.3-2 8.4-4 12.6-5.6 3.8-1.6 7.7-3 11.6-4.3a108.3 108.3 0 0 1 58.6-3.3c8.6 1.5 16.5 5 24.4 8.5a113 113 0 0 1 35 25.8c4.8 5 9.1 10.6 13.7 16 .3.3 1.2.7 1.6.6.5-.2.8-1 1-1.4.2-.2 0-.5 0-.8.3-2.8-.4-6 2-8.3 3.5-3.3 7-6.3 12.1-6.6 7.9-.6 15.2-2.6 22-6.8 6.4-4 13-7.7 19.5-11.5l4.6-2.3-.7 1.7c0 .2.2.3.3.5l28.4-18.3c.6 1 1.2 2.4 1.8 3.7-.2 0-.5-.3-.6-.2-5.1 5.4-12 8.4-18 12.5l-9.7 6.3c-1-1.2-2-3.3-3.4-3.7-1-.3-2.8 1.3-4.2 2.2-5 3.3-10.2 6.5-15 10a101 101 0 0 0-12.3 10.8c-2.6 2.7-4.4 6.1-6.3 9.4-2.7 4.6-6.2 7.8-11.8 7.9-1.3 0-2.8-.4-4.1-1-1.5-.7-2.7-1.9-4-2.8l-.9.4c.3 1.2.3 2.5.8 3.6 2.1 4.3 4.6 8.4 6.5 12.8a141.4 141.4 0 0 1 9.3 62c-1 11-3.9 21.8-8.7 31.9-2.9 6-5.6 12-8.7 17.8a96.8 96.8 0 0 1-15.7 20.8 121.6 121.6 0 0 1-48.6 30.5 99 99 0 0 1-33.1 5.3c-6.5-.2-13.1-.2-19.4-1.3-7.7-1.3-15.3-3.5-22.7-6a81 81 0 0 1-22-10.7c-10-7.2-19.8-14.8-27.3-24.6a102.2 102.2 0 0 1-17.2-28.3c-2.1-6.2-4.8-12.2-6.4-18.5a69.8 69.8 0 0 1-3.2-19.5c.2-7.5-.8-15-.2-22.4.4-6.4 2-12.8 3.5-19.1 1.1-4.7 2.4-9.5 4.3-13.9 2.8-6.5 6.3-12.8 9.6-19 3.5-7 8.8-12.8 14-18.5 6.5-7 13.3-13.6 21.5-18.7 3.5-2.1 3.3-2.2 1.2-5.6-4.2-6.6-8.1-13.4-12.4-20-4.6-6.8-9.6-13.3-14.2-20a22.6 22.6 0 0 1-2.5-5.5c-1.3-3.7-2.3-7.5-3.6-11.2-.8-2.3-2.4-.3-3.9-.4l1.2-2.2L190 299c-1.5-1.3-3-2.5-4.4-3.9-2.5-2.6-2.5-2.7-5.3-.4.6-1.5 5.1-5 6.4-4.9.4 0 .7.4 1 .6l3.4 3.2c1 1 2.1 2 3.8 3.3-.8-3-1.3-5.5-2.1-8-.8-2.3-1.9-4.5-2.8-6.8zm217.2 126.2-.8 2.3c5.7-4.2 10.7-8.4 16.8-11-5.6 3.7-11.4 7.3-15.6 12.7l13.8-9.1.4.6-13.8 9.8.6.8 17.7-11.2.2.3-5.1 4.4.5.7c6.3-3.8 9-11.5 16.5-14.5-3.4-2.2-3 2.3-5 1.7l.6-1-10.8 3.3-5.8 2 3.9-2.3a24 24 0 0 0-13.7 8c-.5.6-.3 1.7-.4 2.5zm-217.6 71.1c0 .7-.2 1.5-.1 2.2.4 12 1.6 24 6 35.5 3 7.9 6 15.9 10 23.3a89.2 89.2 0 0 0 18.3 24c4.3 3.8 8.5 7.7 13 11 4.7 3.5 9.7 6.4 14.6 9.6 5.9 3.9 12.5 6.1 19.2 8 6 1.7 12 3 18 4.1 4.7.8 9.6 1 14.3 1.3 2.8.1 5.7-.1 8.5-.3 4.7-.4 9.6-.4 14.2-1.3 12.3-2.4 24-6.6 35-12.6 7.8-4.3 14.9-9.5 21.4-15.4 6.4-5.8 12.7-12 17.3-19.4 3.3-5.5 7-10.7 9.6-16.5 3.2-6.7 5.6-13.9 8-21 3.9-10.9 4-22.3 4-33.8.1-8.5-.9-16.9-2.9-25.2-1.2-5.2-2.5-10.5-4.2-15.7-1.2-3.7-3-7.2-4.7-10.7-1.7-3.6-2.9-7.6-6.4-10-.4-.3-1-.9-.9-1.2.7-3-1.7-4.7-3.2-6.7-2.9-3.6-5.9-7.1-9.1-10.4-4.5-4.5-9-9.2-14-13-5.4-4.2-11.3-8-17.4-11.1-7.3-3.6-15-6.8-22.8-9-10.2-3-20.7-4.1-31.3-3.4-7.6.5-15.3 1.3-22.8 2.7-8 1.5-15.8 3.7-23 7.6l-7.3 3.6c-2.2 1-3.5 4-6.6 3.3-.1 0-.3 0-.5.2-5.3 4.2-10.7 8.3-16 12.8-2.5 2.2-4.7 5-6.8 7.5-4.2 5-8.8 9.6-12.1 15a115 115 0 0 0-14.4 31.7c-2.8 11-4.3 22-5 33.3zm12.5-176-7-11.8c.3 5.3 1.8 9.4 7 11.7zm13 24.6c-.5 3.6 2.7 4.7 4.2 6.9l4.9 6.5c-2.4-4.8-4.8-9.7-9.2-13.4zM467.3 575l6.6-13.5.8.4-1.2 3.4c1.4.7 3 1.3 4.4 2.1l21.4 12c2.8 1.6 3 1.5 5.5-2l.6.2-3.7 7.4c-1.3 2.6-2.7 5.1-4.2 7.7l-4.3 7.6-4.1 7.3-.9-.5 1.6-2.6-11.8-7-13.4-8c-3.5-2-3.6-2-6.6 1.2 0-1-.2-1.7 0-2l8.2-11.5 16.9 9.5c3.7 2 7.3 4.4 11 6.4.6.3 1.6-.1 2.4-.2-.3-.7-.4-1.6-.9-1.9l-10.6-6-15.2-8.7c-.8-.5-1.6-.8-2.5-1.2zm33.8 10c-2.6-1.2-5-2.1-7.1-3.3l-19.5-11c-1.8-1-3.3-.8-4.2.8l28.9 15.8 1.9-2.3zm-37.1-3.6-.7 1c.8.7 1.4 1.5 2.3 2l10.1 6c5 2.9 9.5 6.3 14.9 8.5 2 .9 2 1 2.8-1-2.4-1.2-4.7-2.3-7-3.6l-18-11c-1.4-.9-3-1.3-4.4-2zM297.5 276.5l-3 10.6 2.6.5v.4l-7.5 1v-.7c3.7-.5 4.4-3.4 5.2-6.3.7-2.2 1.7-4.2 2.5-6.4.2-.5.4-1.3.3-1.8l-5-18.6c0-.2-.2-.3-.4-.4l-3.6.1-.1-.8 11-.8.1.5c-.6 0-1.1.2-2.1.4l8.2 31.8h1c.3-.6.8-1.2.8-1.8 0-3.4-.5-6.7-.5-10l.2-13.6c0-2-.4-4.2-.6-6.3h-.7l-4.4 11.5-.7-.2 2-6c.3-1 1-2 1.1-3.2.1-.9-.4-1.9-.6-2.8a75 75 0 0 1 20.4 1.1l-4.5-.3v32.9l3.9.7-.1.9-9-.8.5-18.6v-12.2c0-2.7-.6-3.2-2.7-2.7v33.3h-13v-.6l2.6-.2-3-10.5h-.9zM105.3 578.5c2.4 2.7 2.3 2.7 5.5.6l15.3-9.5 8.3-5.3c.5-.4.6-1.6.4-2.3-.1-.7-.8-1.4-1.3-2l.7-.5 4.2 7.8-24 15.3c-1.3.8-2.6 1.5-3.7 2.4-.4.4-.4 1.3-.6 2 .7 0 1.6.3 2 0a364.4 364.4 0 0 0 23.8-15.7c1.1-.8 2-1.8 3.2-2.9l2.5 4.5-28.4 19.5c.7 1.9 1 2 2.3 1l16.6-11.2 8-5.3 2.9-1.7 3.9 5.8-.4.4c-.4-.3-.8-.4-1-.8-.7-1.4-1.6-1-2.6-.3l-24.3 16.3c-.9.6-1.5 1.4-2.3 2l.3 1c.8-.1 1.6 0 2.3-.3l13.8-6c.3-.2.6-.2 1 .1l-15.8 7.4 1 2.4-.7.4-13.5-24.7.6-.4zM493.3 487l-.4 3.1h-.8l.8-6.6c0-.3.6-.7.9-.7 7 0 14 0 21-.2 3.4 0 6.9 0 10.3-.3.6 0 1-1 1.7-1.7H493l-.7-16.2h.9l.3 1.5c0 3.2.3 3.4 3.4 3.3l23.6-1h1.7c1.2-.2 2.7 0 3.5-.7.5-.4 0-2 0-3.1 0-.4.4-.8.8-1.2.4 9 1.4 18 .6 27h-.7V487h-33zm32.7-14-19.6.7-10.5.3c-1.2.1-3 0-2.6 1.8h32.8l-.1-2.8zM216.8 648.5c-.2 0-.7.2-1 0-2.6-1.6-3.6.2-4.6 2.2l-8.7 17.4c-1.2 2.3-2.6 4.5-3.6 6.8-.3 1 .2 2.3.4 3.5-1-.6-2.7-1.4-4.1-2.4-2-1.3-.6-3 0-4.2l11.5-23.1c.5-1.1.8-2.4 1.1-3.7l-1.9-1-6 12-7.4 14.5c-.5 1-.2 2.5-.3 3.8l-5.3-2.9c4.6-9.3 9.1-18.4 13.8-27.5.9-1.8 1-3-1.2-3.7-.7-.3-1.2-1.1-1.4-2l18.7 10.3zM310.6 707.8l-9 .5v-6.1l-.1-21.6c0-3.5 0-3.5-3.5-3.2l-1.3-.3c.8-.5 1.3-1 1.7-1 3.4 0 6.9 0 10.5.3l-2.7 1 .2 5.8.1 14.1c0 2.6.3 5.2.6 7.7.1.7 1 1.2 1.6 1.7l.7-.3 1.4-11.5 2.4-18.2c0-.6.8-1.1 1.2-1.7.5.5 1.2 1 1.4 1.7l6.4 25.3c1.4 5.1 1.5 5-3.9 4.9l-4.8-18.8h-1c-.6 6.6-2.2 13-1.9 19.7zM108.3 376.8l5-10 .4.1-.3 2 10.8 3.2-8.4-9.8.6-1.4c1.5 1.8 3.1 3.4 4.3 5.4 2.5 4.2 5.9 6.6 10.7 7.4 4.5.8 8.8 2.1 13.3 3 .7 0 1.8-1.3 2.5-2.1s1.1-1.8 1.6-2.7l1.2.7-7.2 11.6-.6-.3 1-2.6-15.4-3.7-12-2.9c-4.7-1.1-4.7-1.1-7.5 2zM117 494.2l.2-3.7H83.9c0-2.4-.2-4.7-.3-7l.5-.1.4 2h32.7c.2-1.9-1-2.7-2.4-3.2l-8-2.6c-.7-.3-1.5-.7-2.1-1.5 2.5.8 5.2 1.6 7.7 2.6 4 1.6 4 1.6 5.4-2.2v15.7h-.8zM418.1 284.6c-1.7 2.8-3.5 5.3-5 8-3.6 6.4-7 12.9-10.5 19.3-.8 1.5-1.7 3 .3 4.2l-9.4-5.4.2-.6 3.4 1.1 3.7-7a1572 1572 0 0 1 11.1-19.4c1.7-2.9 2.2-3 4.8-1l1.4.8z"/>
  <path d="m84.2 482.3-.4-4.6 9.7-2.3v-.6l-6.8-2.4.1-.5c1.9.6 4 .9 5.5 1.8 2 1.2 3.6 1.1 5.7.5 6.1-1.8 12.4-3.2 18.7-4.7l.5-4.3h.5v11.5h-.7l-.3-2.3-32.5 7.9zM149.4 586.9l-24.7 24 1.3 2.9-.6.3-5-7.8c.8-.4 1.8-.5 2.4-1l14-12.6-1-.7c1.5-.6 2.8-1.1 4-1.8l7.4-4c.7-.3 1.6 0 2.4 0l-.2.7zM211.2 684.6l-6.4-3.1.2-.5 2 .7c2-7 4.2-13.9 6.3-20.8l-.5-.4-6.2 9-.6-.5 14-19.8c.3 0 .5 0 .7.2-2.5 11.7-6 23.2-9.5 35.2zM418.2 673.8l2-.9-12.8-16.7c-.2 0-.4.2-.5.3l4.7 16.5-.5.1c-.8-2.5-1.5-5.2-2.4-7.7l-6.4-18.2c-.2-.7 0-1.6.1-2.4.6.5 1.4.9 1.9 1.5l7.5 9 13.5 15-6.6 4.1-.5-.6zM193.6 284.5l5.8-3.7 17.7 28 4-1.5.5.8-7.4 3.5-6.9-10.3c-3.4-5.1-6.6-10.3-10.1-15.4-.6-.8-2.3-1-3.6-1.4zM495.6 363l5 8-.4.4-1.6-1.5-28.5 17.4-2-3.8c9.6-5.8 19-11.5 28.6-17.1l-.4-.6a687.7 687.7 0 0 0-.7-2.8zM196.4 323c4.7-2 2.7-5.4 2.2-8.5l-1.3-6.9.7-.1 2.8 12.4 2.8-2 .5.6-6.7 5.2-1-.7zM136 394.8v-.5c3.9-5.4 3-4.2-1-9.1l-2-2.8 6 5.9 2.2-2.3.6.3-5 9-.7-.5zM103 373.9l7-13.5c1.1-2.2 2.6-4.2 4-6.3l-7.2 13.3-3.7 6.5zM305.7 719.6c-.4-1.1-1.2-2.5-.9-2.8.7-.7 2-1.4 3-1.2.7 0 1.4 1.2 2.1 2l-.4.4c-.7-.3-1.5-1-2-.9-.6.2-1 1.2-1.8 2.5zM412.1 678.5c0-1.6-.2-2.9-.3-4.5l1.8 2.8 1.6-1 .3.5-3.4 2.2zM507.3 358.5l-1 1.2 2 .1-1.9 2.3-.8.1-1.2-3.8 2.7-.6.2.7zM539.6 480.9l-1.2 1.4-3.7-4.9.5-.5 4.4 4zM302.5 245c-1-.5-2.1-.9-2.1-1.2 0-.8.3-1.8 1-2.3.3-.4 1.5-.2 2 .2.6.5.9 1.4 1.3 2.1l-.8.4-1.2-1.7-.5.1.3 2.5zM187.8 277.5l-.8-1.7.7-.2c.3.8 1 1.8.7 2.3-.4.8-1.5 1.2-2.3 1.8l-.6-1 2.3-1.2zM333.7 453.3c1.6.5 3 1.3 4.6 1.6 1.6.2 2.1.7 1.8 2.3-.4 2.1-.3 4.3-.5 7 1.7-2.8 2.8-5.2 4.5-7 2.1-2.6 4.5-5 7.2-6.8 6.2-4.3 12.7-8.3 19-12.3h.5c4.4 5 6 11.4 7.8 17.6 1.2 4 2.3 8 2.9 12.2.5 3.7.5 7.6.4 11.4-.1 6.6-1.3 13-2.3 19.6a53.7 53.7 0 0 1-9.7 23.4 87.8 87.8 0 0 1-20 21.2 77.1 77.1 0 0 1-37 14c-4.6.5-9.5.6-14.1 0-8-1-16.3-1.8-23.7-5.4-5.3-2.6-10.5-5.5-15.3-9a59.5 59.5 0 0 1-15-15.2c-2.8-4-5.7-7.8-7.6-12.2a89 89 0 0 1-7.2-21 85.6 85.6 0 0 1 1.4-36.2c1.7-5.4 4-10.7 6.3-16a61 61 0 0 1 11.2-16.8c.8-.9 2-1.4 3-2.3.6-.6 1-1.5 1.8-2.1 3.3-2.8 6.8-5.4 10.5-8.4l.2 4.4.6.3 2.3-3.4c5 9.7 9.2 20 15.4 28.7 6.2 9 11 18.6 16.6 27.8 2-.8 2-1.8 1.3-3l-5.6-9.5c-2.9-5.2-5.9-10.3-8.3-15.7a84.4 84.4 0 0 0-10.8-17.1c-2-2.7-3.5-5.9-5.3-8.8-.5-.8-1-1.7-1.8-2.7l6 1.4c0-.2.1-.5.3-.7l-6.5-4.4 7.1-3c6.5-2.8 13.2-5 20.3-5.4 6.4-.3 12.8-1 19-.3 5.4.5 10.5 2.4 15.7 4 2.4.6 4.7 1.6 6.8 2.7a87 87 0 0 1 27 21.5l3.8 4.4c.7 1 1.3 1.9-.2 2.8l-18.6 11.7a26 26 0 0 1-12.7 3.4l-2.8.2-.3 1zm27.5 34.2-8.7 23.2.5.6 2.2-3.6 15.2 6.6-1.4 1.6 2.4 2.2 8.1-24-.8-.6c-.4.3-1 .4-1.2.7-.6 1.5-1.4 1.7-2.9 1.3-3.2-.9-6.4-1.5-9.6-2.2-3.7-.9-3.7-.9-3.5-4.4l-.3-1.4zm-104.9 47.3-2.5-.2c2.2 1.7 2.7 4.4 5.5 4.2-.3-5.6 4.8-9.2 5.8-14.9-1 .1-2 0-2.7.3-1.1.4-2.1 1.2-3.2 1.8l-8.2 4.2-.5-.8c3-4.6 8.1-7 11.8-11l1.7.9.4-.5-7.9-11.6-15.4 11.6c3 5 6.8 10 10.9 13.7l8.8-6 .5.5-5 7.8zm120.5-78.3-17.4 5.8-1.6-2.5-.6.2c.6 2.5 1.4 5 1.7 7.4.7 4.7 1.2 9.4 1.6 14.2.1 1.6.8 2.5 2.6 2.6l-.8-2.1c-1.8-5-.3-7.7 4.8-8.5l10.2-1.8c.5 0 1.4.6 1.7 1.1.3.7.2 1.7.3 2.7 2-3.6.4-14-2.5-19.1zm-90.2-45-.9.2-2-5.2c-1.6-.4-4.5.8-5.7 2.7.9.1 2.1-.2 2.4.3 2.2 3 6 5.3 4.6 10-.8 2.7-1.2 5.4-1.8 8l4.6-2.1c-2.6-1-2.6-1-.6-6.7l3.4 6 14.7-2.3v-.6h-3.8l-1.9-14.3c-.2-1.8 0-3.4 2.6-3.7-.7-.5-1.3-1-1.9-.9l-12 2.2c-1.4.2-2.3.9-1.8 2.7.3 1.2 0 2.5 0 3.8zm3.8 123c-3 1.8-2.4 5.7-4.4 8.1-1.9 2.5-3.1 5.5-4.7 8.2l-.9-.4c-.3-3.6 1.3-7 2.6-10.4l2.7-7-9.5-4-.5.7 2 1.1c-1.8 4.8-3.5 9.2-5 13.8-.6 1.6-1.4 2.4-3.2 1.6a28 28 0 0 0 13.4 6.3l4.2-8.4.7.3v8l-2 .4v.9l8.4 1.6.2-.8-3-1.2-1-18.8zm17.2 2.6c.9.7 2.4 1.2 2.6 2 1 4.8 1.7 9.7 2.5 14.4l-2.6 1.6c.5.4.8.8 1 .8 3.2-.3 6.5-.5 9.7-.9.4 0 1-1.6.8-1.8-2.8-2.9-1.2-6.4-1.7-9.7 1 1.3 1.9 2.6 2.6 4l2.3 4.5-1.5 1.3.3.8 7.3-2.6v-1.3c-2.3 1.8-3 .1-3.7-1l-8.1-14c-.3-.4-1-.6-1.7-1.1 0 6.8 1.7 13.2-.1 19.6a4.6 4.6 0 0 1-1.5-2.4c-.7-3.6-1.5-7.2-2-10.8-.2-1.3.2-2.8.3-4.7-1-.8-5-.4-6.5 1.3zm-47.3-90.6 3.7-4.8-2.3.3-1.8-4.4.9-.6 4.3 3.7 7.5-7.1c-2.1.9-2.9-.5-3.9-1.8-2.8-3.7-5.8-7.3-8.9-11.1l1-1.8-.3-.3-8.2 6.7c2.8 1.5 2.7 3.8 3.3 5.7l-.5.5-4.8-4-3.5 4.8c1.2.1 2-.5 2.5-.3 2.8 1.2 6.2 2 8.2 4.2 2.4 2.5 4 6 2.8 10.3zM249.4 481l-.8-.2c.7 3-1.4 4.1-3.1 5.4-3 2.2-5.7 4.9-10.2 3.8-2.5-.6-4.2-1.1-3.6-4 0-.2-.2-.3-.8-.8 0 2-.6 4.2.2 5.2 1 1.2 3.2 1.4 5.2 2.2l-4.6 2.4 2.5 8.5c5.5-2 10.6-3.8 15.8-5.5.8-.3 1.8.5 3 .8l-2.3-8.5c-1.6 2.3-4.8 2.3-6.9.2l6.5-3-.9-6.5zm101-34.7c.6-1.7.7-3.3 1.7-4.3 3.2-3.5 6.7-6.7 10.1-10 1 .5 1.7 1 2.5 1.6-1.7-4.2-5-7-8.3-9.6l-2.1 3.2c-1.8 2-3.4 4.4-5.5 6.2-1.6 1.5-2.7 4.3-5.9 3.5-.2 0-.7.5-.7.7.1.5.4 1.2.7 1.3 2.9 1.2 4.5 3.5 6 5.9l1.4 1.5zM297 478.6c-1 2-1 3.4.2 4.5 3 2.7 5.7 6 10.3 4l.4-3.1h.4l.2 2.7c3.3-.9 3.9-2 3.5-5-.2-1.7.1-3.3.2-5 0-.7 0-1.6-.3-2.2-2-3.6-9.1-4.7-12.1-1.8-.4.3-.3 1-.3 1.6v9.5h-1V475h-1l.5 7.1h-.7l-.3-3.6zm5.4-11h2.3c2 .2 4.3.1 6.2.9 5.2 2.2 9 9.7 6.6 15.8-2 4.9-6.5 8.4-12.4 8-6.3-.6-10.4-4.1-11.6-9.5-1-4.2.1-8.1 3-11.6.3-.4.2-1.2.5-2.4-5.4 2.8-7 10.7-5.4 15.6 2 6.6 9.2 10.6 16.7 9.4 3.7-.6 6.5-2.5 8.9-5.4 2.8-3.6 4-11.3 1.3-14.9a32.7 32.7 0 0 0-6.8-6.5c-2.6-1.9-7.4-1.6-9.3.6zm-65.2-19.7-2.4 6.4c2.3-.7 3.5.1 4.3 3l-5-1.5-1 5.4c2-1.5 9-1.4 10.6.2 2.6 2.4 5.8 4.6 6.7 8.6l1.5-5.6c-3.5.9-4-2.2-6.2-3.3 4.5-1 5.3-.8 6.5 2l2.9-8.1-.8-.5c-1.2 3.2-3.6 3.2-6.2 2.7a2 2 0 0 0-.7 0c-2.7.6-5 0-6.8-2-1.6-2-4.1-3.4-2.8-6.6l-.6-.7zm108.1 82.2.6-.4 9.2 7.3 3.6-4.2-.4-.5-1.4 1L342 523c-.4-.3-1.2-.2-1.7.1-.3.2-.4 1.1-.2 1.5l8 16.2-.6.2-2.3 2.4.6.6 6.9-5.2c-1.9-.2-3.4 0-3.7-.5-1.4-2.6-2.6-5.5-3.8-8.2zm-19.9-124c.3 1.7.8 2.6.6 3.5-.6 2.8-1.2 5.8-2.3 8.4-1 2.4-.4 6-4.5 6.4 2.7 1.9 7 2.7 8 2-.6-1-2-2-1.8-2.6 1.2-5.2 2.8-10.3 4.3-15.5l2 .6c.6.2 1.1.2 2.2.3-3.6-3-7.8-4-8.5-3zm14.3 49.9c-1 .2-1.6.2-2 .4-3.2 1.8-6.5 3.7-9.7 5.7-3.4 2-6.7 4.2-10 6.3-1 .6-2 1.2-.8 2.4.9 1 1.6 2.1 3.2.8l11.1-8.5c1.4-1 2.6-2.4 4.1-2.8 2.1-.7 3-2 4-4.3zm-25.5 31.7L308 491c2.4.1 5.2-1.4 6.2-3.4z"/>
  <path d="m220.2 556.6 8.1-3.8-.2-.5-3.5 1.4 11.3-10.4c4.7 4.3 9.1 8.6 13.8 12.6a43 43 0 0 0 7.4 5c5 2.7 10 5.6 15.3 7.8 4.5 1.9 9.4 3 14.3 4.2 3.2.8 6.6 1 10 1.3 4 .3 8 .6 12.1.5 8.4-.3 16.6-1 24.4-4.4 5.5-2.3 11-4.3 16.3-6.7 2.3-1 4.4-2.4 6.5-3.8 9-6.6 17.3-14 24-23 3-4 5.3-8.4 7.5-12.8a124.9 124.9 0 0 0 9.6-29c1-4.9 2-10 1.9-15-.3-7-1.5-14-2.7-20.9-.8-4.4-2-8.8-3.5-13-1.4-3.7-3.4-7.1-5.1-10.6-.9-1.8-2.4-3.4-2.7-5.3-.1-1 1.4-2.7 2.6-3.5 2.3-1.7 5-3 7.4-4.6 2.4-1.5 4.8-3.3 7-4.8 1.4 2.9 3.2 5.9 4.5 9.1 2.7 6.5 5.6 13 7.6 19.7a114 114 0 0 1 3.3 18 118 118 0 0 1-8.3 62.6 113.2 113.2 0 0 1-48.7 54.5 108.5 108.5 0 0 1-60.8 14.6c-12.3-.6-24.3-3-35.9-7.4-7.6-3-14.7-6.9-21.3-11.7-6-4.3-11.5-9.1-17.1-14-2-1.6-3.3-3.9-5.1-6zm187-54-5.3-7c-.3 0-.5 0-.7.2l-.8 3.7-.5 3.7c-4 .5-.4-3.4-2.8-4l-1.7 8.6c1.6-.5 1-4 3.5-2.1.3.2-.4 1.8-.7 3l2.8.3-.8-3 11.4 1.7c-.1-3.2-2.3-3.7-4-4.7 0-.2-.2-.3-.3-.4zm2 15.9-.7-1.8c-2.2-4.5-10.2-7.6-15.4-2.5-.5.5-.7 1.5-.8 2.2 0 3.5 2.5 5.4 5 7 4.6 3 11.8.9 11.8-5zm-81.3 65.7c-1.3-2.5-2.2-4.7-3.4-6.9-1-1.8-2.7-3-4.9-2.4-2.2.7-3.9 2.3-4 4.7-.2 2.5-.2 5 .2 7.4.7 4.2 5.7 6.4 8.7 3.8 1.7-1.5 2.2-4.1 3.4-6.6zm-90.4-28c0 .4.2 1.3 0 1.4-2 1.1-4 3-5.9 2.9-2.7 0-4.4-2.2-4-5.5-.7.6-1.2 1.1-1.3 1.7-.2 2.6 3 5.6 5.6 5.4 6-.5 9.6-4.3 9.6-10.4 0-2.4-3-5.5-4.8-4.8-2.2 1-4.2 2.4-6 4-1.3 1-.5 5.1 1 6.1 1.9 1.5 3.3 1.2 5.8-.9zm166.7-115.3 4.2 3-.4.7-5.8-1.7-.2.8c.8.7 2 1.2 2.6 2.1.5.9 1 2.4.6 3.2-.8 1.7-5.5 2.7-7 1.5-2.4-2-.7-4.4.3-6.7-2.9 1.7-3.7 3.5-2.9 5.8 1.2 3.2 3.5 4.5 7.3 3.8 1.5-.3 3.2-.8 3.6-2.7l.7-4.7 2.5 1.8c.3.2.8.4 1 .3.3-.1.5-.7.5-1-.5-1.7-.8-3.6-1.6-5.3-1.3-2.7-3.4-2.8-5.4-1zm-35.5 109.6.6 1.1c1-1.8 2.2-2.6 3.2-.9.3.5-.8 1.7-1.3 2.8l1.7 1.4.8-3 8.7 7.7 1-.6-2.3-15.8-6.5 6.2-2.7-1.7-3.2 2.8zM371 570c1.9-1.6 3.5-3 5-4.5.3-.2.2-1.2 0-1.5-2.9-3.4-5.2-7.4-9.5-9.3-.6-.3-1.6-.1-2.3.2-2.8 1.3-2.4 4.2-2.5 6.4 0 2 1.6 4 3.9 4.5a6 6 0 0 0 4-.8c1.1-.7 2-2 2.9-3l.7.2-2.2 7.8zm-86.7 10.7-.7-.2c-.8 2-2 3.2-4.3 2.5-2-.5-3.3-2-2.9-3.6.6-2 2.3-3.8 3.7-5.6.2-.2 1.4.2 2 .6l3.7 3.2c.7-1 1.2-1.9-.3-2.7-.7-.3-1.3-1-2-1.4-2-1.5-4.1-1.4-6 0-2.2 1.6-3.6 3.8-3.3 6.7.2 1.6 3.6 4 5.4 4.3.8.2 1.6.7 2.4 1-.9.6-1.6 1.4-2.6 1.7-2 .6-4.2 1-6.3 1.5l.2.4 9 .6 2-9zm54-3.3c-2.4 4.3-3.8 5.2-5.6 4.3-1.7-.8-3.2-4.5-2.4-6.1.3-.7 1.2-1.6 1.9-1.7 1.5-.2 3 .2 4.5.3-.4-.9-1.2-1.7-2.1-2-2.6-.7-4.4.4-6 3.1-.8 1.6-.4 6 1 7 2.7 2 5.6 3 8.9.7l-2.3 4.3c2.2.8 4.5-.1 4.1-2-.4-2.5-1.3-4.9-2-7.9zm66.2-119.8c-3-.4-6 2-6.1 4.2 0 3.3 3.4 7 6.4 6.8 1 0 2.3-.4 3-1.1 2-2.3 3.4-5 1.3-8.2l1-.3 4.1 6 .5-.2-1.5-7.8-7.3 1.9c2 1 3 2.2 2.7 4.4-.3 1.9-1.6 2.7-3.6 3-2.5.3-3.7-1-4.7-3-2.3-4.1 2.5-3.7 4.2-5.7zm-132 116.2c.7-2.6-.2-4.3-2.4-5-3.4-.9-6.6.5-8.1 3.7-1.2 2.3-.5 4.7 1.7 6.2l2.7 1.4 1.4 1.1c-.6.3-1.1.8-1.7 1l-4.5.5a15 15 0 0 0 5 2c.4.2 1.2 0 1.4-.4l2.3-5.8c-3.6 1.4-5.7.2-6.9-2.6-.6-1.4 1.5-5.5 3-6 3.3-1.1 4.3 1.8 6.1 3.9zM246.9 380l10.5 18.6-17.8 14.8a25.5 25.5 0 0 0-3.7 4.2c-2 2.6-3.8 5.2-5.6 7.8l-6.3 9.8a66 66 0 0 0-8.5 22.2c-1.4 6.5-2.4 13.2-2.8 19.8a119.4 119.4 0 0 0 7 39c1.7 4.4 3.9 8.7 6.3 12.7 2 3.5 4.6 6.7 7 9.8 2.2 2.7 2.3 2.8-.3 5-3.2 2.8-6.3 5.5-10 8l3.4-4c1.1-1.1 2.5-2 3.5-3.3 2-2.3 2.3-4.7 1.1-6.7-.9-1.5-4.2-2.4-6.6-1.9-4 1-6.8 3.3-8.1 7.4-1.2 3.8 1.5 7 5.4 6.4.5 0 .9-.3 1.5-.4l-3.6 6.7a118.5 118.5 0 0 1 27.6-176zm-38.1 58c-4.7-.3-7.3 2.1-6.2 5.8 1.4 5 7.4 7.8 12.1 5.7 2-1 3-2.8 2.5-5-.8-3.6-3-6.7-8.4-6.6zm27.6-43.2.2.4-5.7 4.5 6 7.8c-.2-2.1-.7-3.6-.4-4.7.4-1.2 1.7-3.1 2.5-3 1.7.1 3.4 1.1 4.9 2.1 1.6 1.2 1.5 3-.2 4-1.7 1.2-3.5 2-5.3 3 1.3 1.3 4.4.4 6.5-2 2-2.2 1.5-5.8-1.2-8-.9-.8-2.2-1.5-3.2-1.4-3.1.3-4.4 2.9-5.3 5.6-1.8-1.3-2-2.5-.9-4 .9-1.4 1.4-2.9 2-4.3zM208 504c-4-1.1-5.3-2.6-4.5-4.9.8-2.3 3-3.5 5.1-2.8 1.9.7 3.5 1.8 3.3 3.8-.2 1.6-1.4 3.2-2 4.7 3.7-2.4 4.2-4.3 2-8-1.7-2.8-4.2-3.7-6.8-2.4-3 1.6-3.7 5.2-1.8 9.1-1.6.6-2.5 0-3.3-1.4-.7-1-1.8-2-3-3.1l1.7 6.4 9.3-1.4zm-6.7-46.6c2.1.4 5 1.1 7.8 1.2 2.4.1 3.6.8 3.3 3.3l.3.3c1.8-3.3 2.2-6.4.7-7.4l-.6 2.5-3.7-.8c-2.8-.6-5.7-1.2-8.6-1.6-1.4-.2-2.6 1.6-1.9 2.5 1.2 1.4 2.5 2.7 4 3.9.6.6 1.5.8 2.2 1.3l.2-.5-3.7-4.7zm24.2-49.4.6-.5c2.5 2.2 4.9 4.6 7.5 6.7 1.1.8 1.4 1.4.6 2.6-.2.3-.3.9-.4 1.3l.3.2 4.8-6c-3 1.6-4.5-.1-6.1-1.5-2.1-1.6-4.1-3.4-6.3-5-.8-.6-2.3-1-2 .5.2 2.7 1.1 5.3 1.8 8l1-.3-1-2.8-.8-3.2zM259.3 398.2 249 379.5c3.6-3.3 8-5 12.6-6.7 4.7-1.7 9.2-3.9 14-5.2a90.9 90.9 0 0 1 16-3c7-.6 14.1-.7 21.2-.5 4.7.1 9.3 1.4 14 1.7 6.7.5 13 2.6 19.2 5a78.4 78.4 0 0 1 19.2 10.2c3.4 2.7 7.2 4.9 10.6 7.6 3 2.3 5.7 4.9 8.2 7.6l16.8 19 .6.9-18.2 11.4a88.5 88.5 0 0 0-55.9-40 87.9 87.9 0 0 0-68 10.7zm132.9 13.7c0-3.4-2.4-6.5-4.9-6a13 13 0 0 0-10.2 8.1c-.6 1.6-.4 3 .8 4.3 2.2 2.4 4.2 2.9 7.7 1.5 3.7-1.3 6.6-4.8 6.6-8zm-116-24.4-1-.8 4-5.2c1.6-2 3.1-4.3 2-7-1.5-4-5.2-5-8.8-2.4-1.6 1.2-2.2 3.7-1.3 5.8.7 1.7 2 3 4 2.8.5 0 1-.6 1.4-1l-1-1c-2.8-.8-3.7-3.3-1.6-5.2a5 5 0 0 1 3.9-1.1c.7 0 1.5 2 1.4 3-.1 1.7-.9 3.4-1.6 5-1 2.2-2.4 4.3-3.5 6.4-.3.6 0 1.5.1 2.3.7-.1 1.4-.1 2-.3 1.8-.6 3.6-1.4 5.4-1.9 1.5-.3 2.2-1.1 2.1-2.5 0-1-.4-2.1-.7-3.2-.8 4-4.5 4.4-6.9 6.3zm45.8-3.8-.3-.4 9.4-4.6c.6-.3 1.3-.7 1.5-1.3 1.7-3.3.5-6.4-2.8-8.1-2-1-5.1 0-6.7 2-1.3 1.6-1 4 .7 6l-.1-2c0-2.2 2-4.5 4.3-4.6 1 0 2.6.8 3 1.7 1.2 2 0 3.9-1.8 5.1-1.4 1-3 1.7-4.4 2.7-1.7 1.3-3.3 2.8-5.2 4.4l11.3 1.7 2.4-4.7-.7-.5c-.5.6-1 1.3-1.6 1.8-.5.4-1.1.8-1.7.8H322zm-24.7-6.8-1.2-5c-.7-2.3-3.2-3.9-5.8-3.7-2 .1-4.3 2-4.4 4.2-.1 2.8-.2 5.8.7 8.4 1.7 4.4 4.4 5 8 3 2.4-1.2 2.5-4.2 2.7-7zm84.9 23c-3.2-5.6-8.7-7.3-11.4-3.3 3.5-1.4 5.5.6 8 2.5l-6.5 1v.6c.8.2 1.8.2 2.3.6 1 .8 2.5 1.9 2.5 2.8 0 2.3-2.2 2.9-4 3.7-1.6.7-3 .6-3.9-1-.7-1.3-.8-3-1.2-4.3a5.1 5.1 0 0 0 .9 6.4c1.8 1.6 5.1 2 6.8.5 1.2-1 2.5-2.3 2.9-3.8.3-1.4-.4-3-.6-4.7l4.2-1zm-45-18.4c-1.3 1.5-2.5 3.2-1.2 5.6 1 1.8 3.8 3.6 5.3 3.3 2.4-.4 5.4-3.6 5.4-6.1 0-3.7-2.4-5.4-5.8-5.9v-.7l6.8-2v-.4l-6-1.7-4 7.7c1.3-.3 2.3-.1 2.7-.6 2-1.7 2.6-.3 3.5 1.2 1.3 2.2.2 3.8-1 5.4-1.3 2.2-3.5 2.3-4.6 0-.9-1.7-.8-3.8-1.1-5.8z"/>
  <path d="M248 419c1.9-1.3 3.9-2.6 5.7-4 3-2.4 5.9-5 9.6-6.4 1.4 1.8 1 2.8-.7 3.8a87.8 87.8 0 0 0-18.2 16.2c-2.7 3-4.7 6.9-6.5 10.6-2.7 5.7-5.5 11.5-7.3 17.6a76 76 0 0 0-3.5 27.9c.5 5 1.6 10 2.8 15 1.1 4.7 2.1 9.5 4.2 13.7 2.7 5.6 6.1 10.8 9.7 15.9 3.9 5.6 8.8 10.4 14.2 14.5 6 4.6 12.2 9 19.7 11 2.8.6 5.4 2 8.2 2.9 1.6.5 3.4.4 5 .5 6.8.5 13.5 1.4 20.1 1.2a68 68 0 0 0 27-7c6-3 11.7-6.2 16.7-10.5 3.2-2.8 6-6 9-9 1.3-1.5 2.9-2.9 4-4.5 2.2-3.2 4.2-6.5 6.1-9.8 1.5-2.5 3-5 4.2-7.6 2.7-6 4.3-12.5 5-19.1.4-5.1.8-10.3 1-15.4 0-2.3-.5-4.7-.8-7-.4-3.3-.4-6.7-1.3-9.8-1.8-5.7-4-11.3-6.1-17-.5-1.2-1.2-2.4-1.9-3.6-1-1.8-.5-3 1.7-4 1.1 2 2.5 4 3.4 6 1.8 4.5 3.8 9 5 13.6 1.7 6.4 2.7 13 4 19.7.1.4.2.8 0 1.2-1.5 3.8.3 7.8-.4 11.7-.6 4-1.1 8-2 12a73.2 73.2 0 0 1-13.9 30.3c-4.6 5.7-9.7 11.2-15.2 16a58.4 58.4 0 0 1-17.4 11.1c-8.3 3.1-16.6 6.5-25.7 6.8-4.7.1-9.5.6-14.2 0a86.8 86.8 0 0 1-45.9-18.4 65 65 0 0 1-15-16.6c-2.5-4.3-5.2-8.6-7.4-13.2-3-6.4-5.5-13-6.5-20 0-.6-.3-1.1-.5-1.7l-.8.2 2.2 11.1-7.5 2.7-3.5-16.3 7.9-1.8 1.1 3.8.8-.1a89.1 89.1 0 0 1 2.3-36.7l-.9-.2-.6 1.8c-.5 2.8-1.2 3.3-4 2.5-1-.3-2.2-.3-3-.9-.7-.4-1.5-1.5-1.3-2 1-3.6 2.3-7 3.5-10.5.4-1.3.6-2.7 1-4.5l7.9 3.8-1.4 3.8.5.2c1.4-2.7 3-5.3 4.3-8 2.5-5 4.6-10.2 8.6-14.3 2.6-2.8 4.7-6.1 7-9.2zm-26.3 34.5h1.3c.5-1.1 1.1-2.3 1.4-3.6 0-.3-1.1-1.3-1.5-1.2-.9.3-2.3 1-2.4 1.6 0 1 .8 2.1 1.2 3.2zm-4.2 44.3.8 1c1-.5 2-1 3-1.3l-1.5-3.3-1 .1-1.3 3.5z"/>
  <path d="m374.8 433-3.2 1.8c-5.7-6.7-11.2-13.4-18.2-18.5-4-2.9-8.2-5.5-12.3-8.2-4.8-3.1-10.1-5-15.7-6.4a93 93 0 0 0-19-2.6c-4.1-.3-8.4.6-12.5 1.2-3.2.4-6.4.7-9.3 1.8-5.3 2-10.6 4.3-15.7 7-2 1-2.8 0-3.5-1.2-1-1.6.7-1.7 1.7-2.2 3.6-1.7 7.1-3.5 10.8-5 3.3-1.2 6.9-2 10.3-3 6-1.4 12.2-2.7 18.4-2.1 7.7.7 15.5.7 22.8 3.3 4.3 1.5 8.4 3.8 12.4 6a80.8 80.8 0 0 1 22.1 16c2.6 2.4 4.6 5.4 6.9 8 1.1 1.4 2.4 2.6 4 4.1zM243.2 548.1c-1.8-1.5-3.3-2.8-4.6-4.2-.5-.6-1-1.9-.7-2.2.5-.6 1.6-.8 2.5-1 .4-.2.9.2 1.3.3 1.4-2.2 1.2-3.2-.7-4.2-1.4-.8-2.4-.5-3 1.2-.3 1-1 1.8-1.8 3.1l-4.7-5.6 6.4-5.4 5.6 6.8c1.1 1.3 2.5 2.5 3.5 4 .4.5.8 1.7.4 2.2-1.2 1.7-2.6 3.2-4.2 5zM366 539.8l.7.6c5 4.9 4.4 4.7-.9 9.7-2 1.9-4.2 3.5-6.4 5-.3.3-1.3 0-1.8-.3s-.6-1-1-1.4c-3.4-3.7-3.4-3.9.6-6.9 2.9-2.1 5.7-4.3 8.7-6.7zm-6 8.4c.8.5 1.9 1.4 3 1.4.7 0 1.8-1 2.1-1.8.2-.5-.6-2-1.2-2.1-1.6-.4-3.2-.2-4 2.5zM295 394.5c-4.9 1.3-9.2 2.5-13.6 3.5-.5.2-1.7-.4-1.9-1-.7-1.8-1.1-3.8-1.8-6.2l11-2.3c1.5-.3 4-1 4.4-.4 1 1.9 1.4 4.2 2 6.4zM290 392c-1.2-1-2-2.1-2.7-2-.9.2-1.6 1.3-2.3 2 .7.7 1.5 1.7 2.3 1.9.7 0 1.5-1 2.7-2zM324.8 388.2l16.1 5-2.3 7.3-12.8-4c-1.2-.4-1.8-1-1.6-2.3.3-1.9.4-3.8.6-6zm8 9.2c1-1.5 2-2.3 2-3-.1-.7-1.2-1.6-2-1.9-.5-.1-1.9 1-1.8 1.3.2 1 .9 2 1.8 3.6zM248 419l-4.7 4c-1.4-1.2-3.1-2.5-4.5-4-.4-.5-.2-2.3.4-2.9 3.2-3.2 6.6-6.2 10-9.4l3.4 4c1.3 1.6 1.1 2.8-.7 4.1-1.5 1.2-2.6 2.8-4 4.3l.2-.1zm-1.8-6.7-1 .3c-.2 1-.5 2.2-.4 3.3 0 .3 1 1 1.2 1 1-.5 1.7-1.2 2.4-1.8l-2.2-2.8zM269.3 566.1l2.5-7.8 11.3 3.6c2.4.7 2 2.7 1.8 4.4 0 1.5-.7 3-1.2 4.7l-14.4-4.9zm8.8 1.5c.9-1.2 2-2.1 1.8-2.5-.5-1.1-1.4-2-2.1-3-.9.8-2.4 1.6-2.4 2.3 0 1 1.4 1.8 2.7 3.2zM362.3 416l4.9-6 7.6 8.9.5.8c.6 1.2 2 3 1.7 3.4-1.3 1.5-3 2.8-4.8 3.6-.5.2-2-1-2.7-1.8-2.5-2.9-4.8-5.9-7.2-9zm8.8.9-1-.1c-.6.5-1.5 1-1.8 1.6-.3.6-.2 1.7.2 2.2.4.6 1.3 1 2.1 1.3.2 0 1-.6 1-.8 0-1.4-.3-2.8-.5-4.2zM331 570l-15 3c-.5-2.4-1-4.6-1.2-6.7 0-.6 1-1.6 1.7-1.8 3.9-.9 7.7-1.5 12-2.4l2.5 7.9zm-8-.2c1-1 2.1-2 2-2.3-.7-1.1-1.7-2-2.6-3l-3 3 3.7 2.3zM397 468c-2.7.5-4.9 1-7 1-.5.1-1.4-.7-1.5-1.3l-1.6-8.8c-.7-3.8-.8-3.8 2.7-5.1 2.8-1.1 3.6-.8 4.4 2.1l3 12.2zm-6.2-3c1.2-1.5 2.4-2.3 2.8-3.4.1-.5-1.5-1.5-2.4-2.3-.8 1-1.8 2-2.5 3.2-.1.3 1 1.2 2 2.4zM389.3 516.7l-5.3-2c-1.1-.5-1.6-1-1-2.5 1.2-3.3 3.4-6.5 3.3-10.3 0-.4 1-1.3 1.5-1.3 2 .2 4 .7 6.4 1.1l-5 15zm-2-6 3.1-3c-.7-.6-1.9-1.9-2.1-1.7-1 .7-1.9 1.7-2.6 2.7-.1.2.8 1 1.7 2zM226.3 537c1.2.7 2.7 1.2 3.3 2.3.9 1.5 0 3-1.5 4-2.2 1.5-4.5 3.3-7 4.4-2.2 1-4-.7-3.6-3 .7-3.5 5.1-7.3 8.8-7.8zM264.1 554l6.5 3-3 8.5-6.1-3.3c-1.3-.7-1-1.4-.5-2.4l3.1-5.8zM396.7 470.6v8.7h-7.2c-1.8-8.5-.9-8.6 7.2-8.7zM221.9 441.4c1.3-2.4 2.4-4.5 3.7-6.5.2-.4 1.1-.5 1.6-.3.7.2 1.2.8 1.8 1.2 1.3.8 3.7 1.8 3.6 2.3-.4 2.1-1.5 4-2.6 6-.1.3-1.1.3-1.6.1l-6.5-2.8zM255.3 411.8c-1.1-1.8-2.4-3.5-3.3-5.3-.3-.5 0-1.8.6-2.2 1.6-1.4 3.5-2.6 5.6-4 1 1.7 2.3 3.5 3.2 5.4.3.5-.2 1.8-.8 2.3-1.4 1.2-3.1 2.3-5.3 3.8zM275.4 391.7l3 7-5.8 2.9c-.6.1-1.7-.2-2-.7l-3.2-6.1 8-3.1zM232.9 522.5l4.2 6.2-6.8 5.4-3.5-6.5c-.2-.4.2-1.4.6-1.6l5.5-3.5zM245 549.7v-.6c3.4-6 6-6.2 10.2-.5l-2.7 4.5c-.8 1.5-1.8 1.6-3 .7l-4.6-4zM214 480.7h8v7.6l-7.4 1-.7-8.6zM215.7 461c2.6.5 4.9.8 7.1 1.4.3 0 .6 1.1.6 1.7l-1 6.2c-2.1-.2-4.1-.3-6-.7-.6-.2-1.3-1.2-1.3-1.9 0-2 .4-4 .6-6.6zM372.6 543.2l-4.6-4.4c-.3-.4-.5-1.4-.3-1.7 1.1-1.6 2.4-3.2 3.7-4.7.2-.2 1.1-.1 1.5.1 1.7 1.2 3.3 2.6 5.2 4.2l-5.5 6.5zM390 481.3h2c5.3-.1 5.7.3 4.8 5.6l-.6 3h-5.7c-1.3 0-2.1-.5-1.9-2l1.3-6.6zM357.8 402.5l-4.6 7.1-5.8-4 3.6-7.4 6.8 4.3zM303.6 565.5l.8 8-8-.7c-1-10.1.2-8 7.2-7.3zM357.3 556.9c-2.2 1.2-4 2.4-5.8 3.2-.8.2-2-.4-2.9-.9-.6-.4-.8-1.3-1.2-2-.9-1.6-.7-3 .8-4 1.1-.8 2.3-1.5 3.5-2.1.4-.2 1.4 0 1.7.4l3.9 5.4zM293.4 573c-2.1-.5-4.3-.9-6.4-1.6-.5-.1-.9-1.5-.8-2.2.3-2 .8-4 1.3-6l4.7.8c2 .3 2.5 1.6 2.3 3.3l-1 5.7zM388.3 518.8l-3.7 7.5c-2-1.1-3.7-2-5.4-3.2-.5-.4-1-1.5-.7-2 .7-1.6 1.7-3 2.7-4.5 1-1.6 2.2-.3 3.2 0l3.9 2.2zM229 514.5l3.2 6.3-7 4.5-3.3-6.8 7.1-4zM222.5 472l-.4 6c0 .3-.4.8-.6.8-2.2.2-5.2 1.1-6.3 0-1.3-1.1-.9-4.1-1-6.4 0-.4.9-1.2 1.3-1.2 2.2.1 4.5.4 7 .7zM305.8 573.4v-8c1.8 0 3.7-.2 5.5 0 .6.1 1.5 1 1.7 1.6.5 1.8.7 3.7 1.1 6l-8.3.4zM383.4 528.3l-3.7 6.6-6.8-4.4c1.3-2 2.2-3.8 3.5-5.3.4-.5 1.8-.5 2.4-.1 1.5.8 2.8 2 4.6 3.2zM256.6 549.6l1.8.8c4 1.8 4.3 2.3 2.4 6.3l-2 4.3-6-4.9 3.8-6.5zM388.5 491.3l7.7 1-1.3 7.6-5.3-.7c-2.1-.3-2.6-1.6-2.2-3.4l1-4.5zM228.2 513c-1.6.8-3.3 1.5-4.6 2.6-1.9 1.4-2.6.4-3.2-1.1l-1.9-5.3 7.4-3 2.3 6.8zM349 562c-2 1.2-3.6 2.2-5.3 2.9-.7.3-2.2.2-2.5-.2-1-1.7-1.7-3.6-2.4-5.5-.1-.3.5-1.1 1-1.4 1.3-.7 2.8-1.3 4.6-2l4.6 6.3zM389.8 443.3l2.7 7.5-7 2.5c-1-2.2-1.8-4.2-2.5-6.3-.1-.4.4-1.2.8-1.4l6-2.3zM339.6 566.5l-7 3-2.5-7.5c2.1-.9 3.7-1.7 5.4-2.2.6-.2 1.7.2 2 .6.8 2 1.4 4 2 6zM354.9 410.5l4.3-6.6 5.5 4.4c.2.2.2.9 0 1.1a48.8 48.8 0 0 1-3.4 4.5c-.4.4-1.5.6-1.9.3-1.5-1-2.9-2.4-4.5-3.7zM322.2 395.4l-7.4-.9c0-1.9-.2-3.6 0-5.2.1-1.6.8-2.4 2.8-1.8 1.4.5 3.2.3 5.3.4l-.7 7.5zM379 437.8l6.2-3.5c1 1.7 2.1 3.2 2.7 4.8.3.9-.1 2.5-.8 3-1.3.9-3 1.4-4.6 1.9-.3 0-1-.5-1.3-.9l-2.3-5.3zM345.6 404.3c-1.1-.5-2-1.1-3.1-1.5-2.7-1-2.8-1.3-1.6-4l1-2.1 1.6-2.4 6.2 2.7-4.1 7.3zM303.5 387v6.9l-6.8.7-1-7.5h7.8zM242 424v.6c-3.5 5.8-4.6 5.8-10.1.3l4.5-5.3 5.7 4.5zM305.5 390.1c.6-1.2-1-4 2-3.9 4.7 0 5.8 1 5.5 4.2-.2 1.3 1 3.7-1.7 3.8-5.8.3-5.9.1-5.8-4zM259.8 399.1l4.2-2.5c1.3-.8 2.2-.4 2.8.8l1 2c2 3.6 2.7 3-2 5.6-1.3.8-2.1.5-2.9-.8l-3.1-5zM227 432.6l4-5.7 6.2 3.9-3.4 5.6-6.9-3.8zM372.9 428.8l6-4 2.8 3.2-5.1 3.7c-1 .8-1.8.7-2.2-.7-.2-.7-.9-1.3-1.5-2.2zM384.3 432.4l-6.5 4-.7-.6c.3-.7.6-1.5 1-2 1-1 2-1.8 3-2.6 1.5-1.2 2-1 3.2 1.2zM407.7 407.9c.2-.6.2-1.4.7-1.7 3-2.2 6-4.3 9.2-6.4l-6 4.7-4 3.4zM407.7 503v1.8l-6.8-1.2 1-5.3c1.9 1.5 3.6 3 5.4 4.3l.4.4zM372.8 510c-.7.1-1.4.5-2 .3a148 148 0 0 1-14.1-5.7c5.7.2 10.8 2.8 16 4.5l.1 1zM375.1 504.4c-.7.4-1.7 1.2-2.3 1-4.7-1.3-9.4-2.9-14-4.4-.2 0-.2-.3-.4-.8 6-.6 10.7 3.5 16.3 3.5l.4.7zM376 500.8l-16.7-4.3c1.9-1.2 14.6 1.8 16.8 3.6l-.2.7zM243.8 520.9l1.6-1.1 10.8-8.3c.3-.2 1 0 1.4 0-.1.3-.1.9-.4 1.1l-10.8 9.1c-.5.4-1.4.2-2.2.3l-.4-1.1zM247.3 525.6c3.5-4.3 8.3-7.3 12.8-11.4 0 1.1.2 1.8 0 2a817 817 0 0 1-11.3 10l-1 .1-.5-.7zM377.6 460.6c-.7 1-1 2-1.5 2-5 1.5-10.1 2.8-15.2 4.1l-1.3-.4c5.5-3.5 11.4-4.1 18-5.7zM378.4 465.7c-.7 2.3-7.5 4.3-17.3 5.6.1-.5.1-1.2.3-1.2 5.5-1.5 11-3 17-4.4z"/>
  <path d="M290.8 405.9 294 422l-.7.3c-2.1-3-5.2-5.8-5.3-9.8 0-2.2 0-5 1.8-6.9l1 .2zM297.7 422.5c-.4-.6-.9-1.1-1-1.8a725 725 0 0 1-2.4-12.9c-.1-.7-.2-1.4-.1-2.1 0-.4.7-.8 1-.8.4 0 1 .4 1 .7 1 5.5 1.8 11 2.6 16.5l-1.1.4zM282 532.8l-5.3 15.6-.8.1c-.2-.5-.6-1.2-.5-1.6l3-10.4c.4-1.2.9-2.3 1.5-3.3.3-.5 1-.6 1.6-.9l.6.5zM257 423c4 4.3 7.7 8.6 11.6 13l-.3.6c-.7-.1-1.6-.1-2.2-.4-1.3-.6-2.4-1.7-3.7-1.9-4.5-.8-5.8-4-6.4-8-.2-1 .2-2.1.3-3.3h.8zM233.8 500.2c.2-1.2 0-2.5.6-2.9 2-1.5 4-3.4 6.3-3.9 3-.6 6.3.1 9.4.2l.2 1.3-16.5 5.3zM359.3 428c-.1.8 0 1.6-.4 2.1a27 27 0 0 1-3 3.5l-6.6 6c-.5.5-1.1.8-2 .8 3-5 7.5-8.4 11.3-12.5l.7.2zM302 476.5l1.6-.5c1.6-.5 3.6-.8 4.3.9.7 1.5.7 3.6.3 5.3-.2.7-2.3 1.4-3.4 1.3-1.1 0-3-1-3.2-1.9-.6-2.8-.6-5.8-.8-8.7h.8l.5 3.6zm.6 2.9v1.1c1 .6 2 2 2.7 1.7 1-.4 2.3-1.6 2.5-2.6 0-.7-1.6-2.3-2.4-2.4-1 0-1.9 1.4-2.8 2.2zM401.9 522.1c-3.5-.4-7-2-7.5-4.4-.5-2.8.5-4.5 3.3-4 2.5.4 5 1.5 7.4 2.6 1.5.6 2.8 2 1.9 3.7-.7 1-2.4 1.5-3.6 2.2-.2.2-.6 0-1.5 0zM325.1 585.2c-.9 1.7 0 3.7-2.4 4.6-1.8.8-3.1.4-3.8-1.1-1.5-3.4-2.2-6.9-.7-10.4.4-.8 1.5-1.6 2.4-1.6.7-.1 1.8.7 2.1 1.5 1 2.2 1.7 4.6 2.4 7zM237 547.6c1.2 1.7 2.3 2.8 2.8 4 .5 1.3.1 2.5-1.7 2.8-.7.1-1.6.6-2.1 1.1-1.2 1.2-2.7 1.3-3.5.2-.7-.9-1-2.8-.4-3.5 1-1.6 2.8-2.8 4.9-4.6zM381 555.5l-5-5.4 3.2-3.5 2.3 8.6-.4.3zM362.6 559.5c1.3-1.5 2-2.9 3.2-3.5 1.1-.6 4.4 2.2 4.5 4 0 1.1 0 2.8-.7 3.3-.8.7-2.8 1-3.6.5-1.3-.9-2-2.5-3.4-4.3zM212 448.3c-3.4-.3-6-2.5-8.3-4.9-.4-.4-.2-2 .2-2.4 1-.7 2.5-1.5 3.6-1.4 3.3.6 6.2 2.2 8.5 4.7.8 1-.3 3.3-1.7 3.7-.7.2-1.5.2-2.3.3zM390.5 411.2c0 2-3.8 6.2-6 6.5-.7.2-1.5.5-2.3.5-.7 0-1.7-.1-2-.6-.6-.7-1.2-2-1-2.7 1.3-3.5 4.5-5 7.5-6.6 1.5-.7 3.8 1.3 3.8 2.9zM294.8 378v2c0 1.5-.1 2.8-2.1 3.1-1.8.3-3.4.2-3.8-1.9-.6-2.6-1.2-5.2-1.4-7.8-.3-2.4 1.3-3.8 3.4-3.5 1.2.1 2.7 1.4 3.2 2.6.7 1.7.6 3.6.8 5.5h-.1z"/>
</svg>
