<svg height="800" width="800" xmlns="http://www.w3.org/2000/svg" viewBox="0 0 511.754 511.754" xml:space="preserve"><path style="fill:#25ad87" d="M435.078 255.876c0 98.97-80.23 179.2-179.2 179.2s-179.2-80.23-179.2-179.2 80.23-179.2 179.2-179.2 179.2 80.23 179.2 179.2"/><path style="fill:#c6421e" d="M80.894 439.393a8.509 8.509 0 0 1-6.033-2.5c-99.814-99.814-99.814-262.221 0-362.035a8.54 8.54 0 0 1 12.066 0c3.337 3.337 3.337 8.738 0 12.066-93.158 93.158-93.158 244.745 0 337.903a8.523 8.523 0 0 1 0 12.066 8.51 8.51 0 0 1-6.033 2.5m349.966 0a8.509 8.509 0 0 1-6.033-2.5 8.523 8.523 0 0 1 0-12.066c93.158-93.158 93.158-244.745 0-337.903-3.337-3.328-3.337-8.73 0-12.066a8.54 8.54 0 0 1 12.066 0c99.814 99.814 99.814 262.221 0 362.035a8.509 8.509 0 0 1-6.033 2.5"/><path style="fill:#fff" d="M290.011 332.676v-128h-76.8v34.133h25.6v93.867h-34.133v34.133h119.466v-34.133zm-8.533-187.733c0 14.14-11.46 25.6-25.6 25.6s-25.6-11.46-25.6-25.6 11.46-25.6 25.6-25.6 25.6 11.46 25.6 25.6"/></svg>