<?xml version="1.0" encoding="utf-8"?>
<!-- Generator: Adobe Illustrator 16.0.0, SVG Export Plug-In . SVG Version: 6.00 Build 0)  -->
<!DOCTYPE svg PUBLIC "-//W3C//DTD SVG 1.1//EN" "http://www.w3.org/Graphics/SVG/1.1/DTD/svg11.dtd">
<svg version="1.1" id="Layer_1" xmlns="http://www.w3.org/2000/svg" xmlns:xlink="http://www.w3.org/1999/xlink" x="0px" y="0px"
	 width="800px" height="800px" viewBox="0 0 800 800" enable-background="new 0 0 800 800" xml:space="preserve">
<path stroke="#FFFFFF" stroke-width="24" stroke-miterlimit="10" d="M571.563,35.047C555,35.359,536.25,38.953,514.531,46.922
	C433.75,34.578,281.25,48.641,171.719,152.391c-28.391,24.172-53.078,53.859-72.484,88.391C7.869,403.75,68.156,616.094,235,715
	c166.563,98.75,374.531,46.406,465.781-116.563c75.156-133.594,47.813-301.094-56.875-411.25
	c-12.344-5.469-25.156-9.531-38.125-9.219c2.656,2.188,4.844,4.219,7.344,6.406l-19.688,21.719
	c-3.594-3.438-7.813-7.188-11.25-9.844c-2.031,6.719-2.5,15.781-0.313,27.031c66.25,81.094,85.938,211.25,37.188,298.75
	C558.594,630.313,418.75,668.438,310.469,603.75c-108.438-64.531-133.75-198.594-73.281-306.875
	c37.031-66.406,106.563-103.75,175.156-103.438c16.25,0,32.5,2.188,48.125,6.719c-6.094-20.156-9.375-37.813-12.656-57.453
	l9.688-4.844c14.688-7.344,27.656-18.125,39.375-32.031l-8.75-1.094l3.75-29.063c6.406,0.797,12.656,1.719,19.063,2.656
	l-1.719,10.781c8.125,4.906,16.563,10.063,25,15.156c-14.688,22.344-32.344,41.25-53.75,54.172
	c4.219,21.875,11.719,47.813,24.063,72.656c22.188,40.781,51.406,78.906,92.344,84.219C575,287.813,561.25,261.25,555,237.188
	c-7.031-27.031-4.844-51.875,9.531-69.219c10.625-12.922,27.344-19.328,46.406-18.859c6.406,0.156,12.969,0.938,19.844,2.5
	c25.781,6.203,55.469,22.609,88.75,50.734c12.813-16.406,15.313-35.938,11.875-57.922
	C682.188,130.047,660.469,33.797,571.563,35.047L571.563,35.047z M576.094,60.672c6.875,0.156,14.688,1.875,22.5,5.156
	c20.313,8.438,33.594,24.688,29.531,36.094s-23.906,13.75-44.375,5.156S550,82.391,554.063,70.984
	c2.344-6.406,9.688-10,19.219-10.313H576.094z M461.406,73.172l-1.094,29.219c-9.375-0.563-18.906-0.938-28.281-0.469l-0.781-29.063
	C441.25,72.438,451.406,72.703,461.406,73.172L461.406,73.172z M401.094,74.734l2.813,29.063c-9.844,1.219-19.063,2.016-27.5,3.906
	l-5.469-28.75c10.781-1.547,20-3.375,30.156-4.063V74.734z M341.719,86.125l7.188,27.828c-9.531,2.563-17.188,5.156-26.406,8.438
	l-10.156-27.344C324.688,90.906,330.781,88.5,341.719,86.125L341.719,86.125z M284.063,106.922l12.813,26.25
	c-8.594,4.094-17.813,8.938-25,13.125l-14.531-25.313C266.406,116.031,275.938,111.109,284.063,106.922z M248.438,161.406
	c-8.438,6.094-14.531,10.938-21.875,17.031l-18.906-22.188c7.813-7.031,17.031-13.734,24.063-19.172
	C236.719,145.313,242.813,153.406,248.438,161.406L248.438,161.406z M185.313,177.031l20.781,20.469
	c-6.563,7.031-13.438,14.375-18.594,20.781l-22.656-18.594C171.406,191.563,179.219,183.125,185.313,177.031L185.313,177.031z
	 M634.844,205.781c6.875,7.656,14.219,16.094,19.688,23.281l-23.125,17.813c-5.781-7.5-12.5-15.156-18.125-21.25L634.844,205.781z
	 M146.5,224.063l23.969,16.563c-5.313,7.969-10.469,16.563-14.703,23.594l-25.391-14.375
	C135.516,240.938,141.109,231.406,146.5,224.063z M672.031,254.063c5.625,8.75,11.094,18.594,15,26.719l-25.938,13.125
	c-4.688-9.063-8.75-16.25-13.75-24.219L672.031,254.063z M116.563,277.031l26.547,12.188c-3.953,8.906-7.703,18.281-10.406,25.781
	l-27.5-9.688C107.781,295.313,110.891,285.625,116.563,277.031L116.563,277.031z M699.375,308.75l0.156,0.156v0.156
	c3.438,9.531,6.875,19.219,9.219,29.063l-28.125,7.344c-2.813-9.219-5.625-18.594-8.594-26.406
	C681.25,315.938,690.313,312.344,699.375,308.75L699.375,308.75z M96.359,334.375l28.25,7.344
	c-2.266,9.375-4.234,19.219-5.625,27.344l-28.781-4.844C92.141,353.75,94.016,342.813,96.359,334.375L96.359,334.375z
	 M715.156,367.969c0.938,10.469,2.5,21.25,3.125,30.625l-29.063,1.563c-0.469-9.063-1.719-18.125-2.813-27.188
	C695.156,371.094,705.781,369.531,715.156,367.969L715.156,367.969z M86.75,394.844l28.766,1.563c-0.797,9.375,0,18.594,0,27.969
	l-29.172,1.094C86.109,414.844,86.344,403.906,86.75,394.844L86.75,394.844z M689.375,427.813l29.219,1.563
	c-0.625,11.563-1.406,19.844-2.813,30.469l-28.906-3.906C688.281,446.563,688.906,437.188,689.375,427.813z M122.609,479.375
	l-28.422,6.719c-2.359-9.844-3.828-20-5.188-30l28.938-3.906C118.672,461.094,120.766,471.563,122.609,479.375L122.609,479.375z
	 M681.719,482.969l28.438,6.719c-2.188,10-5,19.531-8.125,29.219v0.156l-0.156,0.156c-9.219-3.281-18.438-6.25-27.656-9.219v-0.313
	C677.188,500.938,679.844,492.031,681.719,482.969L681.719,482.969z M130.297,505.938c3.375,9.688,6.609,17.344,10.344,25.781
	l-26.469,12.188c-4.625-9.063-7.875-18.75-11.203-28.438C111.734,512.344,122.5,508.906,130.297,505.938L130.297,505.938z
	 M664.219,536.094l26.875,11.406c-4.375,10.469-8.75,18.438-13.281,27.5l-25.625-13.906
	C656.719,552.969,660.781,543.594,664.219,536.094L664.219,536.094z M153.563,556.094c5.031,8.125,10.188,16.719,15.344,23.125
	l-23.406,17.5c-6.406-8.75-12.859-18.125-17.391-25.625C135.406,565.625,145.109,560.625,153.563,556.094z M637.969,585
	l24.219,16.25c-6.406,9.531-11.094,16.25-17.656,24.531l-22.969-17.969C627.344,600.469,632.656,592.813,637.969,585z
	 M186.563,600.625c6.25,7.031,12.969,13.594,19.688,20l-19.844,21.406c-7.5-7.031-15.313-15-21.563-21.563L186.563,600.625z
	 M603.281,628.75l21.25,20.156c-7.969,8.125-14.531,14.688-22.188,21.25l-19.063-22.031
	C590.313,641.563,597.656,634.844,603.281,628.75L603.281,628.75z M227.5,638.438c7.344,5.625,15,11.094,22.969,16.25
	l-15.938,24.531c-8.594-5.469-16.563-11.406-24.688-17.5L227.5,638.438z M561.563,665.313l16.719,23.906
	c-8.438,5.938-17.656,11.875-25.469,16.406l-14.688-25.313C547.188,675.156,553.438,670.938,561.563,665.313L561.563,665.313z
	 M274.688,669.063c8.125,4.688,16.563,8.75,25.156,12.656L287.5,708.281c-9.063-4.375-18.125-8.75-27.031-13.594L274.688,669.063z
	 M513.438,692.656l11.719,26.719c-9.375,4.375-19.063,7.656-28.906,10.781l-8.594-27.969
	C496.406,699.688,505,696.406,513.438,692.656z M325.938,692.813c9.063,3.438,18.438,6.563,26.25,9.063L344.063,730
	c-10-3.281-20.313-6.563-28.906-10.156C318.75,710.938,322.5,701.094,325.938,692.813z M379.063,708.438
	c9.375,1.719,18.906,2.813,27.188,3.438l-1.563,29.219c-10.625-1.406-21.563-2.188-30.938-3.906L379.063,708.438z M460.938,708.75
	l5.156,28.75c-10.313,2.5-19.688,3.594-30.781,3.594l-1.406-29.063C442.969,711.563,451.875,710.156,460.938,708.75L460.938,708.75z
	"/>
</svg>
