<svg xmlns="http://www.w3.org/2000/svg" xml:space="preserve" width="612" height="792" viewBox="0 0 612 792">
  <g fill-rule="evenodd" clip-rule="evenodd">
    <path d="m401.2 176.3-.3 2.2-.9 8c0 .5-.7.9-.9 1.4-.5 1.3-.8 2.7-1.4 4-.6 1.4-1.5 2.6-2 4-.3.7-.1 1.5-.2 2.5-3-.6-5.7-3.6-8.7-.4 1.9 2.6 4.8 1.4 7.3 2l-.5 4-2.5.3a1037.2 1037.2 0 0 0-7.5 1.2c-1.4 1.8-3.3 3.5-3.8 5.5-.7 3-1.2 6-3 8.7-1 1.7-2.5 3.3-1.8 5.6-2 .2-2.6-1.1-3.7-2.4l2.3-2.4a6.4 6.4 0 0 1 1.3-6.2c1.2-1.5 1.8-3.5 2.6-5.2 1-2-.2-3.7-2.3-3.9-2.5-.2-4 1-4.5 3.6-.3 2-.8 2.7-2.4 3.9-.8-2.1-.4-4 .6-6.1-.7-.6-1.3-1.2-2-1.4-1.8-.6-2.6-2-3.6-3.4-.7-.9-.8-1.8-.3-2.8.8-1.5 1.6-3 1.4-4.7 0-1 .5-1.5 1.4-1.6l6.5-.9 1.7-.3c0-1 0-2 .2-2.9l.6-4.3c.1-1 .1-2-.2-3a8.4 8.4 0 0 1 0-5.5c.2-.6.6-1.4.4-2a8 8 0 0 1 0-6.5c.2-.5.2-1.3 0-1.8-1.4-3-.6-6.3-.8-9.4 0-.9.4-1.7.5-2.6.1-.9.3-1.8.2-2.6l-.7-5c-.1-1.7.2-3.5-.7-5.2-.4-.7 0-1.7 0-2.6.3-1.6.6-3.1.7-4.7 0-1.9-1.4-3.3-3.3-3.5-.8-.1-1.8-.3-2.4 0-2.6 1.5-4-.1-5.5-2 .2-.6.3-1.3.6-1.9 1-1.6 1-3.2.4-4.9-.6-1.7 0-2.6 1.8-2.8h3c1.3-.2 2.7-.6 4-.7 1 0 2.3-.2 3.2.2 3 1.4 6.3.8 9.3 0 2.2-.5 3.6.1 5.1 1.1a25 25 0 0 1 3.1 2.4c.5.4 1.2 1.1 1.1 1.6-.4 2.4 1.2 3.9 2.2 5.6 1.5 2.7 3.1 5.3 4.8 7.8.6.9 1.5 1.8 2.4 2 2.3.5 3.6 2 4.9 3.6-.8 2.3-.3 4.3 1 4.6 1.2.3 2-.5 3-3 .1-.2.3-.3.5-.3 2.1-.1 3.4.4 3.4 1.5 0 1.5-1.3 2.2-2.4 2.8l-1.8.5c0 .7 0 1.3.2 1.8a35 35 0 0 0 1.7 4.1c.3.6 1 1.4 1.4 1.3.6-.1 1.6-.8 1.7-1.3 0-2.3.8-4.3 1.8-6.2.1-.2.2-.7 0-.9-1.2-1.8.2-3.2.6-4.9.5-2.1.4-4.5.3-6.8-.1-1.3-.7-2.6-1.2-4-3.8.7-7.3-.9-11-1.7 0-1.5.9-2 2-2.3 2-.3 2.4-1.5 2.3-3.2v-2.7l-1-2.3c.6-.5 1-1.2 1.6-1.3 1.8-.2 2.3-1.6 3-3 .7-1.2 1.2-2.4.2-3.8-.2-.4-.2-1-.1-1.5.2-1.2 1.2-1.5 2.2-.7 1.6 1.2 2 4.2.8 6.2-.8 1.4-.8 1.4.2 3.3 1.6-.5 3.3-1 5-1.3.8-.1 1.9-.2 2.4.3 2.5 2 5.1 1.1 7.7.8.6 0 1.2-.6 1.7-.5 3.6.8 5.7-1.4 7.7-3.4 0-2-.2-3.6-.3-5.3 0-.5 0-1.2.3-1.4 2.4-1.9 2.1-5 3.7-7.5h3.5c-.5 2.5-.7 5-2 7.1l-1 2.1c-.2.8-.7 1.7-.7 2.5 0 1.4-.7 2.3-1.5 3.4-1.2 1.6-2 3.5-3 5.3-.2.3.3 1 .7 2 2-4.2 5.8-3.6 8.8-4.6 1.3-.4 3.2.6 4.7 1.3 1.1.6 1.9 1.7 1.8 3.2v3.9c-.1 2.2-.5 4.6 2.4 5.8-1.5.7-2.9 1-3.8 1.9-1 .7-1.5 2-2.5 3.2-1-1.6-.9-3-.4-4 .5-1.3 1-2.3.1-3l-6.6-1c-.7-.2-1.2-1-1.7-1.5l-3-3.7c-2.3 2-1.3 5-2.7 6.6l-9-.6c-.2 1.2-.4 2-.4 2.7l-.4 11.9c0 .8.2 1.7.5 2.6 1.2 2.8 1 5.5.1 8.3-.4 1.4-.3 3 .1 4.4a8 8 0 0 1 0 6c-.3.7-.2 1.4-.3 2.1-.2 2.7.5 5.6-.7 8.2-.3.5.3 1.3.3 2 .1 1.3.5 2.6.1 3.8a10 10 0 0 0 0 7c.2.4.4 1 .2 1.3-1.4 3.2-.6 6.5-.8 9.8 0 3-.4 3.4-3.3 3.6l-4.4.1c-5 .4-6.3-4.4-9-7-.9-.7-.8-2.4-1.2-3.6-.2-1-.3-2-1-2.7-2.8-3.8-4.5-8.3-7.2-12-.6-1-1.5-1.6-2.3-2.3l-.7.4zm-6.2 14.2c-1.8-2.3-1.5-4.3.8-6 .4-.3.4-1 .6-1.6.2-.6.2-1.3.5-1.7 2-2 1.1-4.8 2.1-7.2.2-.3 0-1-.3-1.4-.8-2.3-1.7-2.4-3.5-.6-.3.3-.9.4-1 .5 1.5 4.3.6 6.8-2.5 8.4l-2 8.7c-.4 1.3.7 2.2 2 1.9l3.3-1zm-1.3-24.4v-1.5c0-1.7-.8-2.8-1.8-2.6-1.3.3-1.6 1.3-1.6 2.5 0 .8 0 1.7-.4 2.3-2.5 3.2-2.5 7.3-4 11-.1.4-.2 1 0 1.4.4.7 1 1.4 1.7 1.7.3 0 1.4-.8 1.6-1.4l1.9-7.4c.1-.5.4-1 .8-1.5a7.7 7.7 0 0 0 1.8-4.5zm-6.4-14.8c-2.4 1-2.9 2.5-2 4.8l1.6 4.7c.2.5 1 1.2 1.3 1.2 1-.2 1-1 .8-1.9-.4-1-.4-2-.6-3.1l-1.1-5.7zm11.1 35.4c-.4-.3-.7-.7-1-.7-.2 0-.7.6-.7.6.2.4.6.7.9 1l.8-.9zM100.4 305.3c2.8 3 6.3 1 9.7 2.2.3 3 .2 6.1 0 9.3 0 1-.9 1.7-2 1.8H76.4l-2.6-.1c-.3-3.5-.2-6.8 0-10.4l4-.2c3 0 4.3-1.5 4-5-.2-4.8 0-9.7 0-14.5l-.2-4.7a19031.1 19031.1 0 0 1 .2-37.3c.4-2.8-1.3-4.5-4-4.2-1.3.2-2.5 0-4.2 0V234c0-1 .6-1.4 1.5-1.4h34.6c.5 2.4 1 4.6 1.3 6.8.2 1.3-1.6 2.9-3.1 3l-3.3.1c-1.3.2-2.5.5-3.7 1-1.2.6-1.8 1.7-1 3 .5 1 .7 2 0 3-.1.4-.3.9-.2 1.2 1.5 5.5.4 11 .6 16.8 2.2.8 4.3 2.3 7 .7.7-.3 1.6-.1 2.4-.1h17.5c.8-2.3 1-20.3.3-24.6l-4.6-.2c-2.5-.1-3.6-1.5-3.3-4l.3-4.2c.1-1.7.7-2.3 2.4-2.5h1.5c2.6-.2 5.3.4 7.9-.8.6-.3 1.4-.2 2 0 4.5.8 8.8-.5 13.2 0l3 .2h2.2c1 0 2-.3 3-.2 1.2 0 2 .7 2.1 2v8.4c-2.4 0-4.2 1.4-6.6.8-1.7-.5-3 1.3-3 3.5l-.1 14.6v42.7c0 2.6.6 3.1 3.1 3.2.7 0 1.5-.1 2.1.1 1 .3 2 .8 2.8 1.4 1 .6 1 1.6.3 2.6-.1.2-.2.6 0 .8 1.5 2-.4 3.8-.4 5.7 0 1.3-1.4 1.7-2.5 1.5-3.2-.6-6.2 0-9.4.3-3.8.4-7.9 1-11.7-.5-.4-.2-.9-.3-1.2-.2-2.5.9-5.2-.6-7.8.7-1.6.8-3.8-1-3.8-2.9V310c0-2.3 1.5-3.7 3.7-3.9h.9c4 0 4.2-.2 4.3-4.1 0-2.4-.4-4.7.6-7 .4-1-.6-2.5-.6-3.8V280l-2.5-.3h-21.5c-3 0-3.5.5-3.5 3.5v6.6c0 2.2 0 4.4-.6 6.7-.5 2 .4 4.2.6 6.4v2.4zM182.9 432.5l-.9.4c-5.3.4-10.6.8-16 1h-15.8c-3.3 0-4.5-1.6-3.5-4.7.3-1 .6-1.7.1-2.8-.5-1.2 1.1-3 2.8-3.2h2c3-.1 4.4-1.3 4.7-4.2v-47.2c0-1.3-.4-2.5-.6-3.8l.2-1.6c0-.7.5-1.6.2-2-1-1.2-.4-2.2.3-3.3-1.5-1.6-2.7-2.9-5-1.9-1.9.8-3.8-1.1-3.4-3.3.3-1.8.4-3.4-.4-5.2-.6-1.3 1-3.3 2.6-3.6.7-.2 1.4-.1 2.1-.1h13.8c2.4 0 4.8-.1 7.3.6 1.7.5 3.7 0 5.5-.4 3.7-1 6 .6 6 4.3l-.3 3.2-.1 1c0 2.6-1 3.7-3.6 3.8h-5.4a34.6 34.6 0 0 0-.7 16.3c.2.7 0 1.6-.2 2.2-.8 1.7-.2 3.1.5 4.6a2.7 2.7 0 0 0 2.6 1.6h22.1c2 0 3.5-1.6 3.6-4v-16.5c0-2.9-1.6-4.2-4.6-4.2-1.7 0-2.8-.7-3-2.2-.6-2.8-1-5.6.4-8.4.6-1.3 1.5-2 3-2h29c2.2.1 2.8.8 2.9 3v6.6c0 2.3-.7 2.9-3.1 3h-3.6c-2.3.3-3 1.2-3 3.5V419c0 2.8.5 3.3 3.2 3.4h3c2 .2 3.1 1.7 3 3.7l-.4 4.1c-.2 2.3-1.5 3.8-3.7 3.8h-29c-1.7 0-2.8-1.1-3-3v-5.2c0-1.5.9-2.4 2.4-2.5h1.5c4-.1 4-.3 4.1-4.4v-21c-.1-2.4-1.4-3.7-3.7-3.8h-20.6c-2.7 0-4 1.4-4 4.2v13.7c0 .9.4 1.7.5 2.6.1.6.5 1.3.2 1.7-1.3 1.8.3 3.4.3 5.1 0 1.2 1 1.8 2.3 1.8h3.6c2 .2 3 .9 2.8 3-.1 2.1-.7 4.3-1 6.4zM324.3 422.3v-17.8c0-2-.3-4.2.8-6.1.3-.6.2-1.4.2-2v-33.8c0-3-.9-3.9-3.9-4h-3.8c-2.5-.2-3.9-1.6-4-4v-3.9c0-2.5.8-3.4 3.3-3.7h42.6c4.6-.1 8.2 2 11.7 4.5a5 5 0 0 1 1.4 1.9c1.6 3.4 3.3 6.8 3.6 10.8.2 2 .9 4 .7 6.2a21 21 0 0 1-6 14c-.8.8-1.7 1.4-2.6 2L365 388c-.6.4-1.4 1.4-1.2 1.7.3.7 1.1 1.3 1.9 1.5 1.4.5 2.9.5 4.3 1 4.3 1.2 6.9 4.4 9 8 .5.8.5 1.8.5 2.6v11.4c.2 2.7.2 5.6 1 8.1 1.1 3.1 3 5.9 5.8 7.8l1.3.8c1 .9 1 2-.3 2.6-.7.3-1.6.4-2.3.4-4.6 0-9.2.2-13.8 0a19 19 0 0 1-6.2-1.5c-4.3-1.8-5.8-5.7-6-9.9-.3-5.4 0-11 0-16.4 0-5.6-2.8-9.5-7.6-11.7a7 7 0 0 0-6.4.4c-1.2.7-1 1.8-1 2.8v21.8c0 2.3 1.9 3.8 4.1 3.4 2.9-.4 3.8.4 3.9 3.2v3.6c-.3 2.6-1.3 3.4-3.9 3.5h-23.9c-1.2 0-2.5.2-3.7.6-2.8.7-4.5-.3-5.2-3.1-.3-1.4-.7-2.7-.8-4-.1-3.3.8-4.2 4.2-4.3h5.5zm19.7-49.6v10.1c0 1.6.4 3.1 1.8 3.8 2.8 1.3 6.8-.2 8.2-3 .8-1.6 1.5-3.3 2-5 2-5.5 1.1-9.5-.8-14.5-1.1-2.9-2.7-4.8-6-5.3-2.7-.3-5.1 1-5.2 3.7v10.2zM476.2 318.6c-3.7 0-7.1.4-10.7-.4-2.3-.5-4.9-.7-7 0-3 .7-6 .2-8.9.5-1.4-1.8-2.3-3.4-1.1-5.6.2-.4 0-1-.1-1.6-.7-2.2.5-4.1 2.8-4.4h1.2a5 5 0 0 0 5.3-2.3v-56.6c0-3.5-.3-3.8-3.6-4-.8 0-1.6 0-2.3-.3-1.3-.5-2.2-1.2-2.1-2.9v-5.6c.1-2 .8-2.8 2.8-2.8h20.3c1.2 0 2.2.3 2.6 1.5 1.3 3.7 4 6.5 5.8 9.9l1.7 3.1c1.8 4.4 4.8 8 7.2 12l5.8 9.5 3.2 4.7 2.2 3.5c.5.8.8 1.8 2.5 1.5 0-1 0-2 .2-3 .2-3.3-.8-6.8.8-10v-.6c-1.4-2.7.1-5.3 0-8v-8.4c0-2.7-1.3-3.8-4-4.1-1.8-.2-3.6-.6-5.7-1v-8.5c.1-1.6 1.3-2.1 2.8-2.1h22.4c2.7 0 4.5 2.5 3.9 5.2-.2 1-.5 2-.5 2.9-.2 2.7-.8 3.1-3.5 2.8a6.9 6.9 0 0 0-3.5.2 3.3 3.3 0 0 0-2 3.4v5.7c0 1.4-.4 2.8-.7 4.3 0 .6-.3 1.2-.1 1.7.8 2.2 0 4.4 0 6.6 0 1.3.4 2.7.6 4 .1.6.3 1.2.2 1.8-.2 3.5.4 7-.8 10.4-.3 1-.1 2.2 0 3.3.2 3.9.7 7.8.8 11.6.2 4 0 7.8 0 11.7 0 1.2-.5 2.5-.6 3.7 0 1-.2 2 0 2.9.7 2.5-.1 3.7-2.6 3.9-1.6 0-3.2.3-4.7.3-1.6 0-3-.2-4-1.8-3.2-4.5-6-9.1-8.8-14-.7-1.2-1.7-2.3-2.4-3.6-1-1.5-1.7-3-2.6-4.6l-7.5-11.7c-.4-.5-.7-1.2-1-1.8l-7-12c-.3-.5-1.2-1.2-1.6-1-.6.1-1.2.8-1.5 1.5-.2.7-.1 1.6-.1 2.3v9c0 .8 0 1.7-.3 2.3-.6 1-.4 1.8 0 2.8.4.8.3 1.7.3 2.6v14.6c0 2.9.4 3.2 3.3 3.4 2 .2 3.4 1.4 3.3 3.1 0 2.7-.4 5.3-.7 8.5zM330 131.4l5.2 15c.4 1 1.3 2 2.2 2.6 2.3 1.7 2.3 1.6 1.6 4.2a3 3 0 0 0-.2 1.5l1.2 4.2c1.1 4 3 7.8 4.5 11.8.2.4.4.9.4 1.4.2 2.6 1.3 4.5 4.3 5 0 .9.4 1.8 0 2.4-1.5 3.2.5 5.7 1.8 8.3 1.4 2.9 4.1 3.7 7 4 1.8.2 2.7 1.4 3 3.5l.8 4.6c.2 1.2-.8 4.2-1.8 4.8-.4.2-1 .3-1.4.2-1.9-.1-3.8-.5-5.6-.5h-32.8c-.4-4-.3-7.6-.2-11.5l3.4-.2h2.4c2.5-.4 3.5-1.9 3-4.2l-1.9-5.7c-.5-1.4-1.8-1.5-3.2-1.5H310c-1.5 0-3-.3-4.4-.5-2-.4-5.8.8-6.3 2-.9 2.1-1.6 4.2-2.3 6.4-.4 1.3.6 2.4 2.2 2.6h3.8l3 .6c1.1.3 1.6 1.2 1.6 2.4v6.6c-.1 2.1-.8 3-3 3h-26.8c-1.9 0-3-1-3.1-3-.2-2-.2-4 0-5.9.2-2 1.3-2.8 3.4-2.8 1.8 0 3.6.3 5.3-.8.4-.4 1.2-.6 1.4-1 .8-2 1.9-4 2.1-6.2.3-2.7 1.8-5 2.7-7.4.3-.7.8-1.4 1-2.1.3-1.3.3-2.8.9-4 1.5-3.6 2.2-7.5 4.2-11 1-1.8 1.4-4 2-5.9l.4-1.4 5.5-13.7 2-5.5c.9-3-.2-4.6-3.4-4.7-1.2 0-2.4.2-3.6 0-.9-.2-2-.7-2.4-1.4-.6-1.6-1-3.4-1.1-5.2-.3-2.8 1.6-4.4 4.4-4h2.6l2.4.1c3 1 5.8 1 8.7 0 .8-.2 1.6-.2 2.4-.2H335c3.2 0 3.7.5 3.7 3.6v4.2c0 2-.8 2.7-2.9 2.9h-1.5c-2-.2-3.4.6-4.4 2.4zm-25 38.4c.4.3.5.5.7.5 4.6.1 9.2.2 13.7.1 2 0 2.6-1.2 1.9-3.3l-6-17c-.4-1.1-.6-2.6-2.4-3-3.5 7.3-6 15-8 22.7zM315.5 243.3V235c0-1.5 1-2.3 2.5-2.4h3c4.2.3 8.4-.5 12.6-1 .5 0 1.1 0 1.4-.4 1.3-1.5 2.6-1 4-.2 1.6 1 3.4 1.2 5 .1 1.7-1 3.3-.6 5 0 .8.2 1.8.5 2.8.6l11.2.9c.4 0 1 .2 1.4.5 1.6 1.2 3.3 2.4 4.8 3.8 1.6 1.5 3 3.2 5.6 3 .4 4 2.2 7.5 1.3 11.4v1.5c1.5 3.4 1 7 .7 10.3-.2 3.3-1 6.6-2 9.8-.4 1.6-2.2 2.8-3 4.3-1.6 3.7-5.4 4.7-8.3 7a33.3 33.3 0 0 0-4.7 4.4c-.8 1-1 2.3-1.4 3.5-.3.7-.3 1.5-.7 1.9-.4.3-1.3.4-1.9.3-.3 0-.6-1-.5-1.4.1-1 .5-2 .9-2.9.6-1.2.2-2.2-1-2.5a20 20 0 0 0-4.7-.7c-4.3 0-5.4 1.1-5.5 5.5v11c0 3.2.5 3.7 3.6 3.7h2.7c3.5.1 5.2 2.4 4.2 5.8-.2 1-.4 2-.4 2.9.2 2.1-.4 3-2.5 3H325c-2 0-3.9 0-5.8.7-2.7 1-3.7-.3-4.8-2.8-1-2.3 0-4.4-.2-6.5-.2-1.7 1.3-2.9 3-3h2.7c4.5 0 5.4-1 5.4-5.5v-41.8c0-1.5.4-3 .5-4.4l.2-.6c-1-1.7-.1-3.3 0-5 .4-4.6-.5-5.7-5.3-6.4-1.5-.3-3.1 0-5.2 0zm39.5 8c.2-1 .5-1.7.4-2.5 0-.6-.2-1.4-.7-1.8-1.7-1.2-3.2-2.8-5.5-3.3-2-.5-4.5.7-4.1 2.7.5 3 .4 5.7 0 8.7v5.6c0 4.5-1 9-.2 13.4.4 2 2.2 3.3 4.1 2.5 5.2-2.2 8.9-5.6 9.2-11.7v-5.2c.3-3.4-.4-6.3-3.2-8.5zM162.5 318.4V311c0-2.7 1.9-4.4 4.5-3.8 2 .5 2.8-.4 3.5-1.8l4.4-11c1.5-3.7 2.1-7.7 4-11.4 1.5-2.7 2-5.9 3.1-8.8l6.8-18.6c1-2.8 2-5.6 2.8-8.4.3-1.1 0-2.3 0-3.9h-4.3c-2 0-3-.8-3.4-2.9-1.2-6 1-8.7 7.2-8.7h21.5c4.1 0 5.2 1 5.2 5v3c-.2 2-1.6 3.5-3.7 3.6h-3c-2.1.4-2.7 1.8-1.6 3.7 1 1.9 2 3.9 2.8 5.8l6.2 15 2.9 7.2 2.4 6c2.8 6.7 6 13.1 8.3 20 .7 1.8 2 3.5 3 5 .5.6 1.4.9 2.1 1 .9.2 1.8 0 2.7 0 2 .2 2.7.9 2.7 2.8.1 3 .3 5.8-1.4 8.7l-2.4.2h-30.5c-1.4-.2-2.2-1-2.2-2.4v-6.6c0-1.8.8-2.5 2.6-2.6h2.4c2-.4 2.6-1.9 1.6-3.5-.4-.5-.9-1-1.1-1.5-1.8-3.8-3.4-4.7-7.4-3.6-1.2.3-2.2.5-3.3 0-.6-.4-1.4-.2-2-.2H191c-2.5 0-5.1-.2-7.7 1.5v7l3 .3c2.2.4 3 1.2 3 3.6v4.5c0 2.2-.7 3-2.9 3.4h-21.8l-2.1-.2zm34.2-49.4c-.6 1-1.1 1.6-1.3 2.2-2 4.5-3.8 9-5.6 13.7-.9 2.3-.2 3.4 2.2 3.5h11.6c.7 0 1.4-.5 2.1-.8-2.4-5.6-4.6-11-7-16.3-.3-.7-1-1.3-2-2.3zM395.1 358.6l-.4-1.3c.3-2.8.3-5.6 0-8.4-.2-1.4.6-2 2-2h43.2c1.3 0 2.5-.3 3.8-.5.3 0 .7-.3.8-.2 2.1 1.2 4.5.1 6.6.8 1.9.5 2.2 1 1.8 2.8l-.4 3v12c0 .9-.3 1.8-.5 2.8-.4 1.1-1.2 1.7-2.5 1.6h-4.8c-2.2 0-2.8-.7-3-2.9v-3.8c0-3-1.8-4.2-4.6-3.4-.6.2-1.3.4-1.7.2-1.7-1-3.2-1-4.8 0a2 2 0 0 1-1.5 0c-1.8-.7-3 .2-4 1.7.9 2 1 4 0 6.2-.4 1.2-.1 2.6-.1 3.9 0 2 1 4 0 6-.1.3.2 1 .2 1.4l.7 4.3 1.2 1.2c1.5 0 3-1.6 3-3.3v-4.8l.2-2.7 4.3-1.3c2-.5 4.2 1.5 4 3.5l-.3 5.3v19.4c0 3.1-.6 3.7-3.7 3.7h-1.5c-2.2-.1-3-.9-3-3.2l.3-1.8c.3-1.6.1-3.2-1.2-4.3-1.6-1.3-2.7.3-4 .8v27H437c2.4-.1 3.8-1.4 3.8-3.9v-6.8c0-3 .6-3.5 3.6-3.5h6c2.6.1 3.3 1.2 2.6 3.6-.3 1-.4 2-.4 3v10l-.5 3v1.9c.7 2.1 0 3.3-2.1 3.4h-53.1c-1.3-.1-2.2-.9-2.2-2.3v-6c0-1.6.7-2.2 2.4-2.4h3.6c3.4 0 4.6-1.2 4.6-4.7V367c0-1.6.2-3.2.3-4.7.2-2-1-3.5-3-3.6h-7.5z"/>
    <path d="m420.5 280.8-2.8-.2c-2.8 0-3.4.5-3.4 3.2.1 5.5.4 11 .3 16.4 0 1.7-.5 3.4.5 5.1.8 1.2 1.5 1.8 2.9 1.8h8.4c2.4-.1 3-1 3-3.5.1-2.3.8-4.6 1.2-7h9.8c.7 2.2.8 18.9 0 21.9l-2.7.2h-12.3c-1.5 0-3 .5-4.6.7h-2.4c-1.7-.2-3.4-.7-5.2-.7h-24.5c-3.4 0-3.9-.5-3.8-4V309l.2-.5c2.8-2 6.1-1.2 9-1.7.5-1.5 1-2.8 1.3-4.2.1-1 0-2.1-.2-3.2-.1-.6-.6-1.1-.5-1.7 0-1.7.8-3.6.4-5.2-.4-1.7-.3-3.1.2-4.8.4-1.3.2-2.8.2-4.2 0-3.2-.9-6.3 0-9.5-1.4-3.3-.8-6.7-.8-10 0-1 .3-2.1.5-3.2 0-.5.4-1 .2-1.4-1.5-3.7-.5-7.5-.8-11.2v-2.4c-.1-1.6-.8-2.3-2.4-2.4l-4.5-.1c-2.2-.1-2.8-.7-2.8-3 0-1.5-.2-3.1 0-4.7 0-1 .3-2.4 1-3 1.5-1.4 1.8-3 1.6-4.8l.3-1h2.7c-1.3-2.2-1.8-4.2-.5-7l1.7 2.3c1.6-1.4 1.6-1.4-.2-5.8 2-2.3 4.2-2 5.6 0l-1.6 5c-.7 2.8-2.4 4.9-4.3 7-1.3 1.3-1.2 1.9.5 2.8 1.3.7 2.5.8 3.7.2 1.6-.8 3.1-.7 4.7 0 2.5 1 5 1.3 7.8 1.3h32.8c0 1 .2 2 .3 2.8v10.4c-.2 1.9-.6 3.7-1 5.5-.2.6-1 1.5-1.6 1.6-2 .1-4 .2-6-.1-2-.4-2.1-1-2.3-3.2 0-1.4-.4-2.9-.7-4.3-.4-1.4-1.5-2-3-2h-8.3c-2.4.1-3.8 1.4-3.8 3.7 0 2.5.4 5 .4 7.5 0 2.7-.3 5.5-.4 8.3 0 1.3.2 2.7.4 4 .4 2.4 2.7 3.5 4.6 2.2a3 3 0 0 0 1-1.9c.2-1.4 0-2.8.1-4.2.1-2.4 1.3-4 3.8-3.8 2.7.3 2.7 0 5.2 1.7-.2 3 0 6-.6 9-.7 3.5-.7 7.3.2 11 .5 1.8.5 3.9.3 5.8-.2 2.2-1.2 2.8-3.5 2.8h-2.4c-1.7-.3-3-2-3-3.6v-5zM287 307.3c0 3 .2 5.8 0 8.5-.1 2-1.3 2.9-3.4 2.9h-23.3c-.9 0-1.8-.2-2.6-.5a5.2 5.2 0 0 0-3.7.1c-3 1-4.3 0-4.4-3.2 0-1 .2-2.2 0-3.3-.5-2.8 1.2-4.1 4.4-4.7h1.8c2-.2 2.7-.8 2.7-2.8v-6c.1-2.5-.3-5 .8-7.3.4-1 0-2.4 0-3.6-.2-1.7-.7-3.4-.7-5.2v-35c0-3.5-.5-3.8-4-3.9-1.9 0-3.7 0-5.6-.2-1.5 0-2-1-2-2.4v-3.9c.2-1.2.8-2.4 1.1-3.7.4-.2.7-.4 1.1-.4 6.2-1 12.4-1.2 18.7-1 9.3.5 18.6 1 27.9 1 3.7 0 6.7 2.5 8.7 5.6 1.8 2.6 3.2 5.5 4.2 8.4 1 2.8 1.3 5.8 1.5 8.7a34 34 0 0 1-1 12.3c-1.3 4.7-2.4 9.7-6.7 13a23.2 23.2 0 0 1-11 5.2l-12.3 1.8c-2.5.4-2.7.7-2.7 3.3v12.5c0 2.4 1.5 3.7 4 3.5h3l3.6.3zm-6.5-30.4c3.9 0 6.5-1.8 8.3-5.2 2-3.9 1.6-8.3 2.6-12.3.1-.6-.2-1.2-.3-1.8-.2-1-.5-1.9-.5-2.9-.1-5.3-3.4-9.7-8.5-11.2-2.7-.7-4.2 0-5.2 2.5-.3.9-.4 2-.4 3V273.6c0 2.6.6 3 3.1 3.2h1zM303 348.6c-.2 1-.7 2.1-.2 3.5.4 1.2-.5 2.8-.5 4.3v9.2c-.1 3.4-.9 3.9-4 3a4 4 0 0 0-2 0c-3.6 1-5.5-.1-5.7-4v-3.2c-.1-2-.7-2.8-2.7-2.8h-12.2c-2 0-2.8.7-2.8 2.7v19.4c0 2.9 2.8 4.3 5 2.6a3 3 0 0 0 1-1.9c.2-1.2.1-2.6 0-3.8 0-1.3.5-2.3 1.7-2.5 1.9-.4 3.9-.5 5.8-.4 1 0 1.7 1.1 1.6 2.2-.4 3 .4 6.3-.2 9.2-1 5-.4 10-.7 14.8 0 .8.1 1.8-.3 2.3-.4.7-1.3 1-2 1.4l-.7-.1c-1.2-.3-3.2-.2-3.7-1-.9-1.5-1-3.5-1.4-5.3-.2-1.2 0-2.5 0-4l-3-.2c-2.4 0-3 .7-3.1 3v21.2c0 2.7 1.3 4 4 4 2.6.1 5.2.2 7.8 0 1.5 0 3-.6 4.6-1.1 1-.4 1.3-1.4 1.3-2.4V413c0-2.4.6-2.9 3-3.2 1.6-.2 3.3-.7 5-.8 3-.2 3.6.6 3.6 3.6v17c0 2.9-.6 3.4-3.5 3.5-2.8 0-5.6-.5-8.3.7a2 2 0 0 1-1.4 0c-2.6-1.2-5.3-.7-8-.7-4.6 0-9.1-.2-13.7 0-6.3.2-12.7.3-19 .9-4.6.4-5.9-2.2-5.8-5.9v-1.8c.1-2.6 1.5-4 4.1-4h4.2c2.7 0 3.3-.6 3.3-3.4v-6c.2-3.8.1-7.6.7-11.5.7-5.2.8-10.6 0-15.8-.9-5.3-.4-10.6-.6-16 0-2.2.7-4.4.7-6.7.2-3-1.1-4.3-4.2-4.3h-4.5c-2.4 0-3.4-.8-3.6-3a32 32 0 0 1 0-5.4c0-1.6 1.5-3 3-3.2h53.2c1.6 0 3.3-.4 4.3 1.6zM257.2 119.2c2.2-3.5 5.7-2.7 9-2.7 1 0 1.8.4 2.6.6 1 .3 1.4 1 1.4 2v22.1c0 .2-.3.4-.6 1h-7.3c-1.5-.1-2.8-1.8-2.8-3.5 0-4.2-2.5-7-5.6-9.2-1-.9-2.7-1-4-1.4h-.4c-7.5-1-12 3-15 9.1a32.2 32.2 0 0 0-3.5 11.5c-.2 2.9-1.2 5.7-1.6 8.6a9 9 0 0 0 0 4.5c.8 1.8.8 3.6.8 5.5 0 4.5.8 8.8 2.2 13l.5 2c1.1 5.5 7.1 11.8 13.4 11.4 2.3-.2 4.5-.4 6.5-1.7.8-.6 1.5-1.4 2.3-2.2.1 0 .1-.4.3-.5 3.5-2.4 3.5-6.3 4-10a3 3 0 0 1 4-2.3 5 5 0 0 0 3.8 0c2.8-1 4.8.7 4.8 3.6v4.2c.9 6.3-2.9 10-7.4 13.4l-.7.5c-4 4.3-9.3 5.2-14.6 6.6-1.8.5-3.6 1-5.5.8-1.6-.3-3.1-.5-4.6-1-4.7-1.4-9.5-2.6-13.2-6.2-1.9-1.8-4-3.3-5.9-5-3.4-3-5.5-7-6.9-11.2-.2-.7-.7-1.4-1-2l-.8-2c-.5-2.2-1.1-4.5-1.5-6.8-.5-2.6-.8-5.3-1.1-7.9-.2-1.4 0-2.8 0-4.2.1-8 1.5-15.6 4.8-23 1.2-2.7 2.7-5.1 4.7-7.3 1.2-1.3 2-3 3.4-4.1 3.8-3.6 8.1-6.2 13.3-7.2.3 0 .6 0 .9-.2 3-1.5 6.3-1.5 9.6-1.6 4 0 7.8.9 11.7 2.8zM527.5 119.1c1.6 3.7 2.1 7 .7 10.7-.5 1.3-.1 3-.1 4.4v5.6c-3 2.4-6.4 1.4-9.7 1.5-.1-1.3 0-2.3-.2-3.2-.3-2.1-.4-4.3-1.1-6.4-.3-.8-1.8-1.4-2.8-1.7a10 10 0 0 0-3.6-.1c-2 .2-3.6 1.8-3.9 3.8v1.8l-.1 52.3c0 3 1 4.6 4.9 4.8 5 .3 5 .3 5 5.2v3.2c-.1 2.7-.7 3.3-3.5 3.4H481.2l-1.8-.1c-1.6-.3-2.6-1.7-1.9-3 1-1.9.7-3.4-.2-5 1.5-2.5 3.3-4.1 6.3-3.7.8.2 1.6 0 2.3-.2 1.4-.5 2.2-1.3 2-2.9 0-2.4-.3-4.8.1-7.1.5-3 .2-5.8 0-8.7-.2-2.3-.1-4.7 0-7.1 0-1.2.4-2.3.6-3.5.1-.6.4-1.4.2-2-.5-1.3-1-2.5 0-3.8v-.3c-1.4-2.6.4-5.1.1-7.7-.3-2.8 0-5.6 0-8.4v-8c0-2.3-.7-3-2.8-3-1.7-.1-3.4-.2-5 0-1 .1-2.1.5-2.6 1.2-1.5 2-2.9 4-2.9 6.7 0 3.1-.5 3.5-3.6 3.6-2 0-4-.4-5.9.6-.3.2-1.5-.7-2-1.3-.3-.5-.2-1.4-.1-2 .2-4-.7-8.2.8-12.2.3-.9.1-2.2-.2-3.2-.5-1.7.4-2.8 1.4-4 1.1-1.2 2.3-1.3 3.7-.4.3.1.7.3.9.2 2.7-1.4 6-.5 8.8-1.9.9-.4 1.7-.8 2.7-.2.7.4 1.6.3 2.4.3 5 .2 10.3-.7 15.2 1.7.6.3 1.5 0 2.3.1h25.5zM368.1 534.2c-1.6 1.3-2.6 1.4-4 1.4-4-.3-8.1-1-12 .5-1.4.4-2.8-.3-3.2-1.6-.4-1.1.2-2.6 1.5-2.8 3.1-.4 3.1-2.4 3.1-4.7v-36.8c0-1.2.4-2.5.6-3.7 0-.5.2-1 0-1.4-.9-2.4-.9-4.8 0-7.2.6-1.6-1.2-4.6-2.7-5.2-1-.4-1.8-1-2.8-1.5 1.2-2.4 2.7-3.5 5.1-3.3 3.2.2 6.4.7 9.5.4 2.5-.3 5 .4 7.4.5.8 0 1.7-.5 2.8-.8 5 2.2 9 6 11.9 11 1.2 2 1.3 4.5 1.6 7a10 10 0 0 1-.6 6c-1 1.9-1.8 4-4 5.2-1.7.9-3.2 2.3-4.8 3.5-1.4 1-1.8 2.5-1.2 4.2 1.5 4.8 2.9 9.6 4.5 14.3 1 3 2.2 6 4.2 8.4.8 1.1 2 1.9 3 2.8l2.7 2.6c2.4-1.4 3.1-3.8 3-7-.1-8.2 0-16.5 0-24.7 0-1.7 0-3.3.7-5 .5-1.5.4-3.4.1-5-.3-1.7.3-3.5-.7-5.1-.4-.5-.2-1.4 0-2 .5-1.6 1.4-3.2.1-4.8v-.5c2-3-.5-4.5-2-6-1.1-1.3-1.1-2.3-.7-3.5.2-.5 1-1 1.6-1l10.4.5h3.1c1 3 .8 3.3-1.1 4.7-1.2 1-2.1 2.2-3.2 3.4 2.1 2.6.7 5.2.7 7.6 0 .9-.2 1.6.2 2.5.2.6.2 1.4 0 2-.5.9-.7 1.6 0 2.4v.3c-1 2.9 1.2 5.8 0 8.6-.2.4 0 1 0 1.4.3 2 .4 3.9-.3 5.8-.5 1.5-.2 3.2-.1 4.7.1 1.4.6 2.7.6 4 0 3.3-.3 6.6-.4 9.8 0 1.3.4 2.6.7 4 1.4.9 2.9 2 4.8.7.2-.2.8-.2 1.1 0 2 1.4 4 .2 5.2-.7 1.4-1 1.8-3.2 2.5-4.9.3-.8.2-1.7.3-2.8.9-.1 1.6-.3 2.4-.2 1.2.1 1.9.6 1.5 2.2-.5 2.7-.7 5.6-1.3 8.4-.2 1.1-1.1 2.1-1.7 3.2l-.4-.5-3.6.4c-.4 0-1 .3-1.2.1-2.2-1.3-4.7-.5-7-.6-1 0-2.1.4-3.2.5-1.3.2-2.9.7-4 .2-3.3-1.3-6.5-.6-9.8-.8a8 8 0 0 1-4.2-1.3c-1.6-1-3.4-2-4.8-3.3-1.6-1.6-3.9-2.9-4.4-5.5-.2-.7-.5-1.3-1-1.9a28.5 28.5 0 0 1-4.4-10.4c-.5-2.1-2-4-2-6.2 0-1.2-.4-2.5-.7-3.7l-.7-2.8c-.6-1.9.4-3.1 2.3-3 5.1.1 8.6-3.1 8.7-8.2v-4c.5-2.6-.4-5.1-2-6.8-2.7-2.9-5.6-6-10.3-5.5-1.2.1-2.2.5-2.4 1.7-.4 2-2.1 4-.3 6.2v.3c-1.8 2.6.5 5 .2 7.6-.3 2.7 0 5.4 0 8.1 0 .8-.4 1.5-.5 2.3-.2 1.1-.9 2.6-.4 3.4 1.2 1.8 1 3.9.5 5.4-.6 2 .9 4-.4 5.7v.6c1.1 2.1-.1 4.2-.1 6.4v7.7c0 1.7 1.4 2.5 2.6 3.3l3.4 2.8zM77.4 529l3.4 2.8c1 .8 2.3.8 3-.5.7-1.2 1.6-2 2.7-3 1-.8 1.6-2.2 1.4-4-.2-1.7-1.3-3.6-.1-5.5.1-.2 0-.8-.2-1-.8-1.2-.7-2.3.1-3.4.2-.3.4-.8.3-1.1-.6-3.1.3-6.2 0-9.4V485.1c0-1 .5-2.1.5-3.2 0-1.2-.4-2.4-.4-3.6 0-1.3.8-2.5.7-3.7-.2-1.1-.6-2.4-2.2-2.9-2.4-.7-2.4-1-2.1-4 1.9-.8 5.6-1 9.6-.4l4.3 11c1 2.4 2 4.8 3.2 7.2 1.3 2.8 3.1 5.3 4 8.2.6 2 1.1 4.1 2.2 6 .4.7 1 1.3 1.6 1.9l.7-.3.3-2.7v-14c0-1.3.5-2.5.6-3.8.1-.5 0-1-.1-1.6 0-.6-.2-1.2 0-1.7.8-3-.2-4.9-3.1-5.8l-.8-.4c-.5-3.6 0-4.2 3.4-4.2.9 0 1.8 0 2.6.3 1.2.5 2.2.4 3.4 0 2.8-1 4.6.7 4.2 3.9l-.8.4c-3.3.5-4.5 1.8-4.6 5.2v30.5c0 3.8.2 7.6-.7 11.5-.8 3.1-.2 6.6-.2 9.8v4c-.1.7-.6 1.5-1 2.5-2-1.4-3.7-2.5-3.9-5.1-.1-2-1.2-3.7-2-5.6l-6.7-16.3c-.5-1.2-1.2-2.4-1.3-3.6-.3-3.6-2.7-6.3-3.6-9.6-.2-1.1-.7-2.4-2.3-2.5-.2.2-.5.4-.5.6l-.2 33.3c0 1.4.4 2.4 1.7 3.2 2.3 1.2 2.3 1.3 1.7 4.5l-1.6-.2c-1-.1-2-.5-3-.4-7.6 1.2-15.4.8-23.1.9H58.3c-1 0-1.8-.3-3.5-.4 1-.9 1.3-1.4 1.7-1.5 1-.2 2-.1 3-.1 1.6 0 2.9-.5 4.4-1.3 2.9-1.6 3.6-3.6 3.6-6.7.1-5.9-.2-11.7-.1-17.5v-17.6c0-1.8.4-3.5.7-5.2.5-3.4.3-7 .1-10.4 0-.7-1.2-1.4-2-1.9-.5-.4-1.4-.4-1.7-.9-.5-.6-.8-1.7-.5-2.4.2-.6 1.6-1.4 2-1.2 1.3.8 2.4-.1 3.7-.2h8.6c.5 0 1 .1 1.4.4.7.5 1.5 1 1.8 1.7.4 1.1-.7 1.6-1.5 1.9-2.6.8-3.2 2.7-3.1 5.3v29c0 2 .5 4.4-.1 6.3-1.4 3.7-.7 7.3-.8 11 0 2.1.6 4.3.9 6.5l.5-.2zM176.4 535c-1.7-1-2.4-2.2-2.4-4.2 0-1.7-.9-3.5-.7-5.1.3-2-.4-3.4-1-5.1-.5-1.7-.7-3.4-1-5.2-1-4.3-2-8.5-2.8-12.8-.2-.8-.1-1.6-.1-2.4 0-1.6-.5-2.9-2-4.3-.6 1.2-1.2 2.1-1.6 3.2-.6 1.8-1 3.7-1.5 5.6-.2.7-.4 1.4-.4 2 .2 1.7-.2 3.2-1 4.6-.4.6-.7 1.2-.8 1.9-.6 3-1.7 6-1.7 8.9 0 4.2-2.5 7.7-2.3 12h-3.4c-.4-3-.4-6-1.3-8.8-1-3.4-.3-7-1.5-10.4-.9-2.4-.8-5-1.2-7.5-.5-3.3-1.2-6.6-1-10 0-1-.4-2.2-1-3.1-.9-1.8-.7-3.6-.9-5.5-.2-2.5-.7-5-1.2-7.5-.1-1-.5-2-.5-2.9-.2-4.4-.4-4.8-4.6-6.3l-.1-2.2.1-2.4 1.2-.4h13.8c2 0 2.8 1 2.7 2.7 0 .7-.5 1.5-1 2-.7.5-1.6.8-2.6 1.4.1 3.4-.8 7 .7 10.4l.1.6 1 9.7c.2 1.7.6 3.5 1.1 5.1.2.7 1.1 1.1 1.9 1.8 1.2-4 2.6-7.5 3.3-11 .7-3.6 2.2-7 2.8-10.5l2.4-11c2.4-.5 3.6.4 3.3 2.7a8 8 0 0 0 0 2.5c.9 3.6 1.1 7.4 2.7 10.8.2.5.3 1 .2 1.5-.2 3.7.7 7.2 2 10.7.7 1.9.9 3.8.9 5.8l.3 2c2.5-1.1 2.5-1.1 1.4-4 1.8-1.3 1.8-3.4 2-5.5.3-3.4.9-6.8 2.2-10 .2-.5.4-1.1.4-1.7l1.5-10.5-2-.8c-1.7-.6-2.4-1.5-2.2-2.8.3-1.4 1.3-2 2.6-2l6.3.2h2c.8.1 1.7.2 2.5.5 1.1.3 2.4.8 2.4 2.3 0 1-1.9 2.4-3.2 2.7-.8.2-1.8.3-2.5.8a3.4 3.4 0 0 0-1.6 3.2c.2 4.8-.8 9.4-2.5 13.9 0 .2-.3.6-.2.8 1.3 2.5-.4 4.6-.8 7l-.2.8-1 9c0 .7-.1 1.3-.4 1.8-1.4 2-1.3 4.2-1.5 6.5-.2 2.5-.8 5-1.3 7.5-.7 3-1.7 5.8-2.4 8.8-.3 1.5-1.4 1.7-2.4 2.1zM120.7 52.3h23.6c.1-3.4.5-6.7-.1-9.9-.1-.6-.4-1.3-.2-1.7.6-1.2.4-2.2-.2-3.3-.2-.4-.2-1.1 0-1.5 1-1.6-.2-3.2.1-4.8.2-1-.7-1.8-2-1.8l-4-.6c-.3-2.7.3-3.4 2.5-2.9 3.3.9 6.5.8 9.8.2 2.3-.5 4.7-.4 7-.2 2.2.2 2.9 1.3 2.3 3.2l-4.2-.7-.3 2.5v45.9c0 1.7.6 2.5 2.5 2.7h2c1.2 0 1.5.8 1.5 1.9 0 .9-.4 1.5-1.4 1.6h-21.2c-1 0-1.8-.4-1.6-1.6 0-1 .7-1.6 1.8-1.5h5.2c1.2 0 1.5-.9 1.5-1.9V57.5l-.2-1.9c-8.2 1-16.2.5-24.3-.3-.4 1.9-.4 3.5 0 5.1.5 1.4.5 3 .4 4.4 0 3.9.8 7.9-.5 11.8-.5 1.5.4 2.5 2.1 2.8 1.7.2 3.4.5 5 .9.5.1 1.1.8 1.2 1.3 0 1-.8 1.3-1.7 1.3a535 535 0 0 1-21.7 0h-1.8c-1 0-1.7-.5-1.4-1.5.1-.5.9-1 1.4-1.1h6l.2-3.5V29.5l-4.9-.7-.9-2.5 2.2.1c2.3 0 4.7.6 7-.5.2-.2.6-.2.9-.2 4.4.2 8.8.6 13.2.4 0 2.8-.2 3.1-2.2 3.1-1.4 0-2.9-.3-4.6-.5v23.6zm-5.4-3.4c.3.5-.6 1.9 1.4 1.5l-1.4-1.5.8-3c-1.9-.3-2 1-2.1 1.8 0 .2.8.7 1.3 1.2zM114 54c1 2.4 3.4-.3 4.4 1.5l1-.5c.2-.1.3-.4.5-.7l-1-1.7h-3.5l-1.4 1.4zm-.2-13.7c1.5.7 1.5 2.9 3.6 2.9-.5-1.7 1-3.9-1.8-4.8l-1.8 1.9zM343.6 28.2v-3c2.1-.5 4-.6 6 0 .5.3 1.2.6 1.7.4 2.3-.8 4.8-.5 7.2-.6 1.2 0 2 .1 2.9 1 2 2.1 4 4.3 5.5 6.8 1.5 2.4 3.4 4.4 4.8 6.8 2 3.4 4.5 6.5 6.8 9.7a301 301 0 0 1 5.3 7.9c1 1.4 1.7 2.9 2.5 4.4.5.9 1 1.7 2.6.8-.2-2-.6-4.3-.7-6.5V34.1l.1-2.3c.3-2.3-.5-3.3-2.8-3.4H383l-2-.2c-1-2.8-.8-3.3 1.9-3.4h14c1.2 0 2.5 0 2.5 1.7s-.7 2.7-2.4 2.7c-1.3 0-2.5-.3-4.2-.5-.2 1.8-.5 3.8-.6 5.8 0 1.6.3 3.3.3 5v34.6c0 2.5.3 5 .4 7.8l-4.6.2-5.5-7.6c-2-2.6-4-5.1-5.5-8.1-1-1.8-2.2-3.5-3.5-5.1-1.6-2.1-3.5-4-5.1-6.2-1.4-1.9-2.6-4-3.9-6-2.3-3.8-4.5-7.6-7-11.4-.7-1.2-1.8-2.1-2.8-3.2l-.7.4c.3 4.2.9 8.5.8 12.8 0 2.2.5 4.2.4 6.3v21l.2 3.3c1.4 0 2.6 0 3.7.2 2.6.4 3.2 1.5 2.5 4.1-6-1.2-12.1-.3-18.4-.3v-3.6l7.4-.4-.9-49.7-6.5-.4zM274.4 533.7c.4-.4.7-1.1 1.3-1.4 2.7-1.7 3-4.7 3.9-7.4.1-.4.2-1.1 0-1.4-1.4-1.9.6-4-.7-5.9 1.2-2.5-.8-5-.2-7.5.3-1 .5-2 .6-3.1.1-1.6.6-3.4 0-4.8-.7-2.2.2-4.2.1-6.2-.2-7 .1-13.8.2-20.7 0-2.3-2-3-3.5-4v-2.8l.7-.4c1.9-.3 3.6 0 5.5.4 1.6.4 3.5-.7 5.2-.5l4.7.1c2 .2 4.2 1.7 6 3 2.3 1.6 3.6 4.1 5 6.4 3 4.5 4 9.6 5.4 14.7.2.7 0 1.5.1 2.3.1 1.7.3 3.3.7 5 .6 2.3.2 4.9 0 7.3 0 1.3-.5 2.5-.7 3.7-.6 4-1.1 7.9-2.6 11.7-1.8 4.4-5.1 7.2-8.2 10.3-.7.7-2 .8-3 1.3a18.9 18.9 0 0 1-8.9 1.5h-8.6c-1.2 0-2.5 0-3-1.6zm26-36.1c.8-6-1.6-11.5-2.1-17.2 0-.4-.3-.8-.5-1.1-.7-1.4-1.4-2.8-2.4-4-.7-1-1.7-2-2.8-2.6-2-1.3-4-.1-4.4 2.3v42.1c0 3 .6 6.1-.9 9-.2.4 0 1 0 1.5 0 2 .7 2.7 2.8 3 2.6.2 4.4-1.5 5.9-3 2.2-2.4 3.4-5.7 3.2-9-.3-4 .8-8 .7-12.2-.2-3 .3-5.9.6-8.8zM182.5 79.4H198c2.2 0 3.2-1 3.4-3.2 0-.9 0-1.8-.3-2.6a8.8 8.8 0 0 1-.3-5.2h9.2l.3 14c-.7.1-1.6.5-2.5.5h-41.4c-1 0-1.9 0-2-1.3 0-1 .7-1.3 1.6-1.4l5.9-.9.2-2.6v-14c0-5.3.2-10.7-.3-16-.2-2.8.7-5.6-.4-8.5-.5-1.3 0-2.9 0-4.3V29c-2.7-2-5.3 1.8-7.6-.4.7-2.9.7-3 3.1-3H206c2.6 0 3.2.6 3.3 3.2v9.9l-9.3.1v-9.2c-1-.1-2-.4-3-.4h-14.7c-1.2 1.4-.6 3.4-.4 5.3.1 2.7.4 5.3.2 8-.1 2.2-.1 4.5-.4 6.7-.1 1.4.8 2.2 2.2 2.3h7.2c-.2-1.3-.2-2.4-.5-3.3-.6-2.4 0-3.4 2.4-3.5 5.4-.4 6 .1 6 5.6v8.7c0 1.5-.6 2.2-2.1 2.2h-4.2c-2-.2-2.8-1.3-2.2-3.3.9-2.8.4-3.5-2.6-3.6-1.8 0-3.5-.2-5.3-.3v25.3zm-4.4-9.9-1-.3-.5 1.9.5.2 1-1.8zm1 5.9c-.3-.2-.6-.5-.8-.5-.2 0-.3.3-.5.5l.7.7.5-.7zM513.3 27.9l-.1 2.6v14.9c0 1 .2 2 .5 2.9.3 1.1 1.2 1.7 2.5 1.6h3c2.2-.2 2.8-1.1 2-3.3l-.2-1.4c2.5-.8 4.8-.5 7.4-.1.5 4.7.9 9.4 0 14.3-1.8.2-3.5.6-5.3.5-1.8 0-2.2-.8-2-2.7.3-2.3-.7-3.6-3-3.7h-3.3l-1.4.3-.2 2.3v18.7c0 2 .7 2.8 2.6 2.8h17.3a9 9 0 0 0 1-7v-1.2c.1-2.7.6-3.1 3.2-3h3.8c1.1 0 1.9.5 1.7 1.8-.2 3-.2 6 .5 9 .3 1 0 2.3 0 3.9-15.3.5-30.4-.4-45.6.4v-3.2c2.4.3 4.6-.4 6.4-1.4l-.5-14.1V44.3c0-3.3-.5-6.5-.7-9.7 0-1-.2-2 0-3 .5-1.4 0-2.4-.7-3.3l-7-1V24h47v14.7c-2.3 0-4.4.2-6.6 0-2-.2-2.7-1.3-2.7-3.5v-3.3c-.2-2.6-1-3.5-3.7-3.5H519c-1.7 0-3.5-.3-5.7-.5zm-4.5 44.5-1.2-1.4-1.9 2.8 3.1-1.4zm30 2.8c.2-.3.6-.5.5-.7 0-.2-.3-.4-.5-.6-.2.2-.5.3-.5.5s.2.5.5.8zm-30.6-40 .6.4.6-1.3-.4-.3-.8 1.2zM444 29.7l.4-5.5 4 .5c1 2.7.5 5.5.4 8.3 0 2.4-.6 4.9.5 7.3.3.6.3 1.5.2 2.3-.2 1.2-.7 2-2.2 1.7-1.7-.4-3.5-.4-5.4-.6-.4-2.4-.6-4.8-1.2-7-.9-2.7-1.8-5.3-5-6.8-3-1.5-5.7-1.4-8.6-1.5-3.2-.1-5.5 1.8-7.4 3.8-2.8 3-3.8 7-3.8 11.2 0 3.4-.5 6.8-.3 10.1 0 3 .6 6 1 9 0 .8.2 1.5.1 2.2-.2 3.4 1.2 6.5 3 9.1 1.4 2.2 3.7 3.9 6.6 3.8 1.8 0 3.5 1 5.5.1 3-1.3 5.7-4.9 5.8-8.2l.3-5.1-.2-5.7h-7.1l.4-3.6h3.7l14.8-.4c1.3 0 2.6.3 3.9.5 1 0 1.3.7 1.2 1.6-.2 1-.7 1.5-1.7 1.4-.6 0-1.1-.3-1.7-.3-2 0-2.5.8-2 2.7.2.7.5 1.5.3 2-1 2.8.2 5.4 0 8.1v8.1l.2 3h-5.2c-.5-2.2-.3-4.8-3.5-5.4-2.1 2.2-4.9 3.6-7.9 4.3-2.3.6-4.6 1-6.9 1.3-1.6.2-3.2.3-4.4-1.2-.2-.3-.7-.3-1-.5a21.3 21.3 0 0 1-12.2-9.3c-1.3-1.8-2.6-3.7-3.6-5.6-.6-1-.6-2.3-1-3.4a39.4 39.4 0 0 1-.6-16.9c.5-4.9 3.4-8.4 5.9-12 1.4-2 3.7-3.6 5.9-4.8a27.8 27.8 0 0 1 18-3.3c2.7.4 5.2 2.4 7.6 3.8 1 .6 1.7 1.5 3.3.9zm2.3 30.3c-.6 1.3-1.4 2.6-1.8 3.9-.3.8.2 1.3 1.3 1 0-1 0-2 .3-2.8.3-.7 2.4-1 .2-2.1zM412 57.3l-2-3-1.2 2.5c.9 1.4 1.9 1.7 3.2.5zm-3.4-15.9c-.5 2.2 0 2.5 1.7 2.1l-1.7-2zm35.4 27-.4.8c0 .2.3.4.5.6.2-.2.5-.4.5-.6 0-.2-.3-.4-.6-.7zM502.3 472c1-3 1-3 4-2.5h.9c2-.1 4-.7 6-.5 5.3.5 10.6 1.4 13.5 6.8l1 1.2c4.3 3.7 6.2 8.8 8 14 .8 2.6 1 5.5 1.1 8.4.2 2.6 0 5.3.1 8 .3 4.5-1 8.8-2 13-.3 1-.8 1.9-1.4 2.7-1.7 2.3-3.2 4.8-5.2 6.7a20 20 0 0 1-9.6 5.6c-3.7.8-7.3 1-11 .5-2-.4-4 .3-6.2.5l-.4-3.6c3.3-.2 4.3-2.5 5-4.9.4-1.2-.4-2.6.6-3.8-.7-2.7 1-5.6-.7-8.4-.4-.8-.2-2.2 0-3.2a25 25 0 0 0 .2-13v-1.2c.1-1.7.6-3.3.6-5V478c.2-2.5-.5-4-2.9-4.8-.6-.2-1.1-.7-1.6-1zm13 4v39.4c0 1.4-.4 2.9-.6 4.3l.1 1.4c1 3 .9 5.8-.3 8.7l.8 1.5c.4 1.1 1.3 1.2 2.2.9 3-1.3 5.8-3 7.7-5.8a7.2 7.2 0 0 0 1.3-4.5v-8.8c.1-1.7.9-3.4.8-5.1-.2-5.8.5-11.6-.7-17.5-.6-3.3-1.1-6.8-2.3-10-1.6-4-3.9-6-9-4.5zM237 471.4l-.3-1.2c0-.6 0-1.2.2-2.1 3-.4 6-.3 9.1 0 .7 0 1.5.9 1.9 1.6.7 1.5 1.7 3 1.8 4.6 0 2 1.2 3.3 2 4.9 3 6.4 6.5 12.7 8.6 19.6.4 1.5 1.3 2.8 2.1 4.3 2-1.5 1.6-3.4 1-5-.5-1.2-.7-2.1 0-3.3.3-.5.3-1.3.4-2v-8.6c0-.6 0-1.3-.3-1.8-.8-1.2-.7-2.2 0-3.6 1-2.3 0-5.4-2.1-6.8-1.3-.9-1.8-2-2.3-3.6.7-.2 1.3-.5 2-.5h7.1c1 .1 2.1.5 3 1 1.4.7 1.5 2 .3 2.8-4.7 2.8-4.4 7-3.4 11.4.4 1.5-.2 3.2-.2 4.8v7c0 1.5-.3 3-.3 4.4v23.2c0 1.2-.3 2.4-.5 3.5 0 .5-.2 1 0 1.4.8 2.4.1 4.8.3 7.2l-.2.2c-2.9.8-3.5.7-4.6-2-1.4-3.5-3-7.1-3.6-11-.3-2-1.3-4-2-5.8l-3.4-8.5-3.6-9c-.5-1.3-.7-2.7-1.2-4-.5-1.3-.7-2.8-2.5-3.7l-.2 2.2v10.5c0 1-.3 1.9-.5 2.9 0 .3-.4.8-.3 1 1 3.3-.8 6.5 0 9.6 1 4 .7 7.9.8 11.8 0 .5.3 1.3.7 1.5 1.7 1.2 3.6 2.3 5.4 3.4l.4.7c-1 1.5-2.8 1.2-3.9.7-1.9-.8-3.7-.7-5.6-.7h-13.7l-3.5-.2c.3-1.5 1-1.5 1.8-1.2 3.3 1 6.3-.3 9.3-1 2.6-.5 4.2-3 4.3-6v-11.3c0-.7-.4-1.4-.5-2-.1-.8-.4-1.7 0-2.3.3-1 .5-1.6 0-2.5-.2-.2-.3-.6-.3-.8 1.4-7 .5-14 .8-20.9 0-1.2.4-2.3.6-3.5 0-.3.3-.8.1-1-1.2-2-.6-4.1-.7-6.2 0-3.2-.2-3.3-3.5-3.8l-.9-.3zM464.6 471.1l1.3-2.5 8.9.7 2 5.7 2 5 3 7.4c0 .4.2.8.4 1 2.4 3.3 2.8 7.3 4.2 11l.8 1.5 1 2.7 1.5 4c.6-1 1.2-1.4 1.2-1.8-.2-2.7.6-5.6-.6-8.2-.1-.3-.2-.7-.1-.9 1.5-3.7.5-7.7.7-11.5.2-2.5 0-5 0-7.5 0-2-.7-3.9-2.6-5-.9-.4-1.3-1-1-1.8.3-.8 1-1.8 1.7-1.8 2.9-.2 5.8-.2 8.6 0 .6 0 1.4.8 1.6 1.5.2.4-.4 1.3-.9 1.7-3 2.6-3.9 5.3-2.9 9.1.3 1 0 2.1 0 3.2-.1.7-.7 1.4-.5 2 1 3.6-.5 7.1-.2 10.7.3 3.8 0 7.6 0 11.3 0 3.7.2 7.4 0 11.1v14.5c-.4 2-2.2 2.5-3.8 1.5-2-1.3-2.2-3.4-2.6-5.2-.3-2-1.3-3.7-2-5.5-.8-1.8-2.1-3.4-2-5.5 0-.5-.6-1-.8-1.5a21.5 21.5 0 0 1-2-5.2c-.3-1.1-.5-2.3-.9-3.4-.2-1-.6-1.8-1-2.7l-.8-1.8-4-10.6c-1.7.2-1.8 1.2-1.3 2 1 1.8 1 3.4 0 5-.3.6-.4 1.3-.2 1.8 1.2 2.6 0 5.2 0 7.7v7.8c0 .8-.4 1.7-.5 2.6v1.9c0 .4.5 1 .3 1-1.5 1.7.6 3.4-.2 5.1-.2.4.8 1.7 1.5 2.3.7.6 1.8.8 2.6 1.4.4.4.9 1.4.7 1.7-.4.7-1.2 1.4-2 1.4-2.6.2-5.3.2-8 .1-.6 0-1.4-.7-1.7-1.3-.2-.4.2-1.5.6-1.8 2.8-1.4 3-3.9 2.8-6.6V516c0-1.2.5-2.3.7-3.5 0-.5.3-1.2.2-1.7-1.6-4.8-1-9.6-.6-14.5.1-1.5-.3-3-.3-4.4v-15.5c0-2.8 0-2.8-2.7-3.8-.7-.3-1.4-1-2.1-1.5z"/>
    <path d="M234 502.3v5.1l-.8 4-.2 1.2c.6 4.6-2 8.6-3 12.8-.4 1.3-1.6 2.5-2.5 3.7l-3.1 3.8c-.5.6-1.2 1.2-1.9 1.3-3 .5-6 1.1-9 1-3.9 0-7.1-1.6-9-5.3l-3.8-6.9c-.3-.4-.5-.9-.5-1.3 0-1.7-.2-3.2-1.4-4.4-.4-.4-.4-1.3-.5-2l-.8-5.2c-.4-3.7-1-7.4-1-11.1 0-3 1-5.8 1.4-8.7.4-2.8 1-5.6 2.2-8.2l1.4-2.8 3.2-5.4c.5-.8 1-1.8 1.7-2.3 4.2-3 8.9-4.4 14-3.7l.9.3c4.4 3.1 8 7.2 9.5 12.4a72.2 72.2 0 0 1 3.2 21.7zm-15 28.1c1-1 1.9-2 2.6-3 .7-1.2 1.8-2.4 1.9-3.7a269 269 0 0 0 1-41.2c-.2-3-.6-6.1-3.4-8.1l-1-1c-1.2-1.8-3-1.8-4.6-1.5-1.2.1-2.5.3-3.4 1-1.7 1.3-3.8 2.5-4.2 4.7-.6 3-.7 5.9-1 8.8 0 .5 0 1-.2 1.5-1.6 4.4-.4 9-.7 13.5 1.4 2.2.5 4.7.8 7.1.3 2.2.2 4.6-.3 6.8-.5 2.4.8 4.3.9 6.5v.2c-.4 3.6 1.3 6 4.2 7.6 2.5 1.5 5 .7 7.4.8zM312.4 467.7l12.2.6c1.3 0 2.5-.4 3.8-.4h9.3c2 0 3.7.1 5.2 1.4.4 2 1.1 4 1.2 6 0 1.5-.6 3-1.1 4.5-.2.6-1.1.9-2.1 1.7-.6-1.8-1.2-3-1.3-4.3-.3-1.8-1.3-3-3-3.4-2.8-.7-5.6-1.4-8.7-1.1-2.6.2-3 .6-3.2 3.1-.5 5.3.1 10.7 0 16 0 2.6.8 3.4 3.5 3.1 1.4 0 2.8-.6 4-1l2.5-4.2c3 1 3 1 3 3.5.2 2.9-.3 5.7.8 8.6.5 1.1.2 2.6-1.2 3.3-1.4.8-2.4 0-3.3-1l-1-1.5c-1.2-3.3-1.8-3.8-5-3.7l-1.8.1a6.5 6.5 0 0 0-1.6 4.8v23c0 3.3.5 3.7 3.9 3.7h5.7c1.9.1 3.5-.7 4.8-1.9.7-.6 1.3-1.6 1.3-2.4 0-2.3 1.5-3 3-4.2 1.7 2 2.6 3.7 1.4 6-.4.8-.4 1.8-.4 2.6.1 2-.7 3.6-1.8 5l-16.7-.3c-.7 0-1.4.3-2 .4-.5.1-1 .5-1.4.3-3.2-1.4-6.5-.4-9.7-.7-1-.1-2.5.6-3-1-.4-1.1.6-2.6 2-3.4l.3-.1c4-.6 4.3-3.4 4.1-6.6v-4.8c0-3-.2-6 .1-9 .3-3-.4-5.8-.1-8.8.3-2.5-.2-5 .8-7.6.5-1.4 0-3.3-.1-5-.1-1.4-.8-3-.6-4.3.4-2.9-.2-5.7-.1-8.5 0-2-.3-3.8-2.8-4.6-1.7-.6-.6-2.2-.9-3.9zM423.1 535.1c-.7-1.8-.2-3.2 1.2-3.4 4-.6 4.1-3.8 5-6.5l1.5-7.2 1.2-5.7 2.3-8.8.5-1.7c.4-3.7 1-7.3 2.5-10.8 1.2-3 1.5-6.3 2.2-9.4l1.1-5.5.8-3.7c.3-1.1.8-2.2 1.2-3.2h2.8c1.7-.1 2.3.3 2.6 2v.8c-.2 3 .7 5.6 1.5 8.4 1 3.2 1.5 6.6 2.3 10 .1.6.2 1.4.6 2 1.2 1.9 1.4 4 1.3 6.2 0 .8-.2 1.8.2 2.3 1.7 2.6 1.6 5.7 2.5 8.5 1.2 4 1.9 8.3 2.9 12.5.6 2.6 1.1 5.2 2 7.7.4 1.1 1.6 2 2.3 3 .5.7 1 1.6.8 2.3-.3 1.2-1.4 1.5-2.6 1.3-.5 0-1 0-1.4-.3-1-.6-2-.6-3.1-.1-1.1.4-2.4.4-3.5.5-1.5 0-2.8-.8-4.4-.2-1 .5-2-.6-2.3-1.7.2-1.8 1.8-2 3-2.6 1.4-.7 1.9-1.5 1.2-3-.4-.8-.6-1.8-.5-2.6.3-2.2-.6-4.1-1.2-6-.6-2-4-3.6-6.1-3.2l-7.3.7c-1.2.8-2 2.7-2.2 5.2 0 1.8-.6 3.6-1 5.4-.2 1.5.4 2.6 1.8 3.1 1.2.5 2.2 1.2 2 2.6-.2 1.5-1.7 1.7-2.7 2-.7.4-1.8.3-2.5 0-1.4-.7-2.6-.6-4-.4-1.5.2-3-.3-4.5-.5zm14-22.8c3.1.7 8.6.6 10.7-.2-.7-1.4-1.5-2.8-1.1-4.6 0-.4-.5-1-.8-1.5-.2-.6-.6-1-.7-1.7l-2-11-1.3-3.3-.5.2c-.2 3.5-2.4 6.5-2.2 10 0 .4-.3.8-.6 1-1 .9-.8 2-.9 3 0 1 0 2-.4 3a9 9 0 0 0-.2 5zM293.5 28.7l-4.9-1.2c-1-.2-1.9-.6-1.4-1.8h24.2c.2 2.2-1 2.6-2.3 2.7l-5.3.1c1 2 .7 3.5.3 5.2-.5 2-.2 4.3.1 6.3.3 1.8.6 3.5 0 5.2l-.1.6c.6 5.7.6 11.4.7 17 .1 4.6 2.1 8.3 6 10.7 1.7 1 4 1.2 6.2 1.5 4 .6 7.4-.8 10.2-3.5.7-.6 1.3-1.5 1.4-2.3.7-4.2 2.2-8.2 2-12.5-.4-5-.5-10-.7-15l.3-1.5c.1-1 .6-2.3.2-3.1-1.4-3 .1-6-.3-9.4-1.5 0-3 0-4.6-.2-1.5 0-1.5 0-1.6-2l11.5-.7h2.4c2.2.1 2.3.1 2 3.1l-5.8.6V64.3A18.1 18.1 0 0 1 322.5 81c-3.2 0-6.2 1-9.6.8-3.3-.3-6.2-1.7-9.2-2.5-4-1.2-7-4.3-8.4-8.4a32 32 0 0 1-1.9-11.3c.2-9.2 0-18.5.1-27.7v-3zM72 78.7c-.8-2.5-1-4.8-.9-7.3.2-4 .8-8.2-.4-12.2 0-.1-.2-.3-.1-.5 1.2-8.3.5-16.6.7-24.8 0-2.6 0-2.6-2-4.2h-6.6c-1.1 4-.3 8 0 12.5h-8.5c-.9 0-1.7-.6-1.4-1.6.6-1.8 0-3.5-.2-5.2-.3-2.2.2-4.4.4-6.6v-2.1l3.1-.2h29.3c1 0 2.1-.2 3.2-.4.4 0 .8-.3 1.1-.2 3.5 1.3 7 .4 10.9.5v3l.1 9.8c0 1.5-.5 2.2-2 2.2h-6.9c-.3-.6-.6-.7-.5-.9.3-3-.7-6 .3-9 .4-1.1-.4-2-1.5-2l-8.3.3V40c0 3.3 0 6.6.3 9.8.3 2.8-.4 5.5.4 8.3.6 2.4.1 5 .1 7.5v6.8c0 1.9-.3 3.7-.5 6a9.3 9.3 0 0 0 6 1.8c1.4 0 2.8.1 3 2.4l-2.8.3H75.4c-3.4.2-6.8-.3-10.2.8-.9.3-1.9 0-2-1.2 0-1 .3-2 1.5-2.2H69c1.2 0 2.4-.1 3.1-1.6zM95.3 34l-2-1.5c-.2 2 1 1.5 2 1.5 0 1.8 0 1.8 2.2 2.5l-2.2-2.5zm-18-1.8c-.5.2-1.4.3-1.6.8-.4.8-.2 1.9-.6 2.7-.6 1-.6 1.8.4 2.5 1.3.8 1.8-.3 2.7-1l-2-2.1 2.7-.2c-.5-1.2-2.3-1.3-1.7-2.8l2.4-1.2-.1-.4-3 .5.9 1.2zm-4 23.1 2.5 2.8 3.8-1.3-3.1-2c2-1.7 2-2.6 1-4-1.1-1.4-1.8-1.6-3.6-.5l3.2 2.4-3.7 2.6zm5 6.6c-1.8-.5.6-2.2-1.5-3.1.3 1.8-1.4 2.8-1.5 4.8l3-1.7zM58.7 32.6c-.7 1.1-1.5 2.2 0 3 1.3.8 1.8-.2 2.2-1.3l-2.2-1.7zm18.2 40.8L78 70l-3.3.6 2 2.7zm-21-35.1.6-.3-.8-1.5-.5.3.7 1.5zm23.8 27.3.6-.6c0-.3-.4-.4-.5-.6l-.7.7.6.5zM473.3 77.6l11.5 1c2.6-4.5.3-8.9.9-12.9l6.5-.9c1.1-.1 2.8 1 2.9 2.1v15l-5-.3c-2.7-.1-5.4-.6-8-.1-2.4.5-4.8-.3-7.2 0h-6.2l-7.2.1c-1 0-1.8.4-2.7.4-1 0-2-.4-3-.5 0-2.3 1-3 2.8-3 3.4-.3 4-1.3 3.7-4.6V44.1c0-4.6-.3-9.2-.5-13.7 0-.8-.6-1.5-.9-2.2h-4.1c-1.3.2-1.9-.5-2.2-1.5-.3-1.2.3-2 1.3-2.4a3 3 0 0 1 2-.2c4 1.4 8 .6 12 .3 2.7-.3 5.4-.4 8.1-.4.7 0 1.7.5 2 1 .3.8.4 2 0 2.8 0 .4-1.3.6-2 .5-1-.1-2.1-.7-3.2-.7-2.1-.1-2.9.6-3 2.7 0 4.2-.3 8.4.2 12.4.3 2.5-.3 4.9-.1 7.2.1 1.7.4 3.3.7 5v.3c-.7 4.1 1 8.4 0 12.5-.7 3.2.6 6.2.3 9.3 0 .3.4.6.4.6zm-7-15.4 1.7-1.4 1.7.7c-2-2.2-.5-4.5-.4-7-3 3.6-3.5 5.1-3 7.8l-1.1.8.8.6.3-1.5zm24.3 12.6.5-.5-2.4-2.7c-.6 2.6.8 2.8 1.9 3.2zm-25.5-7c.6-.4 1.2-.7 2.2-1-1.8-1.4-2.2-.6-2.2 1zm2.2-17.3c-.3-1.5-.3-1.5-1.7-1l1.7 1zM283 25.9c0 1.4-.1 2-1.6 2-2.7-.1-3.3.5-3.3 3.3 0 5-.5 10.2.4 15.2.8 5.3 0 10.4.3 15.6.4 4.7-1 9.3-3.5 13.3-2.1 3.3-5 6-9.5 6.4-4.1.3-8.3 1-12.3-.5-2.3-.9-4.5-2-6.6-3.2-3-1.8-3.8-5-4.2-8-.3-2.3 1.9-4.9 4.4-5.8 3.4-1.3 7 .2 8.2 3.2 1.4 3.3-.8 6-3.7 6.9l-1.7.3c-.7 1.9.5 3 1.7 3.4 2.6 1.3 5.4 2 8.3 1 .6-.3 1.3-.4 2-.5.4-.2 1.1-.2 1.3-.5 1.5-2.6 4-4.4 4.5-7.8 1.7-12.9.4-25.8.8-38.6 0-2.6-.6-3.1-3.2-3.2h-3c.4-2.6.4-2.6 2.5-2.7h14l4.2.2zM304.4 578c-.3 2.7-.6 4.6-.6 6.6 0 1.9.6 3.8.9 6l5.7-1.8c.4-.2 1-.7 1.3-.6 2.8 1.2 6.3 1.3 7.6 4.8.5 1.5 1.4 2.7 1.3 4.5 0 1 .7 2 1 2.7l-1 5c-.9 2.7-2.2 5.2-5 6.6l-.5.1c-1.6.8-3.1 2-4.8 2.2-1.5 0-3-1-4.7-1.5-.4-.1-1-.3-1.3-.1-2.4 1.2-4.9.4-7.3.5-.9 0-1.8-1-3.2-1.7l4-3v-1.6l.1-21.8c0-2.1-.5-3.6-2.7-4.2-.3-.1-.4-.4-.9-.8 2.9-3.1 6.3-1.2 10-1.8zm4.7 31.6c2-.1 3.6-.4 4.9-2 3.4-4.2 3.6-7.5.9-11.8-1.5-2.4-4.7-3.6-6.4-2.3-3 2.4-5.8 5.1-5.5 9.6 0 2 1 3.8 2.3 5.2.9.8 2.5.9 3.8 1.3zM352.5 704c-.5 2.3-1.2 4-1 5.8 0 1.7 1 3.4 1.5 5.1h.7c.6-1.7 1-3.5 1.8-5.1 1.1-2-1.5-3.5-.3-5.8l7 .1c.8 0 1.4 1 2 1.4-.7 1.4-1.8 2.7-1.5 3.7.5 2 0 4.3 2.3 6.2l2.7-7.5-.4-.6c-1-.5-2.3-.7-1.8-2.3.4-1.2 1.6-1 2.6-1h4.1c0 .8.2 1.6 0 2.4l-3 8-3.3 9.2 2.1 2.3c-.7.6-1.3 1.7-2 1.8-2 .1-4 0-5.8-.3-.4-.1-1-1.5-.9-2 1-2.2 0-4.2-.5-6.3l-1-4c-2.1 4-4.4 7.3-2 11.4-4.2 2-6.3 1.8-8.7-.4 2.9-2.6.6-5.5.3-8.2-.3-2-1.2-4-1.5-6-.3-2-.7-3.7-2.2-5-.3-.3-.5-.7-.6-1-.3-1 0-1.9 1.2-2h8.2zM272.8 725.7c1.1-1.9 2.1-3 1.5-4.8-.4-1.1.3-2.5.3-3.8v-8.3c-.1-.6-.7-1.1-1-1.7l-1-2.7c3.5-1 6.5-.4 10-.3-.4 1.2-.4 2.2-1 2.6-1.2.9-1 1.9-1 3.1 0 2.8-.4 5.5-.5 8.3-.1 2.4-.5 5 1.5 7 .3.4.3 1.1.4 2-2.8.4-5.5.4-8 0-1-.2-1.6-.3-2.6 0-3 .6-6 .2-9 .1-.5-1.3-.7-2.3.5-2.9 1.5-.6 1.2-1.7.9-2.7-.5-1.3-2.5-1.8-4.5-1.3-1.5.4-1.7 1.5-1.6 2.8v.6c.3 1 1.5 2.2.4 3-1.2.7-2.8 1-4.2 1-.5.1-1.2-.8-1.5-1.4-.2-.4.1-1.1.3-1.7l4.4-12.3 1.5-4.1-1-1.5c-1-1.5-.5-2.6 1.2-2.7h8.2c1.5 2-.3 2.8-1 4 1.3 4.3 2.3 8.7 3.7 12.9.5 1.6 1.8 3 3.1 4.8zm-13.4-9h2.7c.2-1.5 0-2.7-1.7-3.7l-1 3.8z"/>
    <path d="m344 594.6-3.4 7.2L333 618c-1.2 2.6-2.4 5-5.4 5.8-1.2.3-2.6.6-3.7.3a3.6 3.6 0 0 1-2.1-2.2c-.2-.6.7-1.6 1-2.3l4.3.9c.7-1.3 1.5-2.3 1.8-3.4.9-2.3 1.6-4.6 2.2-7 .1-.8-.5-1.8-.8-2.7-1-4.4-3.2-8.3-5.2-12.4-.2-.4-1-.5-1.5-.8-2-1-2.2-1.9-1.5-4.8H333c1.5 0 1.9 1.4.5 2.6-1.8 1.5-1.8 3.4-1.7 5.4 0 1.4 1.6 4 3 5.2 3-2.1 4-5.1 2.4-8.3-1.3-2.7 0-4.8 3-5h5.9c1 0 1.8.2 2 1.4 0 1 0 2-1.2 2.4l-2.9 1.5zM283.5 727.1c.1-.9 0-1.8.3-2 2-1.3 1.4-3.3 1.5-5.1v-9c0-1.5.2-3-1-4.5-.7-1 0-2.4 1.2-2.4 4-.3 8-.8 11.7.4a5 5 0 0 1 2 8.4l-2 2.3c.4.6.7 1.3 1.2 1.6 1.4.7 2 1.9 2.3 3.3l2 6.9c-1.6 1.6-3.5.2-5.2 0-1.2-.1-2-1.3-2.3-2.8-.3-1.6-.6-3.3-1.2-4.9-.4-1-1.3-1.8-2-2.8-2.4 1.6-.8 3.4-.6 4.8.1 1.5 1 3 2 5.1-.2.8-1 1.6-2.8 1.4l-7-.7zm8-20v7.3c2.2 0 2.9-.6 3.1-2.6.3-2.3-.7-4-3.2-4.6zM269 674c1-1.8 1-1.8 2.4-2.2.2-2.8-.7-3.8-3.3-3.9h-3.5l-1 2.8c.6 1.3 2.5 1 2.3 2.7h-8.8l-12.2.4c-1 0-1.6-.1-1.8-1.3l2.4-1.4-.6-14.7c-1-.5-2.8-.1-2.5-2.4 3.3.1 6.8-1 10 .7v.8l-3.3.7c-.5 5 .9 9.9.3 15.1h4v-3.6c1-1.1 2.4-.8 3.9-.4l.3 4.6 3.4-.6c1.8-4.9 3.7-9.8 4.6-15l-4.2-1.1 1.7-1.3h.3c1.8 0 3.7-.3 5.4.1 2 .5 1.8 2.7 2.5 4.1 1.6 3.4 3 7 4.3 10.5.6 1.6 1 3 3 3 .4 0 .7.8 1.2 1.6l-10.8.7zm-1.6-14.2-2 6h3.6c.7-2.3-.2-4-1.6-6zM212.2 715.1l.8-.5c.4-2.6.8-5.2-.8-7.6-.4-.6-.6-1.4-.9-2.1.8-.3 1.6-.8 2.3-.9 1.6-.1 3.1 0 5.4.2-.8 1.3-1.1 2.4-1.8 2.7-1.4.7-1.4 1.8-1.3 3 .2 3.5.6 7 .5 10.4 0 2.5.5 5.1-1 7.3-3 .3-3.8-.2-4.9-2.7-1.1-2.6-2.3-5.2-3.6-7.7-.3-.7-1-1.1-2-2.1l.6 9.2 2 1.1c0 1.4-.8 2.3-2 2.4h-4.7c-.5 0-1.2-.8-1.4-1.3 0-.5.4-1.4.8-1.6 1.3-.5 1.5-1.5 1.4-2.6v-12.6c0-1.1 0-2.1-1.2-2.7-1.1-.6-1.2-1.5-1-2.7 2.2-.7 4.4-.4 6.5-.2.6 0 1.4.8 1.7 1.4 1.6 3.1 3 6.3 4.6 9.6zM339 707.2h-5.3v4.6c0 .5.5 1.2.9 1.4.3.1.9-.5 1.3-.7.6-.2 1.2-.6 1.8-.6.3 0 .6 1 .7 1.5v3c-.2 1.9-1.2 2.3-2.8 1.2l-1.3-1c-1.1 2.6-.5 4.9-.5 7.4h5.2c.6-1.3.2-3.3 2.2-3.8 1.8 1.7 2.3 4.6 1 6.3-.4.4-1 .7-1.6.7h-14c-1-1.2-.6-2 .4-2.6 1-.8 1.3-1.9 1.3-3.2-.1-4.1-.2-8.3-.1-12.4 0-1.2-.6-1.5-1.4-2-.6-.5-.9-1.4-1.3-2.1.7-.3 1.4-.9 2-1 3.9 0 7.7-.2 11.5-.1 2.5 0 3 .7 2.9 3.4 0 1.2.5 3-1.3 3.1-1.6.1-1-1.8-1.6-3zM299 666l-.3 4.5c.8.7 2.7.6 2.1 2.7l-1.3.2h-7.3c-.6-2 1.3-1.5 2.3-2.6l-.7-14.4c-1-.5-2-.8-2.8-1.4-.2 0 0-.7 0-1.4 4.5 0 9-1.1 13.3 1.2 3.8 2 4.8 5.7 2.2 8.8-1.2 1.4-1 2.6-.6 3.8a8.3 8.3 0 0 0 2.4 3.2c.3.3 1.4 0 2-.4.7-.5 1.2-1.3 1.8-2 1 1.8.9 2.7-.4 3.8a6 6 0 0 1-9.2-1.5c-.5-.8-.8-1.8-1-2.8-.5-1-.5-1-2.5-1.7zm-1-7 .4.1v2.4c.2 2 1.3 2.6 3 1.8 2.7-1.3 3.2-3.6 1.1-5.7-1-.9-1.7-2.7-3.2-2-.8.5-.9 2.3-1.3 3.4zM173.9 720.4c1 1.4 1.7 2.8 2.8 3.8 1.1 1 3.2.5 4-.6.7-1 .2-2.7-1.2-3.6l-4.5-2.3c-3.2-1.7-3.8-4.6-3.4-7.9a6.9 6.9 0 0 1 5.6-5.8c1.8-.4 3.7-.6 5.5-.6.6 0 1.7.8 1.7 1.3.2 2 .8 4-.6 6-1.8 0-2-1.5-2.5-2.5-.6-1.2-1.4-1.8-2.8-1.7-1.1 0-1.8.5-2.3 1.5-.5 1.1 0 2 .8 2.7.3.4 1 .6 1.5.8l1.7.7c6.8 3.5 6.2 4.9 4.2 11.6a5 5 0 0 1-4.2 3.4c-2.5.2-5.1 0-8 0v-5.5c0-1 .3-1.1 1.7-1.3zM395.6 710.8c-1.7-.1-2-1.4-2.5-2.4-.6-1.1-1.4-2-2.8-1.9-.8.1-1.8.4-2.2 1-.6.9-.4 2.1.5 2.9l2.3 1.3 3.7 1.9c2.2 1 3 3 2.6 5.2-.4 2.6-.6 5.4-3 7.1-.8.5-1.6 1.2-2.4 1.2-2.6.2-5.2.1-7.8.1v-5.5c0-.5.8-1.1 1.4-1.4.2 0 1 .6 1.1 1 .2 1.5.8 2.5 2.1 3 1.3.6 2.8.3 3.5-.7.6-1 .4-2.7-.7-3.5-.7-.5-1.6-.8-2.4-1.2l-3.8-2.2c-2.6-1.8-2.4-10.4 1.4-12.2 2.5-1.1 5.2-1.4 7.9-1 .5 0 1.3.7 1.4 1.2.1 2 .5 4-.3 6.1zM141.7 671.7c1.3.7 3.3.2 2.8 2.8l-7.1.4c-.4 0-1-.5-1-.9-.2-.3.1-1 .4-1.2.6-.5 1.4-.7 2.5-1.3l-.6-13.7c-.5-1.7-3-.4-2.3-2.8 1.2-.1 2.5-.4 3.9-.3 1.6 0 2.9.8 3.9 2.2l7.3 9.4c.2-.8.5-1.3.5-1.9l-.1-4.4c0-1.7.3-3.6-2.4-3.6-.2 0-.5-.9-.8-1.5 2.6-.5 5-.9 7.2-.2.5 0 .7.8 1.1 1.5l-2.4 1v17.4c-2.8.1-3.7-2-5-3.7l-7.9-10.3v11zM320.2 704c.8 1.4.4 2.3-.6 3-1 .8-1.2 1.8-1 3.2.3 2.2.1 4.5 0 6.8l-.3 5c0 1 .2 2 1.5 2.1 1.2.2 1.9-.4 2-1.6 0-.8.3-1.8 1.3-1.5.5.1 1 1.1 1 1.8 1 4.8.7 5-4.1 5.1h-7.2c-.8 0-1.8.2-2.2-1-.4-1 0-1.5.7-2.2.6-.6 1-1.7 1-2.6v-9.6c0-.8-.1-1.8.2-2.6.5-1.6 0-2.4-1.4-3-.6-.3-1.3-1.4-1.2-1.7.4-.7 1.2-1.6 2-1.6 2.7 0 5.6.3 8.3.5zM220.6 656.7v17.5c-1.8.4-2.5-.8-3.3-1.8-2.8-4-5.7-8-8.5-12.2-.3-.4-.5-1-1-1v9.7c0 1.4 0 2.8 1.8 3.2 1.2.2 1.3 1 1 2.2l-7-.4v-1c2-1 2.3-2.6 2.2-4.6l-.7-11.6-2.5-.6c-.6-1.5-.1-2.1 1.3-2.3 4.3-.4 6 .5 8.3 4.3 1.5 2.4 3.1 4.6 4.7 6.9l1 .7v-7c0-1.1-.5-1.9-1.6-2.3-.6-.2-1-.8-1.6-1.2 2.7-2 6.6-1.9 8.5 0l-2.6 1.5zM234.4 704.3c.3 1.7.6 3.2.7 4.6 0 .7-.4 1.8-.8 2-1 .3-1.3-.5-1.5-1.4-.2-.6-.5-1.3-1-1.7-2.6-2.3-5.4-1.3-5.8 2.4-.4 3.3-1 6.7-.1 10l1.2 3c.6 1.2 1.6 1.8 3 1.6 1.3-.2 2-1 2.2-2.4 0-.4.2-.7.4-1.4l2.5.6v4.4c0 1-.4 1.8-1.5 1.8-3.9 0-7.7.2-11-2.5-2.3-1.9-3-4.5-3.3-7-.4-3.3-.1-6.6 1.7-9.7.8-1.5 1.9-2.6 3.3-3.2 3.2-1.3 6.5-2 10-1.1zM352.3 769.6c1.2-3.5 2.5-7 3.5-10.6.3-1-.6-2.3-1-3.6h5.6c-3.5 3.2-3.6 7.3-5.2 10.7-.9 2-1.5 4.3-2.4 6.4-.3.7-1.2 1.6-1.7 1.6-.6 0-1.4-1-1.7-1.7l-4.5-11.6c-.7 1.2-1.2 1.9-1.4 2.6l-3.3 9.3c-.1.4-.8 1-1.2 1-.5 0-1.1-.6-1.3-1-.7-1.5-1.2-3.1-1.8-4.7l-3.4-10.2c-.2-.7-.7-1.3-1.2-2.1 1.6-1 3.2-.4 4.7-.5-.1 4.7 2.1 8.6 3.3 12.9h.6l2.7-7.4 1.6-4.2c.2-.5.9-1.2 1.4-1.2.4 0 1.1.7 1.3 1.2 1.3 3.2 2.4 6.5 3.6 9.8l1.2 3.3h.6zM247.4 704c-.4 1.3-.5 2.2-1 2.6-1 1-1.1 2.3-1 3.6v11.6c0 2.1 0 2.1 2.5 2.1l.3-1.6c.2-1 .7-1.8 1.8-1.4.5.2 1 1 1 1.7.1 1.6-.1 3.1-.2 4.9l-2.8.2c-2.9 0-5.8.2-8.8.1-.7 0-1.7-.5-2-1.1-.6-1 0-1.5 1-2 1.7-.9 1.7-2.9 1.6-4.2-.2-1.6-.2-3 0-4.6.3-2 .3-4.2 0-6.2 0-1-.9-2-1.5-2.8-1.1-1.5-.8-2.8 1-2.9h8zM125.9 654.9c4.6-.5 9 3 9.3 7.5.1 1.6 0 3.3-.1 5 0 1.9-1.4 3.1-2.6 4.5-3.3 3.7-7 3.8-10.7.3l-1.8-1.6c-4.3-4-2.8-12.8 2.1-15 .7-.3 1.3-.6 2-.7h1.8zm-2.9 8.8v2c-.1 2 .3 3.8 1.4 5.4 1.5 2.2 3.9 2 5-.4.5-.8.7-1.7.8-2.6l.1-4.4c0-1.2.3-2.5 0-3.7-.3-2-2.3-3.5-4.3-3.3-1.9.1-3.2 1.8-3 4v3zM104 656.8l-.8 4.3-3.4-.2v-6c5.4-.8 10.6-.7 16 0l.7 5.7h-4.6l-.6-3.9h-.6c-.3.3-.9.7-.9 1.1l.1 12.8c0 1 .3 2 1.6 2 1.4.2 1.6 1 1.4 2.4h-8.8c-.6-.1-1.4-.6-1.6-1-.3-.8.4-1.3 1.2-1.3 1.4 0 1.7-.8 1.9-2 .7-4.4-.5-8.7-.1-13 0-.4-.7-.9-1-1.3l-.6.4zM179.4 673.1c-1 1.3-2 2.4-3.4 1.6v-4l.1-2.7c.1-.5.7-1 1.1-1.2.3-.1 1 .3 1.1.7.4.6.5 1.3.7 2 1 2.5 4.1 3.8 6.3 2.4 2.2-1.3 2.2-3.6 0-5-1.3-.8-2.8-1.4-4.2-2-2.5-1.1-3.5-3-3.7-5.7 0-1.4.5-2.5 1.5-3 1.6-.9 3.5-1.7 5.2-1.7 1.8 0 3.5.7 5.3-.2a7.5 7.5 0 0 1 .6 6.7c-1.8.7-2.4-.3-3-1.8-.8-2.4-2.2-3.3-4.5-2.7-.7.2-1.6 1-1.8 1.7-.2.6.4 1.7 1 2 1.2.8 2.5 1.2 3.8 1.7 3.3 1.3 5.2 4 5 7 0 2.3-1.4 4.7-3.6 5.2-2.5.6-5.1 1-7.5-1z"/>
    <path d="M373.5 704c3.6.3 6.7-1 9.9 1.1-3.1 2.4-3.2 5.1-2.7 8.3.3 2.5 0 5.1-.3 7.6-.1 1.5.1 2.4 1.2 3.4 1.4 1.4 1.1 2.3-.8 3l-.8.2-7.8-.5c-.5-1.3-.4-2.3.7-2.7 1.5-.6 1.9-1.7 1.9-3v-12.5c0-.8-.5-1.5-.7-2.3l-.6-2.7zM90 665.5v3.2c-.2 2-.2 4 2.3 4.8.3.1.5.7 1 1.4H83c-.8-2.5 1.3-2 2.5-2.6.7-5 .5-10-.4-15-.8-.4-1.8-.6-2.6-.9-.2-1.2.4-1.6 1.3-1.7l8.8-.2c.4 0 .8.2 1.2.4 3.3 1 4.9 2.9 4.5 5.4-.3 2.6-3.4 5.3-6.3 5.4-.6 0-1.3 0-2.2-.2zm-.4-8.8v6.4c1.9.8 3.3.4 4.4-1 .9-1.3.7-2.8-.1-4.2-1-1.6-2.5-1.7-4.3-1.2zM240.9 653.7v5.7c-.1.5-.6 1.5-1 1.6-.6 0-1.4-.4-2-.9-.3-.2-.2-.9-.4-1.3-.9-1.9-3-2.9-5-2.4-1.9.4-3 1.8-3.1 4v6.6c0 1.8 1 3.2 2.3 4.2 2.2 1.7 5.4.3 6-2.4.3-.8.4-1.7.6-2.5 2-.2 2.8.6 2.6 2.4-.3 1.7.9 3.5-.6 5.3l-2-1.2c-3 1.4-6 1.7-9 0-2.1-1-3.5-2.6-4-4.9-.8-2.9-1.3-5.8.2-8.6.6-1.2 1.3-2.7 2.4-3.3 2.6-1.4 5.2-3.4 8.5-1.4.4.3 1.2-.2 1.9-.3l2.6-.6zM461.7 773.4c-3 .4-5.6-.8-6.8-3-.6-1-1-2-1.5-3.1-1.1-2.2-1.4-2.3-4.5-2 .3 2.9-1.6 6 2 8.7h-5.6c0-2.5.2-4.7.3-7 0-1.9-.2-3.8 0-5.6.2-2.1.2-4.1-1.6-6.2 4.2 0 7.9-.2 11.5 0 2 .2 4 2.5 4.3 4.7.3 2.2-1 3.7-2.7 4.5-1.4.7-1.4 1.4-1 2.6 1.1 2.6 2.8 4.5 5.6 6.4zm-13-11c1.2 1.7 3 1 4.6 1 1.9 0 3-.8 3.1-2.4.3-1.7-.5-3-2.2-3.6a7.8 7.8 0 0 0-5 0l-.6 5zM197.3 727.7h-8.5c0-.9-.3-2 .1-2.3 1.4-1 1-2.2 1-3.5v-14.2c-1-.6-2.6-1.3-1.4-3.5h8.5c-.2 1-.1 2-.6 2.4-1.1 1.1-1.2 2.4-1.2 3.8v11.3c0 1.2 0 2.3 1.1 3.2.6.5.6 1.5 1 2.8zM465.2 774v-7.6c.1-2.5.4-4.9.4-7.3 0-1.2-.5-2.3-.9-3.8l3-.2h6.3c3 .1 4.5 1.1 5.3 3.5.8 2.3.2 4-2.2 5.9l-1.8 1.2c1.4 3 3 5.6 5.9 7.7-2 .8-3.3.5-4.5-.5-1-1-2-2.2-2.8-3.4-.7-.8-1-2-1.8-2.7-.6-.6-1.6-1.2-2.5-1.2-1.2 0-1.4 1.2-1.4 2.3 0 2-.3 4.1 2.2 6h-5.2zm3.5-10.8c1.7 1.5 3.6.7 5.5.2.6-.2 1.2-1 1.4-1.7.7-3.3-1.4-5.4-5-5.1-1.3 0-2 .6-2 2v4.6zM372.7 770.2l2-3.4 2.2 3.3c1.7 2.3 6.1 3.2 8.6 1.8 1.8-1 2-3.3 0-4.3-1.4-.7-3-1-4.6-1.6-1.6-.6-3.3-1-4.8-1.7-2.8-1.6-2.7-4.7-.8-6.8a9.3 9.3 0 0 1 10.1-1.8c3 1.5 3.2 2.5 1 5.4-.3-.5-.9-.8-1-1.3-.3-1.2-.9-2.4-2.2-2.5-1.7-.2-3.4-.2-5 .2-.4 0-1 1.4-1 2.2.1 1.1 1 1.9 2.2 2.1a292.2 292.2 0 0 1 6.9 1.8c2.4 1 4 3.6 3.6 5.6-.6 2.6-3.3 5-5.8 5.1h-3.3c-3.3 0-6-1.3-8.1-4zM483.4 764.9c0-5.9 3.7-9.6 9.5-9.8 4.8-.2 9.4 4.7 9.5 9.9.1 4-5 9.2-7.2 9.3-7.3.2-11.8-3.4-11.8-9.4zm7.7-7.3c-3.3 0-6.1 4-5.6 7 .4 2.6 5.7 7 8.6 7.3 2.7.2 4.9-1.3 5.6-3.9.9-3.2-2.6-8.7-6.3-9.8l-2.3-.6zM76.2 657.2l-2.8-.8c1.2-2 3.5-2.3 7.7-1.3.4 1.8-1.3 1.4-2.3 2.1v9.3c-.2 1.5-.6 3-1.2 4.3-.8 1.9-2.4 2.8-4.5 2.6h-1.2c-1.5-.2-3.4 0-4.2-.8-1.8-1.8-3.8-3.7-3.4-6.9.4-2.7 0-5.5 0-8.4l-2.4-1.5c2.1-1.7 6.5-1.6 9 0-.3 1.5-2 .7-3 1.9v6.9l.3 3.2c.3 2 1.7 3.5 3.6 3.7 2.4.3 4-.7 4.5-3 .3-1.5.5-3.2.4-4.8 0-2.2-.3-4.3-.5-6.5zM316.2 762.3c2.5-.1 5 1 6.7-2.2l.8 6.4a7 7 0 0 0-7-1.7l-.7 6.9 9.6.5c.5 0 1-.6 1.5-.9l1.7-1.3-.5 3.5c-2.6 1-5.2 0-7.8.3l-7.8.6.5-12.5v-4c-.2-.9-.9-1.6-1.6-2.8h11.2c3.4 0 4.2 1 4.2 5-3-3-6.5-3.3-10.5-3 0 1.8-.2 3.3-.3 5.2zM432.5 754.9l3 7.3c1.2 2.6 2.2 5.4 3.5 8 .7 1.3 2 2.4 3.2 3.8-2.1.6-4.2.3-6 .3l-.9-6.1c-2.4-.1-4.7-.4-7-.4-.5 0-1 .8-1.4 1.3-.4.8-.6 1.7-.8 2.6l2 2.4h-5.5l3-6.6c1-2.1 1.7-4.5 3-6.4 1.3-2 1-4.9 3.9-6.2zm-1 6.1-.7.2-2.1 4.7h5l-2.2-4.9zM417.2 761.3l-1.5-2c-1-1.8-2.3-2.6-4.4-2.2-2 .5-4 2.5-4 4.6 0 2.5 0 5 .5 7.4.2 1 1.4 2 2.5 2.7 2.4 1.3 6.9.5 8.3-2.3l1.2-1.8c1 .8.7 1.7.2 2.4-2.8 4-6.6 5.4-11.4 3.5-5.1-2-7-9.5-3.7-14.3 2.7-4 6.4-4.6 10.5-4 1.3.2 2.6 1.9 3.5 3.2.7 1-.3 2-1.7 2.8zM198.6 671.4c1.1 1 2.9.4 2.8 2.1-2 .7-7 .9-9.5.3-.4-2.2 1.8-1.3 2.7-2.5v-12.8c0-1-.4-1.9-1.7-2.1-.4-.1-.9-.6-1.6-1 .7-.5 1-1 1.4-1l6.6-.1c.4 0 1.1.4 1 .6 0 .5-.2 1.3-.5 1.3-1.3.4-1.2 1.4-1.2 2.2v13zM282 656.4c-.7-.5-2-1.1-2-1.7 0-1.3 1.4-1.1 2.3-1.2h6.4c.6 1.2.2 1.7-.6 2.2-.5.5-1.3 1.1-1.3 1.7-.1 4.5-.4 9.1.2 13.7l3.8 1.5c-3.8 1.6-7 .8-10.1.7.4-1.5.4-1.5 1.8-2.3v-14.5h-.6zM292.2 774l.6-4.8c0-3.5.2-7 0-10.5 0-1-.7-2-1.2-3.2 1.9-.7 4-.4 6.7 0-2.4 1.5-2 3.4-2 5.2l-.5 11c2.2.3 4.3.6 6.4.7 2.4.2 3.8-1.5 5.5-3.3.6 2.1 0 3.5-.8 5h-14.7zM504.2 773.8c2.6-3 1.4-6.2 1.5-9.2 0-3 1-6.4-1.7-9.5l6.4-.4c-2.4 2.8-1.6 5.7-1.7 8.4v8.6c3.3.3 6.4.1 9.5.2l1.8-2.4c1.1 3.2.7 4.1-2.4 4.3-3.8.3-7.7.4-11.5.5-.5 0-1-.3-2-.5zM386.6 222.6c-.7 1.7-1.1 2.9-1.7 4-.6 1-1.2 2-2.1 2.7-1.2.8-2 0-2.5-1.4l2-.8c1-.6 1-1.7 0-2.2-.9-.4-2-.4-1.8-1.6.1-.7.8-1.4 1.3-2l.6-.6c0-1.2-.2-2.2-.3-3.4l2.9-1.3-.8-5.1c.8-.8 1.8-1.9 3-2.7.4-.3 1.6-.1 2 .3 1 1.2 1.6 2.7.8 4.4-1 1.8-1.7 3.9-3 5.5-1.2 1.6-1.6 2.9-.4 4.2zM525.6 755.3h3.5l-.2 8.3v8.3h7.2c.7-.1 1.5-.6 2-1 .7-.7 1.3-1.5 2-2.5 1.4 2-.5 3.4-.5 5.4h-15c1.6-1.6 1-3.4 1-5.4-.3-3 .1-6.3.2-9.4l-.2-3.7zM403.7 120.8c0-.6-.3-1.2 0-1.7 1-2.1 1.8-4.4 3.2-6.3 1.8-2.3 2.3-5.2 3.3-7.8.5-1-.5-2.5.5-3.8 1-1.3 3.2-2 4.7-1.4.8.4.9 1.5.2 2.3-1.7 2-2.8 4.1-3.2 6.9-.3 1.9-1.4 3.9-2.7 5.3-1.4 1.6-1.9 3-.8 5.4-2.6-1.5-3.7.5-5.3 1l.1.1zM362 755.1h4l2.2.2c-2.8 4.9-1.1 10-1.4 14.9-.1 1.1.8 2.3 1.2 3.5-1.6.8-1.6.8-5 .5.3-3.2.7-6.3.7-9.4 0-3.1 1-6.4-1.6-9.7zM396.6 227.9c1.7-2.1 2.7-4.3 2.5-7 0-.7.6-1.6 1.1-2.2l2.4-2-.5-3.3 4.3 1c-.4.8-.6 1.6-1 1.7a4.4 4.4 0 0 0-2.5 4.2c.1 2.8-1.7 4.7-2.5 7-.7 2.2-1.4 2.2-3.8.6zM440.7 100c.1.6.1 1 .3 1.4.6 2 1.3 4-1.5 5-.2.1-.2 1-.4 1.3l-1.7 2c-1.3-2.4-1.4-3.4.2-4.4 1.6-1 1.5-1.8.9-3.3-.8-1.8-.2-2.2 2.2-2zM417.5 104.8l4-3.3c0-.3 0-1 .2-1.8.5.2 1 .2 1.2.4.6 1.4-.7 7.1-1.8 8.1l-.8.2c-.4-.5-.9-1-1.3-1.7-.5-.5-.9-1-1.5-2zM403.6 120.8l.2 2.2 2.6-1c1 .8.9 1.6.4 2.4l-1.4 1.9c-1 1.3-2.8 1.2-3.3-.3-.4-1.4-.2-3 0-4.4 0-.3 1-.5 1.6-.8zM377.8 241.2c-2.3-2.5-2.3-3-.7-5.3.6-.8.4-2 .7-3.3l2.5 1.3-2.5 7.3zM402.2 201.6c-2.5-1.3-2.6-1.6-1.3-3.2.4-.4.7-.8 1.1-1 .5-.3 1.2-.3 1.8-.4 0 .5.1 1.1 0 1.6-.4 1-1 1.9-1.6 3zM366 214.5c-.3 1.7 1.6 3.5 0 5.2-2.2-1.4-2.2-2.4 0-5.2zM393.7 211c2.1-1.2 3.2.1 4.6 1-2 1.8-3 1.6-4.6-1zM343.3 224.4l-1.4-1.8c1.6-.2 2 .3 1.4 1.8zM345.5 226.5c.4.6.7 1 .8 1.4 0 .2-.5.5-.7.7-.3-.3-.7-.6-.8-1 0-.2.4-.5.7-1zM424.5 110.5c.5.5 1 .8.9 1-.1.3-.5.6-.8 1l-.6-.9c0-.3.3-.6.5-1.1z"/>
  </g>
</svg>
